solid OpenSCAD_Model
  facet normal 0 0 -1
    outer loop
      vertex -8.94724 -0.973071 0
      vertex -8.94724 0.973071 0
      vertex -8.52888 -2.87371 0
    endloop
  endfacet
  facet normal 0 0 -1
    outer loop
      vertex -8.52888 -2.87371 0
      vertex -8.94724 0.973071 0
      vertex -8.52888 2.87371 0
    endloop
  endfacet
  facet normal 0 0 -1
    outer loop
      vertex -8.52888 -2.87371 0
      vertex -8.52888 2.87371 0
      vertex -7.71171 4.63998 0
    endloop
  endfacet
  facet normal 0 0 -1
    outer loop
      vertex -7.76753 1.91452 0
      vertex -7.71171 4.63998 0
      vertex -6.53396 6.18929 0
    endloop
  endfacet
  facet normal 0 0 -1
    outer loop
      vertex -5.98809 5.30498 0
      vertex -6.53396 6.18929 0
      vertex -5.05068 7.4492 0
    endloop
  endfacet
  facet normal 0 0 -1
    outer loop
      vertex -4.54452 6.58387 0
      vertex -5.05068 7.4492 0
      vertex -3.33124 8.36079 0
    endloop
  endfacet
  facet normal 0 0 -1
    outer loop
      vertex -2.83684 7.48013 0
      vertex -3.33124 8.36079 0
      vertex -1.45604 8.88144 0
    endloop
  endfacet
  facet normal 0 0 -1
    outer loop
      vertex -0.964293 7.94167 0
      vertex -1.45604 8.88144 0
      vertex 0.48725 8.9868 0
    endloop
  endfacet
  facet normal 0 0 -1
    outer loop
      vertex 0.964293 7.94167 0
      vertex 0.48725 8.9868 0
      vertex 2.40775 8.67195 0
    endloop
  endfacet
  facet normal 0 0 -1
    outer loop
      vertex 2.83684 7.48013 0
      vertex 2.40775 8.67195 0
      vertex 4.21568 7.95161 0
    endloop
  endfacet
  facet normal 0 0 -1
    outer loop
      vertex 4.54452 6.58387 0
      vertex 4.21568 7.95161 0
      vertex 5.82648 6.85946 0
    endloop
  endfacet
  facet normal 0 0 -1
    outer loop
      vertex 5.98809 5.30498 0
      vertex 5.82648 6.85946 0
      vertex 7.16484 5.44657 0
    endloop
  endfacet
  facet normal 0 0 -1
    outer loop
      vertex 7.08365 3.71778 0
      vertex 7.16484 5.44657 0
      vertex 8.16818 3.779 0
    endloop
  endfacet
  facet normal 0 0 -1
    outer loop
      vertex 7.76753 1.91452 0
      vertex 8.16818 3.779 0
      vertex 8.78958 1.93473 0
    endloop
  endfacet
  facet normal 0 0 -1
    outer loop
      vertex 8 0 0
      vertex 8.78958 1.93473 0
      vertex 9 0 0
    endloop
  endfacet
  facet normal 0 0 -1
    outer loop
      vertex 7.76753 -1.91452 0
      vertex 9 0 0
      vertex 8.78958 -1.93473 0
    endloop
  endfacet
  facet normal 0 0 -1
    outer loop
      vertex 7.08365 -3.71778 0
      vertex 8.78958 -1.93473 0
      vertex 8.16818 -3.779 0
    endloop
  endfacet
  facet normal 0 0 -1
    outer loop
      vertex 5.98809 -5.30498 0
      vertex 7.16484 -5.44657 0
      vertex 5.82648 -6.85946 0
    endloop
  endfacet
  facet normal 0 0 -1
    outer loop
      vertex 4.54452 -6.58387 0
      vertex 5.82648 -6.85946 0
      vertex 4.21568 -7.95161 0
    endloop
  endfacet
  facet normal 0 0 -1
    outer loop
      vertex 2.83684 -7.48013 0
      vertex 4.21568 -7.95161 0
      vertex 2.40775 -8.67195 0
    endloop
  endfacet
  facet normal 0 0 -1
    outer loop
      vertex -0.964293 -7.94167 0
      vertex 2.40775 -8.67195 0
      vertex 0.48725 -8.9868 0
    endloop
  endfacet
  facet normal 0 0 -1
    outer loop
      vertex -2.83684 -7.48013 0
      vertex 0.48725 -8.9868 0
      vertex -1.45604 -8.88144 0
    endloop
  endfacet
  facet normal 0 0 -1
    outer loop
      vertex -4.54452 -6.58387 0
      vertex -1.45604 -8.88144 0
      vertex -3.33124 -8.36079 0
    endloop
  endfacet
  facet normal 0 0 -1
    outer loop
      vertex -8.52888 -2.87371 0
      vertex -3.33124 -8.36079 0
      vertex -5.05068 -7.4492 0
    endloop
  endfacet
  facet normal 0 0 -1
    outer loop
      vertex -8.52888 -2.87371 0
      vertex -5.05068 -7.4492 0
      vertex -6.53396 -6.18929 0
    endloop
  endfacet
  facet normal 0 0 -1
    outer loop
      vertex -8.52888 -2.87371 0
      vertex -6.53396 -6.18929 0
      vertex -7.71171 -4.63998 0
    endloop
  endfacet
  facet normal 0 0 -1
    outer loop
      vertex -8.52888 -2.87371 0
      vertex -7.71171 4.63998 0
      vertex -8 0 0
    endloop
  endfacet
  facet normal 0 0 -1
    outer loop
      vertex -7.08365 -3.71778 0
      vertex -8.52888 -2.87371 0
      vertex -7.76753 -1.91452 0
    endloop
  endfacet
  facet normal 0 0 -1
    outer loop
      vertex -5.98809 -5.30498 0
      vertex -8.52888 -2.87371 0
      vertex -7.08365 -3.71778 0
    endloop
  endfacet
  facet normal 0 0 -1
    outer loop
      vertex -2.83684 -7.48013 0
      vertex -1.45604 -8.88144 0
      vertex -4.54452 -6.58387 0
    endloop
  endfacet
  facet normal 0 0 -1
    outer loop
      vertex -8.52888 -2.87371 0
      vertex -5.98809 -5.30498 0
      vertex -3.33124 -8.36079 0
    endloop
  endfacet
  facet normal 0 0 -1
    outer loop
      vertex -5.98809 -5.30498 0
      vertex -4.54452 -6.58387 0
      vertex -3.33124 -8.36079 0
    endloop
  endfacet
  facet normal 0 0 -1
    outer loop
      vertex 0.964293 -7.94167 0
      vertex 2.40775 -8.67195 0
      vertex -0.964293 -7.94167 0
    endloop
  endfacet
  facet normal 0 0 -1
    outer loop
      vertex 2.83684 -7.48013 0
      vertex 2.40775 -8.67195 0
      vertex 0.964293 -7.94167 0
    endloop
  endfacet
  facet normal 0 0 -1
    outer loop
      vertex -0.964293 -7.94167 0
      vertex 0.48725 -8.9868 0
      vertex -2.83684 -7.48013 0
    endloop
  endfacet
  facet normal 0 0 -1
    outer loop
      vertex -0.964293 7.94167 0
      vertex 0.48725 8.9868 0
      vertex 0.964293 7.94167 0
    endloop
  endfacet
  facet normal 0 0 -1
    outer loop
      vertex 0.964293 7.94167 0
      vertex 2.40775 8.67195 0
      vertex 2.83684 7.48013 0
    endloop
  endfacet
  facet normal 0 0 -1
    outer loop
      vertex 2.83684 7.48013 0
      vertex 4.21568 7.95161 0
      vertex 4.54452 6.58387 0
    endloop
  endfacet
  facet normal 0 0 -1
    outer loop
      vertex 4.54452 6.58387 0
      vertex 5.82648 6.85946 0
      vertex 5.98809 5.30498 0
    endloop
  endfacet
  facet normal 0 0 -1
    outer loop
      vertex 5.98809 5.30498 0
      vertex 7.16484 5.44657 0
      vertex 7.08365 3.71778 0
    endloop
  endfacet
  facet normal 0 0 -1
    outer loop
      vertex 7.08365 3.71778 0
      vertex 8.16818 3.779 0
      vertex 7.76753 1.91452 0
    endloop
  endfacet
  facet normal 0 0 -1
    outer loop
      vertex -8 0 0
      vertex -7.71171 4.63998 0
      vertex -7.76753 1.91452 0
    endloop
  endfacet
  facet normal 0 0 -1
    outer loop
      vertex -7.76753 -1.91452 0
      vertex -8.52888 -2.87371 0
      vertex -8 0 0
    endloop
  endfacet
  facet normal 0 0 -1
    outer loop
      vertex -7.08365 3.71778 0
      vertex -6.53396 6.18929 0
      vertex -5.98809 5.30498 0
    endloop
  endfacet
  facet normal 0 0 -1
    outer loop
      vertex -7.76753 1.91452 0
      vertex -6.53396 6.18929 0
      vertex -7.08365 3.71778 0
    endloop
  endfacet
  facet normal 0 0 -1
    outer loop
      vertex -5.98809 5.30498 0
      vertex -5.05068 7.4492 0
      vertex -4.54452 6.58387 0
    endloop
  endfacet
  facet normal 0 0 -1
    outer loop
      vertex -4.54452 6.58387 0
      vertex -3.33124 8.36079 0
      vertex -2.83684 7.48013 0
    endloop
  endfacet
  facet normal 0 0 -1
    outer loop
      vertex -2.83684 7.48013 0
      vertex -1.45604 8.88144 0
      vertex -0.964293 7.94167 0
    endloop
  endfacet
  facet normal 0 0 -1
    outer loop
      vertex 7.76753 1.91452 0
      vertex 8.78958 1.93473 0
      vertex 8 0 0
    endloop
  endfacet
  facet normal 0 0 -1
    outer loop
      vertex 8 0 0
      vertex 9 0 0
      vertex 7.76753 -1.91452 0
    endloop
  endfacet
  facet normal 0 0 -1
    outer loop
      vertex 7.08365 -3.71778 0
      vertex 8.16818 -3.779 0
      vertex 7.16484 -5.44657 0
    endloop
  endfacet
  facet normal 0 0 -1
    outer loop
      vertex 7.76753 -1.91452 0
      vertex 8.78958 -1.93473 0
      vertex 7.08365 -3.71778 0
    endloop
  endfacet
  facet normal 0 0 -1
    outer loop
      vertex 7.08365 -3.71778 0
      vertex 7.16484 -5.44657 0
      vertex 5.98809 -5.30498 0
    endloop
  endfacet
  facet normal 0 0 -1
    outer loop
      vertex 5.98809 -5.30498 0
      vertex 5.82648 -6.85946 0
      vertex 4.54452 -6.58387 0
    endloop
  endfacet
  facet normal 0 0 -1
    outer loop
      vertex 4.54452 -6.58387 0
      vertex 4.21568 -7.95161 0
      vertex 2.83684 -7.48013 0
    endloop
  endfacet
  facet normal -1 0 0
    outer loop
      vertex -8.94724 -0.973071 0
      vertex -8.94724 -0.973071 40
      vertex -8.94724 0.973071 0
    endloop
  endfacet
  facet normal -1 0 0
    outer loop
      vertex -8.94724 0.973071 0
      vertex -8.94724 -0.973071 40
      vertex -8.94724 0.973071 40
    endloop
  endfacet
  facet normal -0.976621 -0.21497 0
    outer loop
      vertex -8.94724 -0.973071 0
      vertex -8.52888 -2.87371 0
      vertex -8.94724 -0.973071 40
    endloop
  endfacet
  facet normal -0.976621 -0.21497 0
    outer loop
      vertex -8.94724 -0.973071 40
      vertex -8.52888 -2.87371 0
      vertex -8.52888 -2.87371 40
    endloop
  endfacet
  facet normal -0.907575 -0.419889 0
    outer loop
      vertex -8.52888 -2.87371 0
      vertex -7.71171 -4.63998 0
      vertex -8.52888 -2.87371 40
    endloop
  endfacet
  facet normal -0.907575 -0.419889 0
    outer loop
      vertex -8.52888 -2.87371 40
      vertex -7.71171 -4.63998 0
      vertex -7.71171 -4.63998 40
    endloop
  endfacet
  facet normal -0.796093 -0.605175 0
    outer loop
      vertex -7.71171 -4.63998 0
      vertex -6.53396 -6.18929 0
      vertex -7.71171 -4.63998 40
    endloop
  endfacet
  facet normal -0.796093 -0.605175 0
    outer loop
      vertex -7.71171 -4.63998 40
      vertex -6.53396 -6.18929 0
      vertex -6.53396 -6.18929 40
    endloop
  endfacet
  facet normal -0.647387 -0.762162 0
    outer loop
      vertex -6.53396 -6.18929 40
      vertex -6.53396 -6.18929 0
      vertex -5.05068 -7.4492 0
    endloop
  endfacet
  facet normal -0.647387 -0.762162 0
    outer loop
      vertex -5.05068 -7.4492 40
      vertex -6.53396 -6.18929 40
      vertex -5.05068 -7.4492 0
    endloop
  endfacet
  facet normal -0.468408 -0.883512 0
    outer loop
      vertex -5.05068 -7.4492 40
      vertex -5.05068 -7.4492 0
      vertex -3.33124 -8.36079 0
    endloop
  endfacet
  facet normal -0.468408 -0.883512 0
    outer loop
      vertex -3.33124 -8.36079 40
      vertex -5.05068 -7.4492 40
      vertex -3.33124 -8.36079 0
    endloop
  endfacet
  facet normal -0.267529 -0.96355 0
    outer loop
      vertex -3.33124 -8.36079 40
      vertex -3.33124 -8.36079 0
      vertex -1.45604 -8.88144 0
    endloop
  endfacet
  facet normal -0.267529 -0.96355 0
    outer loop
      vertex -1.45604 -8.88144 40
      vertex -3.33124 -8.36079 40
      vertex -1.45604 -8.88144 0
    endloop
  endfacet
  facet normal -0.0541389 -0.998533 0
    outer loop
      vertex -1.45604 -8.88144 40
      vertex -1.45604 -8.88144 0
      vertex 0.48725 -8.9868 0
    endloop
  endfacet
  facet normal -0.0541389 -0.998533 0
    outer loop
      vertex 0.48725 -8.9868 40
      vertex -1.45604 -8.88144 40
      vertex 0.48725 -8.9868 0
    endloop
  endfacet
  facet normal 0.161782 -0.986827 0
    outer loop
      vertex 0.48725 -8.9868 40
      vertex 0.48725 -8.9868 0
      vertex 2.40775 -8.67195 0
    endloop
  endfacet
  facet normal 0.161782 -0.986827 0
    outer loop
      vertex 2.40775 -8.67195 40
      vertex 0.48725 -8.9868 40
      vertex 2.40775 -8.67195 0
    endloop
  endfacet
  facet normal 0.370138 -0.928977 0
    outer loop
      vertex 2.40775 -8.67195 40
      vertex 2.40775 -8.67195 0
      vertex 4.21568 -7.95161 0
    endloop
  endfacet
  facet normal 0.370138 -0.928977 0
    outer loop
      vertex 4.21568 -7.95161 40
      vertex 2.40775 -8.67195 40
      vertex 4.21568 -7.95161 0
    endloop
  endfacet
  facet normal 0.561187 -0.827689 0
    outer loop
      vertex 4.21568 -7.95161 40
      vertex 4.21568 -7.95161 0
      vertex 5.82648 -6.85946 0
    endloop
  endfacet
  facet normal 0.561187 -0.827689 0
    outer loop
      vertex 5.82648 -6.85946 40
      vertex 4.21568 -7.95161 40
      vertex 5.82648 -6.85946 0
    endloop
  endfacet
  facet normal 0.725995 -0.6877 0
    outer loop
      vertex 5.82648 -6.85946 40
      vertex 5.82648 -6.85946 0
      vertex 7.16484 -5.44657 0
    endloop
  endfacet
  facet normal 0.725995 -0.6877 0
    outer loop
      vertex 7.16484 -5.44657 40
      vertex 5.82648 -6.85946 40
      vertex 7.16484 -5.44657 0
    endloop
  endfacet
  facet normal 0.856857 -0.515554 0
    outer loop
      vertex 7.16484 -5.44657 40
      vertex 7.16484 -5.44657 0
      vertex 8.16818 -3.779 0
    endloop
  endfacet
  facet normal 0.856857 -0.515554 0
    outer loop
      vertex 8.16818 -3.779 40
      vertex 7.16484 -5.44657 40
      vertex 8.16818 -3.779 0
    endloop
  endfacet
  facet normal 0.947653 -0.319301 0
    outer loop
      vertex 8.16818 -3.779 40
      vertex 8.16818 -3.779 0
      vertex 8.78958 -1.93473 0
    endloop
  endfacet
  facet normal 0.947653 -0.319301 0
    outer loop
      vertex 8.78958 -1.93473 40
      vertex 8.16818 -3.779 40
      vertex 8.78958 -1.93473 0
    endloop
  endfacet
  facet normal 0.994138 -0.108119 0
    outer loop
      vertex 8.78958 -1.93473 40
      vertex 8.78958 -1.93473 0
      vertex 9 0 0
    endloop
  endfacet
  facet normal 0.994138 -0.108119 0
    outer loop
      vertex 9 0 40
      vertex 8.78958 -1.93473 40
      vertex 9 0 0
    endloop
  endfacet
  facet normal 0.994138 0.108119 0
    outer loop
      vertex 9 0 0
      vertex 8.78958 1.93473 0
      vertex 8.78958 1.93473 40
    endloop
  endfacet
  facet normal 0.994138 0.108119 0
    outer loop
      vertex 9 0 40
      vertex 9 0 0
      vertex 8.78958 1.93473 40
    endloop
  endfacet
  facet normal 0.947653 0.319301 0
    outer loop
      vertex 8.78958 1.93473 0
      vertex 8.16818 3.779 0
      vertex 8.16818 3.779 40
    endloop
  endfacet
  facet normal 0.947653 0.319301 0
    outer loop
      vertex 8.78958 1.93473 40
      vertex 8.78958 1.93473 0
      vertex 8.16818 3.779 40
    endloop
  endfacet
  facet normal 0.856857 0.515554 0
    outer loop
      vertex 8.16818 3.779 0
      vertex 7.16484 5.44657 0
      vertex 7.16484 5.44657 40
    endloop
  endfacet
  facet normal 0.856857 0.515554 0
    outer loop
      vertex 8.16818 3.779 40
      vertex 8.16818 3.779 0
      vertex 7.16484 5.44657 40
    endloop
  endfacet
  facet normal 0.725995 0.6877 0
    outer loop
      vertex 7.16484 5.44657 0
      vertex 5.82648 6.85946 0
      vertex 5.82648 6.85946 40
    endloop
  endfacet
  facet normal 0.725995 0.6877 0
    outer loop
      vertex 7.16484 5.44657 40
      vertex 7.16484 5.44657 0
      vertex 5.82648 6.85946 40
    endloop
  endfacet
  facet normal 0.561187 0.827689 0
    outer loop
      vertex 4.21568 7.95161 0
      vertex 4.21568 7.95161 40
      vertex 5.82648 6.85946 0
    endloop
  endfacet
  facet normal 0.561187 0.827689 0
    outer loop
      vertex 5.82648 6.85946 0
      vertex 4.21568 7.95161 40
      vertex 5.82648 6.85946 40
    endloop
  endfacet
  facet normal 0.370138 0.928977 0
    outer loop
      vertex 2.40775 8.67195 0
      vertex 2.40775 8.67195 40
      vertex 4.21568 7.95161 0
    endloop
  endfacet
  facet normal 0.370138 0.928977 0
    outer loop
      vertex 4.21568 7.95161 0
      vertex 2.40775 8.67195 40
      vertex 4.21568 7.95161 40
    endloop
  endfacet
  facet normal 0.161782 0.986827 0
    outer loop
      vertex 0.48725 8.9868 0
      vertex 0.48725 8.9868 40
      vertex 2.40775 8.67195 0
    endloop
  endfacet
  facet normal 0.161782 0.986827 0
    outer loop
      vertex 2.40775 8.67195 0
      vertex 0.48725 8.9868 40
      vertex 2.40775 8.67195 40
    endloop
  endfacet
  facet normal -0.0541389 0.998533 0
    outer loop
      vertex -1.45604 8.88144 0
      vertex -1.45604 8.88144 40
      vertex 0.48725 8.9868 0
    endloop
  endfacet
  facet normal -0.0541389 0.998533 0
    outer loop
      vertex 0.48725 8.9868 0
      vertex -1.45604 8.88144 40
      vertex 0.48725 8.9868 40
    endloop
  endfacet
  facet normal -0.267529 0.96355 0
    outer loop
      vertex -3.33124 8.36079 0
      vertex -3.33124 8.36079 40
      vertex -1.45604 8.88144 0
    endloop
  endfacet
  facet normal -0.267529 0.96355 0
    outer loop
      vertex -1.45604 8.88144 0
      vertex -3.33124 8.36079 40
      vertex -1.45604 8.88144 40
    endloop
  endfacet
  facet normal -0.468408 0.883512 0
    outer loop
      vertex -5.05068 7.4492 0
      vertex -5.05068 7.4492 40
      vertex -3.33124 8.36079 0
    endloop
  endfacet
  facet normal -0.468408 0.883512 0
    outer loop
      vertex -3.33124 8.36079 0
      vertex -5.05068 7.4492 40
      vertex -3.33124 8.36079 40
    endloop
  endfacet
  facet normal -0.647387 0.762162 0
    outer loop
      vertex -6.53396 6.18929 0
      vertex -6.53396 6.18929 40
      vertex -5.05068 7.4492 0
    endloop
  endfacet
  facet normal -0.647387 0.762162 0
    outer loop
      vertex -5.05068 7.4492 0
      vertex -6.53396 6.18929 40
      vertex -5.05068 7.4492 40
    endloop
  endfacet
  facet normal -0.796093 0.605175 0
    outer loop
      vertex -7.71171 4.63998 0
      vertex -7.71171 4.63998 40
      vertex -6.53396 6.18929 0
    endloop
  endfacet
  facet normal -0.796093 0.605175 0
    outer loop
      vertex -6.53396 6.18929 0
      vertex -7.71171 4.63998 40
      vertex -6.53396 6.18929 40
    endloop
  endfacet
  facet normal -0.907575 0.419889 0
    outer loop
      vertex -8.52888 2.87371 0
      vertex -8.52888 2.87371 40
      vertex -7.71171 4.63998 0
    endloop
  endfacet
  facet normal -0.907575 0.419889 0
    outer loop
      vertex -7.71171 4.63998 0
      vertex -8.52888 2.87371 40
      vertex -7.71171 4.63998 40
    endloop
  endfacet
  facet normal -0.976621 0.21497 0
    outer loop
      vertex -8.94724 0.973071 0
      vertex -8.94724 0.973071 40
      vertex -8.52888 2.87371 0
    endloop
  endfacet
  facet normal -0.976621 0.21497 0
    outer loop
      vertex -8.52888 2.87371 0
      vertex -8.94724 0.973071 40
      vertex -8.52888 2.87371 40
    endloop
  endfacet
  facet normal 0.992709 -0.120536 0
    outer loop
      vertex -7.76753 1.91452 0
      vertex -7.76753 1.91452 40
      vertex -8 0 40
    endloop
  endfacet
  facet normal 0.992709 -0.120536 0
    outer loop
      vertex -8 0 0
      vertex -7.76753 1.91452 0
      vertex -8 0 40
    endloop
  endfacet
  facet normal 0.992709 0.120536 0
    outer loop
      vertex -8 0 40
      vertex -7.76753 -1.91452 40
      vertex -7.76753 -1.91452 0
    endloop
  endfacet
  facet normal 0.992709 0.120536 0
    outer loop
      vertex -8 0 0
      vertex -8 0 40
      vertex -7.76753 -1.91452 0
    endloop
  endfacet
  facet normal 0.935016 -0.354605 0
    outer loop
      vertex -7.08365 3.71778 0
      vertex -7.08365 3.71778 40
      vertex -7.76753 1.91452 40
    endloop
  endfacet
  facet normal 0.935016 -0.354605 0
    outer loop
      vertex -7.76753 1.91452 0
      vertex -7.08365 3.71778 0
      vertex -7.76753 1.91452 40
    endloop
  endfacet
  facet normal 0.822984 -0.568065 0
    outer loop
      vertex -5.98809 5.30498 0
      vertex -5.98809 5.30498 40
      vertex -7.08365 3.71778 40
    endloop
  endfacet
  facet normal 0.822984 -0.568065 0
    outer loop
      vertex -7.08365 3.71778 0
      vertex -5.98809 5.30498 0
      vertex -7.08365 3.71778 40
    endloop
  endfacet
  facet normal 0.663123 -0.748511 0
    outer loop
      vertex -4.54452 6.58387 0
      vertex -4.54452 6.58387 40
      vertex -5.98809 5.30498 40
    endloop
  endfacet
  facet normal 0.663123 -0.748511 0
    outer loop
      vertex -5.98809 5.30498 0
      vertex -4.54452 6.58387 0
      vertex -5.98809 5.30498 40
    endloop
  endfacet
  facet normal 0.464723 -0.885456 0
    outer loop
      vertex -2.83684 7.48013 0
      vertex -2.83684 7.48013 40
      vertex -4.54452 6.58387 40
    endloop
  endfacet
  facet normal 0.464723 -0.885456 0
    outer loop
      vertex -4.54452 6.58387 0
      vertex -2.83684 7.48013 0
      vertex -4.54452 6.58387 40
    endloop
  endfacet
  facet normal 0.239316 -0.970942 0
    outer loop
      vertex -0.964293 7.94167 0
      vertex -0.964293 7.94167 40
      vertex -2.83684 7.48013 40
    endloop
  endfacet
  facet normal 0.239316 -0.970942 0
    outer loop
      vertex -2.83684 7.48013 0
      vertex -0.964293 7.94167 0
      vertex -2.83684 7.48013 40
    endloop
  endfacet
  facet normal 0 -1 0
    outer loop
      vertex 0.964293 7.94167 0
      vertex 0.964293 7.94167 40
      vertex -0.964293 7.94167 40
    endloop
  endfacet
  facet normal 0 -1 0
    outer loop
      vertex -0.964293 7.94167 0
      vertex 0.964293 7.94167 0
      vertex -0.964293 7.94167 40
    endloop
  endfacet
  facet normal -0.239316 -0.970942 0
    outer loop
      vertex 2.83684 7.48013 0
      vertex 2.83684 7.48013 40
      vertex 0.964293 7.94167 40
    endloop
  endfacet
  facet normal -0.239316 -0.970942 0
    outer loop
      vertex 0.964293 7.94167 0
      vertex 2.83684 7.48013 0
      vertex 0.964293 7.94167 40
    endloop
  endfacet
  facet normal -0.464723 -0.885456 0
    outer loop
      vertex 4.54452 6.58387 0
      vertex 4.54452 6.58387 40
      vertex 2.83684 7.48013 40
    endloop
  endfacet
  facet normal -0.464723 -0.885456 0
    outer loop
      vertex 2.83684 7.48013 0
      vertex 4.54452 6.58387 0
      vertex 2.83684 7.48013 40
    endloop
  endfacet
  facet normal -0.663123 -0.748511 0
    outer loop
      vertex 5.98809 5.30498 0
      vertex 5.98809 5.30498 40
      vertex 4.54452 6.58387 40
    endloop
  endfacet
  facet normal -0.663123 -0.748511 0
    outer loop
      vertex 4.54452 6.58387 0
      vertex 5.98809 5.30498 0
      vertex 4.54452 6.58387 40
    endloop
  endfacet
  facet normal -0.822984 -0.568065 0
    outer loop
      vertex 7.08365 3.71778 40
      vertex 5.98809 5.30498 40
      vertex 7.08365 3.71778 0
    endloop
  endfacet
  facet normal -0.822984 -0.568065 0
    outer loop
      vertex 7.08365 3.71778 0
      vertex 5.98809 5.30498 40
      vertex 5.98809 5.30498 0
    endloop
  endfacet
  facet normal -0.935016 -0.354605 0
    outer loop
      vertex 7.76753 1.91452 40
      vertex 7.08365 3.71778 40
      vertex 7.76753 1.91452 0
    endloop
  endfacet
  facet normal -0.935016 -0.354605 0
    outer loop
      vertex 7.76753 1.91452 0
      vertex 7.08365 3.71778 40
      vertex 7.08365 3.71778 0
    endloop
  endfacet
  facet normal -0.992709 -0.120536 0
    outer loop
      vertex 8 0 40
      vertex 7.76753 1.91452 40
      vertex 8 0 0
    endloop
  endfacet
  facet normal -0.992709 -0.120536 0
    outer loop
      vertex 8 0 0
      vertex 7.76753 1.91452 40
      vertex 7.76753 1.91452 0
    endloop
  endfacet
  facet normal -0.992709 0.120536 0
    outer loop
      vertex 8 0 40
      vertex 8 0 0
      vertex 7.76753 -1.91452 40
    endloop
  endfacet
  facet normal -0.992709 0.120536 0
    outer loop
      vertex 7.76753 -1.91452 40
      vertex 8 0 0
      vertex 7.76753 -1.91452 0
    endloop
  endfacet
  facet normal -0.935016 0.354605 0
    outer loop
      vertex 7.76753 -1.91452 40
      vertex 7.76753 -1.91452 0
      vertex 7.08365 -3.71778 40
    endloop
  endfacet
  facet normal -0.935016 0.354605 0
    outer loop
      vertex 7.08365 -3.71778 40
      vertex 7.76753 -1.91452 0
      vertex 7.08365 -3.71778 0
    endloop
  endfacet
  facet normal -0.822984 0.568065 0
    outer loop
      vertex 7.08365 -3.71778 40
      vertex 7.08365 -3.71778 0
      vertex 5.98809 -5.30498 40
    endloop
  endfacet
  facet normal -0.822984 0.568065 0
    outer loop
      vertex 5.98809 -5.30498 40
      vertex 7.08365 -3.71778 0
      vertex 5.98809 -5.30498 0
    endloop
  endfacet
  facet normal -0.663123 0.748511 0
    outer loop
      vertex 5.98809 -5.30498 40
      vertex 5.98809 -5.30498 0
      vertex 4.54452 -6.58387 40
    endloop
  endfacet
  facet normal -0.663123 0.748511 0
    outer loop
      vertex 4.54452 -6.58387 40
      vertex 5.98809 -5.30498 0
      vertex 4.54452 -6.58387 0
    endloop
  endfacet
  facet normal -0.464723 0.885456 0
    outer loop
      vertex 4.54452 -6.58387 40
      vertex 4.54452 -6.58387 0
      vertex 2.83684 -7.48013 40
    endloop
  endfacet
  facet normal -0.464723 0.885456 0
    outer loop
      vertex 2.83684 -7.48013 40
      vertex 4.54452 -6.58387 0
      vertex 2.83684 -7.48013 0
    endloop
  endfacet
  facet normal -0.239316 0.970942 0
    outer loop
      vertex 2.83684 -7.48013 40
      vertex 2.83684 -7.48013 0
      vertex 0.964293 -7.94167 40
    endloop
  endfacet
  facet normal -0.239316 0.970942 0
    outer loop
      vertex 0.964293 -7.94167 40
      vertex 2.83684 -7.48013 0
      vertex 0.964293 -7.94167 0
    endloop
  endfacet
  facet normal 0 1 0
    outer loop
      vertex 0.964293 -7.94167 40
      vertex 0.964293 -7.94167 0
      vertex -0.964293 -7.94167 40
    endloop
  endfacet
  facet normal 0 1 0
    outer loop
      vertex -0.964293 -7.94167 40
      vertex 0.964293 -7.94167 0
      vertex -0.964293 -7.94167 0
    endloop
  endfacet
  facet normal 0.239316 0.970942 0
    outer loop
      vertex -0.964293 -7.94167 40
      vertex -0.964293 -7.94167 0
      vertex -2.83684 -7.48013 40
    endloop
  endfacet
  facet normal 0.239316 0.970942 0
    outer loop
      vertex -2.83684 -7.48013 40
      vertex -0.964293 -7.94167 0
      vertex -2.83684 -7.48013 0
    endloop
  endfacet
  facet normal 0.464723 0.885456 0
    outer loop
      vertex -2.83684 -7.48013 40
      vertex -2.83684 -7.48013 0
      vertex -4.54452 -6.58387 40
    endloop
  endfacet
  facet normal 0.464723 0.885456 0
    outer loop
      vertex -4.54452 -6.58387 40
      vertex -2.83684 -7.48013 0
      vertex -4.54452 -6.58387 0
    endloop
  endfacet
  facet normal 0.663123 0.748511 0
    outer loop
      vertex -4.54452 -6.58387 40
      vertex -4.54452 -6.58387 0
      vertex -5.98809 -5.30498 40
    endloop
  endfacet
  facet normal 0.663123 0.748511 0
    outer loop
      vertex -5.98809 -5.30498 40
      vertex -4.54452 -6.58387 0
      vertex -5.98809 -5.30498 0
    endloop
  endfacet
  facet normal 0.822984 0.568065 0
    outer loop
      vertex -7.08365 -3.71778 40
      vertex -5.98809 -5.30498 40
      vertex -5.98809 -5.30498 0
    endloop
  endfacet
  facet normal 0.822984 0.568065 0
    outer loop
      vertex -7.08365 -3.71778 0
      vertex -7.08365 -3.71778 40
      vertex -5.98809 -5.30498 0
    endloop
  endfacet
  facet normal 0.935016 0.354605 0
    outer loop
      vertex -7.76753 -1.91452 40
      vertex -7.08365 -3.71778 40
      vertex -7.08365 -3.71778 0
    endloop
  endfacet
  facet normal 0.935016 0.354605 0
    outer loop
      vertex -7.76753 -1.91452 0
      vertex -7.76753 -1.91452 40
      vertex -7.08365 -3.71778 0
    endloop
  endfacet
  facet normal 0 0 1
    outer loop
      vertex -8.94724 0.973071 40
      vertex -8.94724 -0.973071 40
      vertex -8.52888 -2.87371 40
    endloop
  endfacet
  facet normal 0 0 1
    outer loop
      vertex -6.53396 -6.18929 40
      vertex -8.94724 0.973071 40
      vertex -7.71171 -4.63998 40
    endloop
  endfacet
  facet normal 0 0 1
    outer loop
      vertex -7.71171 -4.63998 40
      vertex -8.94724 0.973071 40
      vertex -8.52888 -2.87371 40
    endloop
  endfacet
  facet normal 0 0 1
    outer loop
      vertex -7.76753 -1.91452 40
      vertex -8.94724 0.973071 40
      vertex -6.53396 -6.18929 40
    endloop
  endfacet
  facet normal 0 0 1
    outer loop
      vertex 7.76753 1.91452 40
      vertex 8 0 40
      vertex 9 0 40
    endloop
  endfacet
  facet normal 0 0 1
    outer loop
      vertex -7.76753 1.91452 40
      vertex -7.08365 3.71778 40
      vertex -8.94724 0.973071 40
    endloop
  endfacet
  facet normal 0 0 1
    outer loop
      vertex 0.964293 7.94167 40
      vertex 2.83684 7.48013 40
      vertex 2.40775 8.67195 40
    endloop
  endfacet
  facet normal 0 0 1
    outer loop
      vertex -2.83684 7.48013 40
      vertex -0.964293 7.94167 40
      vertex -1.45604 8.88144 40
    endloop
  endfacet
  facet normal 0 0 1
    outer loop
      vertex -6.53396 6.18929 40
      vertex -8.94724 0.973071 40
      vertex -5.05068 7.4492 40
    endloop
  endfacet
  facet normal 0 0 1
    outer loop
      vertex -7.71171 4.63998 40
      vertex -8.94724 0.973071 40
      vertex -6.53396 6.18929 40
    endloop
  endfacet
  facet normal 0 0 1
    outer loop
      vertex -8.52888 2.87371 40
      vertex -8.94724 0.973071 40
      vertex -7.71171 4.63998 40
    endloop
  endfacet
  facet normal 0 0 1
    outer loop
      vertex -7.08365 -3.71778 40
      vertex -7.76753 -1.91452 40
      vertex -6.53396 -6.18929 40
    endloop
  endfacet
  facet normal 0 0 1
    outer loop
      vertex -0.964293 -7.94167 40
      vertex -2.83684 -7.48013 40
      vertex -1.45604 -8.88144 40
    endloop
  endfacet
  facet normal 0 0 1
    outer loop
      vertex 2.83684 7.48013 40
      vertex 4.54452 6.58387 40
      vertex 4.21568 7.95161 40
    endloop
  endfacet
  facet normal 0 0 1
    outer loop
      vertex -0.964293 7.94167 40
      vertex 0.964293 7.94167 40
      vertex 0.48725 8.9868 40
    endloop
  endfacet
  facet normal 0 0 1
    outer loop
      vertex -5.05068 7.4492 40
      vertex -8.94724 0.973071 40
      vertex -7.08365 3.71778 40
    endloop
  endfacet
  facet normal 0 0 1
    outer loop
      vertex -5.05068 7.4492 40
      vertex -5.98809 5.30498 40
      vertex -3.33124 8.36079 40
    endloop
  endfacet
  facet normal 0 0 1
    outer loop
      vertex -5.05068 7.4492 40
      vertex -7.08365 3.71778 40
      vertex -5.98809 5.30498 40
    endloop
  endfacet
  facet normal 0 0 1
    outer loop
      vertex -3.33124 8.36079 40
      vertex -4.54452 6.58387 40
      vertex -1.45604 8.88144 40
    endloop
  endfacet
  facet normal 0 0 1
    outer loop
      vertex -5.98809 5.30498 40
      vertex -4.54452 6.58387 40
      vertex -3.33124 8.36079 40
    endloop
  endfacet
  facet normal 0 0 1
    outer loop
      vertex -4.54452 6.58387 40
      vertex -2.83684 7.48013 40
      vertex -1.45604 8.88144 40
    endloop
  endfacet
  facet normal 0 0 1
    outer loop
      vertex 2.83684 -7.48013 40
      vertex 0.964293 -7.94167 40
      vertex 2.40775 -8.67195 40
    endloop
  endfacet
  facet normal 0 0 1
    outer loop
      vertex -1.45604 8.88144 40
      vertex -0.964293 7.94167 40
      vertex 0.48725 8.9868 40
    endloop
  endfacet
  facet normal 0 0 1
    outer loop
      vertex 0.48725 8.9868 40
      vertex 0.964293 7.94167 40
      vertex 2.40775 8.67195 40
    endloop
  endfacet
  facet normal 0 0 1
    outer loop
      vertex 2.40775 8.67195 40
      vertex 2.83684 7.48013 40
      vertex 4.21568 7.95161 40
    endloop
  endfacet
  facet normal 0 0 1
    outer loop
      vertex 4.21568 7.95161 40
      vertex 4.54452 6.58387 40
      vertex 5.82648 6.85946 40
    endloop
  endfacet
  facet normal 0 0 1
    outer loop
      vertex 5.82648 6.85946 40
      vertex 5.98809 5.30498 40
      vertex 7.16484 5.44657 40
    endloop
  endfacet
  facet normal 0 0 1
    outer loop
      vertex 7.16484 5.44657 40
      vertex 7.08365 3.71778 40
      vertex 8.16818 3.779 40
    endloop
  endfacet
  facet normal 0 0 1
    outer loop
      vertex 8.16818 3.779 40
      vertex 7.76753 1.91452 40
      vertex 8.78958 1.93473 40
    endloop
  endfacet
  facet normal 0 0 1
    outer loop
      vertex 9 0 40
      vertex 8 0 40
      vertex 8.78958 -1.93473 40
    endloop
  endfacet
  facet normal 0 0 1
    outer loop
      vertex 8.78958 -1.93473 40
      vertex 7.76753 -1.91452 40
      vertex 8.16818 -3.779 40
    endloop
  endfacet
  facet normal 0 0 1
    outer loop
      vertex 8.16818 -3.779 40
      vertex 7.08365 -3.71778 40
      vertex 7.16484 -5.44657 40
    endloop
  endfacet
  facet normal 0 0 1
    outer loop
      vertex 7.16484 -5.44657 40
      vertex 5.98809 -5.30498 40
      vertex 5.82648 -6.85946 40
    endloop
  endfacet
  facet normal 0 0 1
    outer loop
      vertex 5.82648 -6.85946 40
      vertex 4.54452 -6.58387 40
      vertex 4.21568 -7.95161 40
    endloop
  endfacet
  facet normal 0 0 1
    outer loop
      vertex 4.21568 -7.95161 40
      vertex 2.83684 -7.48013 40
      vertex 2.40775 -8.67195 40
    endloop
  endfacet
  facet normal 0 0 1
    outer loop
      vertex 2.40775 -8.67195 40
      vertex 0.964293 -7.94167 40
      vertex 0.48725 -8.9868 40
    endloop
  endfacet
  facet normal 0 0 1
    outer loop
      vertex 0.48725 -8.9868 40
      vertex -0.964293 -7.94167 40
      vertex -1.45604 -8.88144 40
    endloop
  endfacet
  facet normal 0 0 1
    outer loop
      vertex 4.54452 6.58387 40
      vertex 5.98809 5.30498 40
      vertex 5.82648 6.85946 40
    endloop
  endfacet
  facet normal 0 0 1
    outer loop
      vertex -1.45604 -8.88144 40
      vertex -2.83684 -7.48013 40
      vertex -3.33124 -8.36079 40
    endloop
  endfacet
  facet normal 0 0 1
    outer loop
      vertex 5.98809 5.30498 40
      vertex 7.08365 3.71778 40
      vertex 7.16484 5.44657 40
    endloop
  endfacet
  facet normal 0 0 1
    outer loop
      vertex -3.33124 -8.36079 40
      vertex -4.54452 -6.58387 40
      vertex -5.05068 -7.4492 40
    endloop
  endfacet
  facet normal 0 0 1
    outer loop
      vertex 7.08365 3.71778 40
      vertex 7.76753 1.91452 40
      vertex 8.16818 3.779 40
    endloop
  endfacet
  facet normal 0 0 1
    outer loop
      vertex -4.54452 -6.58387 40
      vertex -5.98809 -5.30498 40
      vertex -5.05068 -7.4492 40
    endloop
  endfacet
  facet normal 0 0 1
    outer loop
      vertex -5.05068 -7.4492 40
      vertex -7.08365 -3.71778 40
      vertex -6.53396 -6.18929 40
    endloop
  endfacet
  facet normal 0 0 1
    outer loop
      vertex -2.83684 -7.48013 40
      vertex -4.54452 -6.58387 40
      vertex -3.33124 -8.36079 40
    endloop
  endfacet
  facet normal 0 0 1
    outer loop
      vertex -5.98809 -5.30498 40
      vertex -7.08365 -3.71778 40
      vertex -5.05068 -7.4492 40
    endloop
  endfacet
  facet normal 0 0 1
    outer loop
      vertex -7.76753 -1.91452 40
      vertex -8 0 40
      vertex -8.94724 0.973071 40
    endloop
  endfacet
  facet normal 0 0 1
    outer loop
      vertex 7.76753 1.91452 40
      vertex 9 0 40
      vertex 8.78958 1.93473 40
    endloop
  endfacet
  facet normal 0 0 1
    outer loop
      vertex 8 0 40
      vertex 7.76753 -1.91452 40
      vertex 8.78958 -1.93473 40
    endloop
  endfacet
  facet normal 0 0 1
    outer loop
      vertex 7.76753 -1.91452 40
      vertex 7.08365 -3.71778 40
      vertex 8.16818 -3.779 40
    endloop
  endfacet
  facet normal 0 0 1
    outer loop
      vertex 7.08365 -3.71778 40
      vertex 5.98809 -5.30498 40
      vertex 7.16484 -5.44657 40
    endloop
  endfacet
  facet normal 0 0 1
    outer loop
      vertex 5.98809 -5.30498 40
      vertex 4.54452 -6.58387 40
      vertex 5.82648 -6.85946 40
    endloop
  endfacet
  facet normal 0 0 1
    outer loop
      vertex 4.54452 -6.58387 40
      vertex 2.83684 -7.48013 40
      vertex 4.21568 -7.95161 40
    endloop
  endfacet
  facet normal 0 0 1
    outer loop
      vertex 0.964293 -7.94167 40
      vertex -0.964293 -7.94167 40
      vertex 0.48725 -8.9868 40
    endloop
  endfacet
  facet normal 0 0 1
    outer loop
      vertex -8 0 40
      vertex -7.76753 1.91452 40
      vertex -8.94724 0.973071 40
    endloop
  endfacet
endsolid OpenSCAD_Model
