solid OpenSCAD_Model
  facet normal 0 0 -1
    outer loop
      vertex -45 0 -0.5
      vertex -44.0166 9.35603 -0.5
      vertex -44.0166 -9.35603 -0.5
    endloop
  endfacet
  facet normal 0 0 -1
    outer loop
      vertex -44.0166 -9.35603 -0.5
      vertex -44.0166 9.35603 -0.5
      vertex -41.1095 18.3031 -0.5
    endloop
  endfacet
  facet normal 0 0 -1
    outer loop
      vertex -44.0166 -9.35603 -0.5
      vertex -41.1095 18.3031 -0.5
      vertex -36.4058 26.4503 -0.5
    endloop
  endfacet
  facet normal 0 0 -1
    outer loop
      vertex -44.0166 -9.35603 -0.5
      vertex -36.4058 26.4503 -0.5
      vertex -30.1109 33.4415 -0.5
    endloop
  endfacet
  facet normal 0 0 -1
    outer loop
      vertex -44.0166 -9.35603 -0.5
      vertex -30.1109 33.4415 -0.5
      vertex -22.5 38.9711 -0.5
    endloop
  endfacet
  facet normal 0 0 -1
    outer loop
      vertex -44.0166 -9.35603 -0.5
      vertex -22.5 38.9711 -0.5
      vertex -13.9058 42.7975 -0.5
    endloop
  endfacet
  facet normal 0 0 -1
    outer loop
      vertex -44.0166 -9.35603 -0.5
      vertex -13.9058 42.7975 -0.5
      vertex -4.70378 44.7535 -0.5
    endloop
  endfacet
  facet normal 0 0 -1
    outer loop
      vertex -0.964293 40.9417 -0.5
      vertex -4.70378 44.7535 -0.5
      vertex 4.70378 44.7535 -0.5
    endloop
  endfacet
  facet normal 0 0 -1
    outer loop
      vertex 5.98809 38.305 -0.5
      vertex 4.70378 44.7535 -0.5
      vertex 13.9058 42.7975 -0.5
    endloop
  endfacet
  facet normal 0 0 -1
    outer loop
      vertex 7.08365 29.2822 -0.5
      vertex 15 42.3104 -0.5
      vertex 15 -42.3104 -0.5
    endloop
  endfacet
  facet normal 0 0 -1
    outer loop
      vertex -44.0166 -9.35603 -0.5
      vertex 15 -42.3104 -0.5
      vertex 13.9058 -42.7975 -0.5
    endloop
  endfacet
  facet normal 0 0 -1
    outer loop
      vertex -44.0166 -9.35603 -0.5
      vertex 13.9058 -42.7975 -0.5
      vertex 4.70378 -44.7535 -0.5
    endloop
  endfacet
  facet normal 0 0 -1
    outer loop
      vertex -44.0166 -9.35603 -0.5
      vertex 4.70378 -44.7535 -0.5
      vertex -4.70378 -44.7535 -0.5
    endloop
  endfacet
  facet normal 0 0 -1
    outer loop
      vertex -44.0166 -9.35603 -0.5
      vertex -4.70378 -44.7535 -0.5
      vertex -13.9058 -42.7975 -0.5
    endloop
  endfacet
  facet normal 0 0 -1
    outer loop
      vertex -44.0166 -9.35603 -0.5
      vertex -13.9058 -42.7975 -0.5
      vertex -22.5 -38.9711 -0.5
    endloop
  endfacet
  facet normal 0 0 -1
    outer loop
      vertex -44.0166 -9.35603 -0.5
      vertex -22.5 -38.9711 -0.5
      vertex -30.1109 -33.4415 -0.5
    endloop
  endfacet
  facet normal 0 0 -1
    outer loop
      vertex -44.0166 -9.35603 -0.5
      vertex -30.1109 -33.4415 -0.5
      vertex -36.4058 -26.4503 -0.5
    endloop
  endfacet
  facet normal 0 0 -1
    outer loop
      vertex -44.0166 -9.35603 -0.5
      vertex -36.4058 -26.4503 -0.5
      vertex -41.1095 -18.3031 -0.5
    endloop
  endfacet
  facet normal 0 0 -1
    outer loop
      vertex -4.58402 -5.29025 -0.5
      vertex 15 -42.3104 -0.5
      vertex -5.88877 -3.78449 -0.5
    endloop
  endfacet
  facet normal 0 0 -1
    outer loop
      vertex -44.0166 -9.35603 -0.5
      vertex -8 33 -0.5
      vertex -7.76753 31.0855 -0.5
    endloop
  endfacet
  facet normal 0 0 -1
    outer loop
      vertex 7.08365 36.7178 -0.5
      vertex 13.9058 42.7975 -0.5
      vertex 15 42.3104 -0.5
    endloop
  endfacet
  facet normal 0 0 -1
    outer loop
      vertex -2.83684 25.5199 -0.5
      vertex -44.0166 -9.35603 -0.5
      vertex -4.54452 26.4161 -0.5
    endloop
  endfacet
  facet normal 0 0 -1
    outer loop
      vertex -44.0166 -9.35603 -0.5
      vertex -7.08365 29.2822 -0.5
      vertex -5.98809 27.695 -0.5
    endloop
  endfacet
  facet normal 0 0 -1
    outer loop
      vertex -44.0166 -9.35603 -0.5
      vertex -5.98809 27.695 -0.5
      vertex -4.54452 26.4161 -0.5
    endloop
  endfacet
  facet normal 0 0 -1
    outer loop
      vertex 7.76753 31.0855 -0.5
      vertex 15 42.3104 -0.5
      vertex 7.08365 29.2822 -0.5
    endloop
  endfacet
  facet normal 0 0 -1
    outer loop
      vertex 7.08365 36.7178 -0.5
      vertex 15 42.3104 -0.5
      vertex 7.76753 34.9145 -0.5
    endloop
  endfacet
  facet normal 0 0 -1
    outer loop
      vertex 2.9079 6.36742 -0.5
      vertex -0.964293 25.0583 -0.5
      vertex 0.964293 25.0583 -0.5
    endloop
  endfacet
  facet normal 0 0 -1
    outer loop
      vertex 7.76753 34.9145 -0.5
      vertex 15 42.3104 -0.5
      vertex 8 33 -0.5
    endloop
  endfacet
  facet normal 0 0 -1
    outer loop
      vertex 6.71645 1.97213 -0.5
      vertex 2.83684 25.5199 -0.5
      vertex 15 -42.3104 -0.5
    endloop
  endfacet
  facet normal 0 0 -1
    outer loop
      vertex 2.83684 25.5199 -0.5
      vertex 4.54452 26.4161 -0.5
      vertex 15 -42.3104 -0.5
    endloop
  endfacet
  facet normal 0 0 -1
    outer loop
      vertex 8 33 -0.5
      vertex 15 42.3104 -0.5
      vertex 7.76753 31.0855 -0.5
    endloop
  endfacet
  facet normal 0 0 -1
    outer loop
      vertex 4.54452 26.4161 -0.5
      vertex 5.98809 27.695 -0.5
      vertex 15 -42.3104 -0.5
    endloop
  endfacet
  facet normal 0 0 -1
    outer loop
      vertex 5.98809 27.695 -0.5
      vertex 7.08365 29.2822 -0.5
      vertex 15 -42.3104 -0.5
    endloop
  endfacet
  facet normal 0 0 -1
    outer loop
      vertex 4.54452 39.5839 -0.5
      vertex 4.70378 44.7535 -0.5
      vertex 5.98809 38.305 -0.5
    endloop
  endfacet
  facet normal 0 0 -1
    outer loop
      vertex 0.964293 40.9417 -0.5
      vertex 4.70378 44.7535 -0.5
      vertex 2.83684 40.4801 -0.5
    endloop
  endfacet
  facet normal 0 0 -1
    outer loop
      vertex 2.83684 40.4801 -0.5
      vertex 4.70378 44.7535 -0.5
      vertex 4.54452 39.5839 -0.5
    endloop
  endfacet
  facet normal 0 0 -1
    outer loop
      vertex 0.996204 6.92875 -0.5
      vertex -2.83684 25.5199 -0.5
      vertex 2.9079 6.36742 -0.5
    endloop
  endfacet
  facet normal 0 0 -1
    outer loop
      vertex -0.964293 40.9417 -0.5
      vertex 4.70378 44.7535 -0.5
      vertex 0.964293 40.9417 -0.5
    endloop
  endfacet
  facet normal 0 0 -1
    outer loop
      vertex -2.83684 40.4801 -0.5
      vertex -4.70378 44.7535 -0.5
      vertex -0.964293 40.9417 -0.5
    endloop
  endfacet
  facet normal 0 0 -1
    outer loop
      vertex -7.08365 36.7178 -0.5
      vertex -4.70378 44.7535 -0.5
      vertex -5.98809 38.305 -0.5
    endloop
  endfacet
  facet normal 0 0 -1
    outer loop
      vertex -4.54452 39.5839 -0.5
      vertex -4.70378 44.7535 -0.5
      vertex -2.83684 40.4801 -0.5
    endloop
  endfacet
  facet normal 0 0 -1
    outer loop
      vertex -5.98809 38.305 -0.5
      vertex -4.70378 44.7535 -0.5
      vertex -4.54452 39.5839 -0.5
    endloop
  endfacet
  facet normal 0 0 -1
    outer loop
      vertex -44.0166 -9.35603 -0.5
      vertex -4.70378 44.7535 -0.5
      vertex -7.08365 36.7178 -0.5
    endloop
  endfacet
  facet normal 0 0 -1
    outer loop
      vertex -44.0166 -9.35603 -0.5
      vertex -7.08365 36.7178 -0.5
      vertex -7.76753 34.9145 -0.5
    endloop
  endfacet
  facet normal 0 0 -1
    outer loop
      vertex -44.0166 -9.35603 -0.5
      vertex -7.76753 34.9145 -0.5
      vertex -8 33 -0.5
    endloop
  endfacet
  facet normal 0 0 -1
    outer loop
      vertex -44.0166 -9.35603 -0.5
      vertex -7 0 -0.5
      vertex -6.71645 -1.97213 -0.5
    endloop
  endfacet
  facet normal 0 0 -1
    outer loop
      vertex -44.0166 -9.35603 -0.5
      vertex -6.71645 -1.97213 -0.5
      vertex -5.88877 -3.78449 -0.5
    endloop
  endfacet
  facet normal 0 0 -1
    outer loop
      vertex -44.0166 -9.35603 -0.5
      vertex -5.88877 -3.78449 -0.5
      vertex 15 -42.3104 -0.5
    endloop
  endfacet
  facet normal 0 0 -1
    outer loop
      vertex -2.9079 -6.36742 -0.5
      vertex 15 -42.3104 -0.5
      vertex -4.58402 -5.29025 -0.5
    endloop
  endfacet
  facet normal 0 0 -1
    outer loop
      vertex -6.71645 1.97213 -0.5
      vertex -2.83684 25.5199 -0.5
      vertex -5.88877 3.78449 -0.5
    endloop
  endfacet
  facet normal 0 0 -1
    outer loop
      vertex 5.88877 -3.78449 -0.5
      vertex 15 -42.3104 -0.5
      vertex 4.58402 -5.29025 -0.5
    endloop
  endfacet
  facet normal 0 0 -1
    outer loop
      vertex -2.9079 -6.36742 -0.5
      vertex -0.996204 -6.92875 -0.5
      vertex 15 -42.3104 -0.5
    endloop
  endfacet
  facet normal 0 0 -1
    outer loop
      vertex -2.9079 6.36742 -0.5
      vertex -2.83684 25.5199 -0.5
      vertex -0.996204 6.92875 -0.5
    endloop
  endfacet
  facet normal 0 0 -1
    outer loop
      vertex -0.996204 -6.92875 -0.5
      vertex 0.996204 -6.92875 -0.5
      vertex 15 -42.3104 -0.5
    endloop
  endfacet
  facet normal 0 0 -1
    outer loop
      vertex 0.996204 -6.92875 -0.5
      vertex 2.9079 -6.36742 -0.5
      vertex 15 -42.3104 -0.5
    endloop
  endfacet
  facet normal 0 0 -1
    outer loop
      vertex -0.996204 6.92875 -0.5
      vertex -2.83684 25.5199 -0.5
      vertex 0.996204 6.92875 -0.5
    endloop
  endfacet
  facet normal 0 0 -1
    outer loop
      vertex 2.9079 -6.36742 -0.5
      vertex 4.58402 -5.29025 -0.5
      vertex 15 -42.3104 -0.5
    endloop
  endfacet
  facet normal 0 0 -1
    outer loop
      vertex 6.71645 -1.97213 -0.5
      vertex 15 -42.3104 -0.5
      vertex 5.88877 -3.78449 -0.5
    endloop
  endfacet
  facet normal 0 0 -1
    outer loop
      vertex 4.58402 5.29025 -0.5
      vertex 0.964293 25.0583 -0.5
      vertex 5.88877 3.78449 -0.5
    endloop
  endfacet
  facet normal 0 0 -1
    outer loop
      vertex 5.88877 3.78449 -0.5
      vertex 2.83684 25.5199 -0.5
      vertex 6.71645 1.97213 -0.5
    endloop
  endfacet
  facet normal 0 0 -1
    outer loop
      vertex 6.71645 -1.97213 -0.5
      vertex 7 0 -0.5
      vertex 15 -42.3104 -0.5
    endloop
  endfacet
  facet normal 0 0 -1
    outer loop
      vertex 7 0 -0.5
      vertex 6.71645 1.97213 -0.5
      vertex 15 -42.3104 -0.5
    endloop
  endfacet
  facet normal 0 0 -1
    outer loop
      vertex 0.964293 25.0583 -0.5
      vertex 2.83684 25.5199 -0.5
      vertex 5.88877 3.78449 -0.5
    endloop
  endfacet
  facet normal 0 0 -1
    outer loop
      vertex 2.9079 6.36742 -0.5
      vertex 0.964293 25.0583 -0.5
      vertex 4.58402 5.29025 -0.5
    endloop
  endfacet
  facet normal 0 0 -1
    outer loop
      vertex -2.83684 25.5199 -0.5
      vertex -0.964293 25.0583 -0.5
      vertex 2.9079 6.36742 -0.5
    endloop
  endfacet
  facet normal 0 0 -1
    outer loop
      vertex -4.58402 5.29025 -0.5
      vertex -2.83684 25.5199 -0.5
      vertex -2.9079 6.36742 -0.5
    endloop
  endfacet
  facet normal 0 0 -1
    outer loop
      vertex -5.88877 3.78449 -0.5
      vertex -2.83684 25.5199 -0.5
      vertex -4.58402 5.29025 -0.5
    endloop
  endfacet
  facet normal 0 0 -1
    outer loop
      vertex -44.0166 -9.35603 -0.5
      vertex -2.83684 25.5199 -0.5
      vertex -6.71645 1.97213 -0.5
    endloop
  endfacet
  facet normal 0 0 -1
    outer loop
      vertex -44.0166 -9.35603 -0.5
      vertex -6.71645 1.97213 -0.5
      vertex -7 0 -0.5
    endloop
  endfacet
  facet normal 0 0 -1
    outer loop
      vertex -7.08365 29.2822 -0.5
      vertex -44.0166 -9.35603 -0.5
      vertex -7.76753 31.0855 -0.5
    endloop
  endfacet
  facet normal 0 0 -1
    outer loop
      vertex 5.98809 38.305 -0.5
      vertex 13.9058 42.7975 -0.5
      vertex 7.08365 36.7178 -0.5
    endloop
  endfacet
  facet normal -0.994522 0.104528 0
    outer loop
      vertex -45 0 -0.5
      vertex -45 0 0.5
      vertex -44.0166 9.35603 -0.5
    endloop
  endfacet
  facet normal -0.994522 0.104528 0
    outer loop
      vertex -44.0166 9.35603 -0.5
      vertex -45 0 0.5
      vertex -44.0166 9.35603 0.5
    endloop
  endfacet
  facet normal -0.994522 -0.104528 0
    outer loop
      vertex -45 0 -0.5
      vertex -44.0166 -9.35603 -0.5
      vertex -45 0 0.5
    endloop
  endfacet
  facet normal -0.994522 -0.104528 0
    outer loop
      vertex -45 0 0.5
      vertex -44.0166 -9.35603 -0.5
      vertex -44.0166 -9.35603 0.5
    endloop
  endfacet
  facet normal -0.951057 -0.309017 0
    outer loop
      vertex -44.0166 -9.35603 -0.5
      vertex -41.1095 -18.3031 -0.5
      vertex -44.0166 -9.35603 0.5
    endloop
  endfacet
  facet normal -0.951057 -0.309017 0
    outer loop
      vertex -44.0166 -9.35603 0.5
      vertex -41.1095 -18.3031 -0.5
      vertex -41.1095 -18.3031 0.5
    endloop
  endfacet
  facet normal -0.866025 -0.5 0
    outer loop
      vertex -41.1095 -18.3031 -0.5
      vertex -36.4058 -26.4503 -0.5
      vertex -41.1095 -18.3031 0.5
    endloop
  endfacet
  facet normal -0.866025 -0.5 0
    outer loop
      vertex -41.1095 -18.3031 0.5
      vertex -36.4058 -26.4503 -0.5
      vertex -36.4058 -26.4503 0.5
    endloop
  endfacet
  facet normal -0.743145 -0.669131 0
    outer loop
      vertex -36.4058 -26.4503 -0.5
      vertex -30.1109 -33.4415 -0.5
      vertex -36.4058 -26.4503 0.5
    endloop
  endfacet
  facet normal -0.743145 -0.669131 0
    outer loop
      vertex -36.4058 -26.4503 0.5
      vertex -30.1109 -33.4415 -0.5
      vertex -30.1109 -33.4415 0.5
    endloop
  endfacet
  facet normal -0.587785 -0.809017 0
    outer loop
      vertex -30.1109 -33.4415 0.5
      vertex -30.1109 -33.4415 -0.5
      vertex -22.5 -38.9711 -0.5
    endloop
  endfacet
  facet normal -0.587785 -0.809017 0
    outer loop
      vertex -22.5 -38.9711 0.5
      vertex -30.1109 -33.4415 0.5
      vertex -22.5 -38.9711 -0.5
    endloop
  endfacet
  facet normal -0.406737 -0.913545 0
    outer loop
      vertex -22.5 -38.9711 0.5
      vertex -22.5 -38.9711 -0.5
      vertex -13.9058 -42.7975 -0.5
    endloop
  endfacet
  facet normal -0.406737 -0.913545 0
    outer loop
      vertex -13.9058 -42.7975 0.5
      vertex -22.5 -38.9711 0.5
      vertex -13.9058 -42.7975 -0.5
    endloop
  endfacet
  facet normal -0.207912 -0.978148 0
    outer loop
      vertex -13.9058 -42.7975 0.5
      vertex -13.9058 -42.7975 -0.5
      vertex -4.70378 -44.7535 -0.5
    endloop
  endfacet
  facet normal -0.207912 -0.978148 0
    outer loop
      vertex -4.70378 -44.7535 0.5
      vertex -13.9058 -42.7975 0.5
      vertex -4.70378 -44.7535 -0.5
    endloop
  endfacet
  facet normal 0 -1 0
    outer loop
      vertex -4.70378 -44.7535 0.5
      vertex -4.70378 -44.7535 -0.5
      vertex 4.70378 -44.7535 -0.5
    endloop
  endfacet
  facet normal 0 -1 0
    outer loop
      vertex 4.70378 -44.7535 0.5
      vertex -4.70378 -44.7535 0.5
      vertex 4.70378 -44.7535 -0.5
    endloop
  endfacet
  facet normal 0.207912 -0.978148 0
    outer loop
      vertex 4.70378 -44.7535 0.5
      vertex 4.70378 -44.7535 -0.5
      vertex 13.9058 -42.7975 -0.5
    endloop
  endfacet
  facet normal 0.207912 -0.978148 0
    outer loop
      vertex 13.9058 -42.7975 0.5
      vertex 4.70378 -44.7535 0.5
      vertex 13.9058 -42.7975 -0.5
    endloop
  endfacet
  facet normal 0.406737 -0.913545 0
    outer loop
      vertex 13.9058 -42.7975 0.5
      vertex 13.9058 -42.7975 -0.5
      vertex 15 -42.3104 -0.5
    endloop
  endfacet
  facet normal 0.406737 -0.913545 0
    outer loop
      vertex 15 -42.3104 0.5
      vertex 13.9058 -42.7975 0.5
      vertex 15 -42.3104 -0.5
    endloop
  endfacet
  facet normal 1 0 0
    outer loop
      vertex 15 42.3104 -0.5
      vertex 15 42.3104 0.5
      vertex 15 -42.3104 0.5
    endloop
  endfacet
  facet normal 1 0 0
    outer loop
      vertex 15 -42.3104 -0.5
      vertex 15 42.3104 -0.5
      vertex 15 -42.3104 0.5
    endloop
  endfacet
  facet normal 0.406737 0.913545 0
    outer loop
      vertex 13.9058 42.7975 -0.5
      vertex 13.9058 42.7975 0.5
      vertex 15 42.3104 -0.5
    endloop
  endfacet
  facet normal 0.406737 0.913545 0
    outer loop
      vertex 15 42.3104 -0.5
      vertex 13.9058 42.7975 0.5
      vertex 15 42.3104 0.5
    endloop
  endfacet
  facet normal 0.207912 0.978148 0
    outer loop
      vertex 4.70378 44.7535 -0.5
      vertex 4.70378 44.7535 0.5
      vertex 13.9058 42.7975 -0.5
    endloop
  endfacet
  facet normal 0.207912 0.978148 0
    outer loop
      vertex 13.9058 42.7975 -0.5
      vertex 4.70378 44.7535 0.5
      vertex 13.9058 42.7975 0.5
    endloop
  endfacet
  facet normal 0 1 0
    outer loop
      vertex -4.70378 44.7535 -0.5
      vertex -4.70378 44.7535 0.5
      vertex 4.70378 44.7535 -0.5
    endloop
  endfacet
  facet normal 0 1 0
    outer loop
      vertex 4.70378 44.7535 -0.5
      vertex -4.70378 44.7535 0.5
      vertex 4.70378 44.7535 0.5
    endloop
  endfacet
  facet normal -0.207912 0.978148 0
    outer loop
      vertex -13.9058 42.7975 -0.5
      vertex -13.9058 42.7975 0.5
      vertex -4.70378 44.7535 -0.5
    endloop
  endfacet
  facet normal -0.207912 0.978148 0
    outer loop
      vertex -4.70378 44.7535 -0.5
      vertex -13.9058 42.7975 0.5
      vertex -4.70378 44.7535 0.5
    endloop
  endfacet
  facet normal -0.406737 0.913545 0
    outer loop
      vertex -22.5 38.9711 -0.5
      vertex -22.5 38.9711 0.5
      vertex -13.9058 42.7975 -0.5
    endloop
  endfacet
  facet normal -0.406737 0.913545 0
    outer loop
      vertex -13.9058 42.7975 -0.5
      vertex -22.5 38.9711 0.5
      vertex -13.9058 42.7975 0.5
    endloop
  endfacet
  facet normal -0.587785 0.809017 0
    outer loop
      vertex -30.1109 33.4415 -0.5
      vertex -30.1109 33.4415 0.5
      vertex -22.5 38.9711 -0.5
    endloop
  endfacet
  facet normal -0.587785 0.809017 0
    outer loop
      vertex -22.5 38.9711 -0.5
      vertex -30.1109 33.4415 0.5
      vertex -22.5 38.9711 0.5
    endloop
  endfacet
  facet normal -0.743145 0.669131 0
    outer loop
      vertex -36.4058 26.4503 -0.5
      vertex -36.4058 26.4503 0.5
      vertex -30.1109 33.4415 -0.5
    endloop
  endfacet
  facet normal -0.743145 0.669131 0
    outer loop
      vertex -30.1109 33.4415 -0.5
      vertex -36.4058 26.4503 0.5
      vertex -30.1109 33.4415 0.5
    endloop
  endfacet
  facet normal -0.866025 0.5 0
    outer loop
      vertex -41.1095 18.3031 -0.5
      vertex -41.1095 18.3031 0.5
      vertex -36.4058 26.4503 -0.5
    endloop
  endfacet
  facet normal -0.866025 0.5 0
    outer loop
      vertex -36.4058 26.4503 -0.5
      vertex -41.1095 18.3031 0.5
      vertex -36.4058 26.4503 0.5
    endloop
  endfacet
  facet normal -0.951057 0.309017 0
    outer loop
      vertex -44.0166 9.35603 -0.5
      vertex -44.0166 9.35603 0.5
      vertex -41.1095 18.3031 -0.5
    endloop
  endfacet
  facet normal -0.951057 0.309017 0
    outer loop
      vertex -41.1095 18.3031 -0.5
      vertex -44.0166 9.35603 0.5
      vertex -41.1095 18.3031 0.5
    endloop
  endfacet
  facet normal 0.992709 -0.120536 0
    outer loop
      vertex -7.76753 34.9145 -0.5
      vertex -7.76753 34.9145 0.5
      vertex -8 33 0.5
    endloop
  endfacet
  facet normal 0.992709 -0.120536 0
    outer loop
      vertex -8 33 -0.5
      vertex -7.76753 34.9145 -0.5
      vertex -8 33 0.5
    endloop
  endfacet
  facet normal 0.992709 0.120536 0
    outer loop
      vertex -8 33 0.5
      vertex -7.76753 31.0855 0.5
      vertex -7.76753 31.0855 -0.5
    endloop
  endfacet
  facet normal 0.992709 0.120536 0
    outer loop
      vertex -8 33 -0.5
      vertex -8 33 0.5
      vertex -7.76753 31.0855 -0.5
    endloop
  endfacet
  facet normal 0.935016 -0.354605 0
    outer loop
      vertex -7.08365 36.7178 -0.5
      vertex -7.08365 36.7178 0.5
      vertex -7.76753 34.9145 0.5
    endloop
  endfacet
  facet normal 0.935016 -0.354605 0
    outer loop
      vertex -7.76753 34.9145 -0.5
      vertex -7.08365 36.7178 -0.5
      vertex -7.76753 34.9145 0.5
    endloop
  endfacet
  facet normal 0.822984 -0.568065 0
    outer loop
      vertex -5.98809 38.305 -0.5
      vertex -5.98809 38.305 0.5
      vertex -7.08365 36.7178 0.5
    endloop
  endfacet
  facet normal 0.822984 -0.568065 0
    outer loop
      vertex -7.08365 36.7178 -0.5
      vertex -5.98809 38.305 -0.5
      vertex -7.08365 36.7178 0.5
    endloop
  endfacet
  facet normal 0.663123 -0.748511 0
    outer loop
      vertex -4.54452 39.5839 -0.5
      vertex -4.54452 39.5839 0.5
      vertex -5.98809 38.305 0.5
    endloop
  endfacet
  facet normal 0.663123 -0.748511 0
    outer loop
      vertex -5.98809 38.305 -0.5
      vertex -4.54452 39.5839 -0.5
      vertex -5.98809 38.305 0.5
    endloop
  endfacet
  facet normal 0.464723 -0.885456 0
    outer loop
      vertex -2.83684 40.4801 -0.5
      vertex -2.83684 40.4801 0.5
      vertex -4.54452 39.5839 0.5
    endloop
  endfacet
  facet normal 0.464723 -0.885456 0
    outer loop
      vertex -4.54452 39.5839 -0.5
      vertex -2.83684 40.4801 -0.5
      vertex -4.54452 39.5839 0.5
    endloop
  endfacet
  facet normal 0.239316 -0.970942 0
    outer loop
      vertex -0.964293 40.9417 -0.5
      vertex -0.964293 40.9417 0.5
      vertex -2.83684 40.4801 0.5
    endloop
  endfacet
  facet normal 0.239316 -0.970942 0
    outer loop
      vertex -2.83684 40.4801 -0.5
      vertex -0.964293 40.9417 -0.5
      vertex -2.83684 40.4801 0.5
    endloop
  endfacet
  facet normal 0 -1 0
    outer loop
      vertex 0.964293 40.9417 -0.5
      vertex 0.964293 40.9417 0.5
      vertex -0.964293 40.9417 0.5
    endloop
  endfacet
  facet normal 0 -1 0
    outer loop
      vertex -0.964293 40.9417 -0.5
      vertex 0.964293 40.9417 -0.5
      vertex -0.964293 40.9417 0.5
    endloop
  endfacet
  facet normal -0.239316 -0.970942 0
    outer loop
      vertex 2.83684 40.4801 -0.5
      vertex 2.83684 40.4801 0.5
      vertex 0.964293 40.9417 0.5
    endloop
  endfacet
  facet normal -0.239316 -0.970942 0
    outer loop
      vertex 0.964293 40.9417 -0.5
      vertex 2.83684 40.4801 -0.5
      vertex 0.964293 40.9417 0.5
    endloop
  endfacet
  facet normal -0.464723 -0.885456 0
    outer loop
      vertex 4.54452 39.5839 -0.5
      vertex 4.54452 39.5839 0.5
      vertex 2.83684 40.4801 0.5
    endloop
  endfacet
  facet normal -0.464723 -0.885456 0
    outer loop
      vertex 2.83684 40.4801 -0.5
      vertex 4.54452 39.5839 -0.5
      vertex 2.83684 40.4801 0.5
    endloop
  endfacet
  facet normal -0.663123 -0.748511 0
    outer loop
      vertex 5.98809 38.305 -0.5
      vertex 5.98809 38.305 0.5
      vertex 4.54452 39.5839 0.5
    endloop
  endfacet
  facet normal -0.663123 -0.748511 0
    outer loop
      vertex 4.54452 39.5839 -0.5
      vertex 5.98809 38.305 -0.5
      vertex 4.54452 39.5839 0.5
    endloop
  endfacet
  facet normal -0.822984 -0.568065 0
    outer loop
      vertex 7.08365 36.7178 0.5
      vertex 5.98809 38.305 0.5
      vertex 7.08365 36.7178 -0.5
    endloop
  endfacet
  facet normal -0.822984 -0.568065 0
    outer loop
      vertex 7.08365 36.7178 -0.5
      vertex 5.98809 38.305 0.5
      vertex 5.98809 38.305 -0.5
    endloop
  endfacet
  facet normal -0.935016 -0.354605 0
    outer loop
      vertex 7.76753 34.9145 0.5
      vertex 7.08365 36.7178 0.5
      vertex 7.76753 34.9145 -0.5
    endloop
  endfacet
  facet normal -0.935016 -0.354605 0
    outer loop
      vertex 7.76753 34.9145 -0.5
      vertex 7.08365 36.7178 0.5
      vertex 7.08365 36.7178 -0.5
    endloop
  endfacet
  facet normal -0.992709 -0.120536 0
    outer loop
      vertex 8 33 0.5
      vertex 7.76753 34.9145 0.5
      vertex 8 33 -0.5
    endloop
  endfacet
  facet normal -0.992709 -0.120536 0
    outer loop
      vertex 8 33 -0.5
      vertex 7.76753 34.9145 0.5
      vertex 7.76753 34.9145 -0.5
    endloop
  endfacet
  facet normal -0.992709 0.120536 0
    outer loop
      vertex 8 33 0.5
      vertex 8 33 -0.5
      vertex 7.76753 31.0855 0.5
    endloop
  endfacet
  facet normal -0.992709 0.120536 0
    outer loop
      vertex 7.76753 31.0855 0.5
      vertex 8 33 -0.5
      vertex 7.76753 31.0855 -0.5
    endloop
  endfacet
  facet normal -0.935016 0.354605 0
    outer loop
      vertex 7.76753 31.0855 0.5
      vertex 7.76753 31.0855 -0.5
      vertex 7.08365 29.2822 0.5
    endloop
  endfacet
  facet normal -0.935016 0.354605 0
    outer loop
      vertex 7.08365 29.2822 0.5
      vertex 7.76753 31.0855 -0.5
      vertex 7.08365 29.2822 -0.5
    endloop
  endfacet
  facet normal -0.822984 0.568065 0
    outer loop
      vertex 7.08365 29.2822 0.5
      vertex 7.08365 29.2822 -0.5
      vertex 5.98809 27.695 0.5
    endloop
  endfacet
  facet normal -0.822984 0.568065 0
    outer loop
      vertex 5.98809 27.695 0.5
      vertex 7.08365 29.2822 -0.5
      vertex 5.98809 27.695 -0.5
    endloop
  endfacet
  facet normal -0.663123 0.748511 0
    outer loop
      vertex 5.98809 27.695 0.5
      vertex 5.98809 27.695 -0.5
      vertex 4.54452 26.4161 0.5
    endloop
  endfacet
  facet normal -0.663123 0.748511 0
    outer loop
      vertex 4.54452 26.4161 0.5
      vertex 5.98809 27.695 -0.5
      vertex 4.54452 26.4161 -0.5
    endloop
  endfacet
  facet normal -0.464723 0.885456 0
    outer loop
      vertex 4.54452 26.4161 0.5
      vertex 4.54452 26.4161 -0.5
      vertex 2.83684 25.5199 0.5
    endloop
  endfacet
  facet normal -0.464723 0.885456 0
    outer loop
      vertex 2.83684 25.5199 0.5
      vertex 4.54452 26.4161 -0.5
      vertex 2.83684 25.5199 -0.5
    endloop
  endfacet
  facet normal -0.239316 0.970942 0
    outer loop
      vertex 2.83684 25.5199 0.5
      vertex 2.83684 25.5199 -0.5
      vertex 0.964293 25.0583 0.5
    endloop
  endfacet
  facet normal -0.239316 0.970942 0
    outer loop
      vertex 0.964293 25.0583 0.5
      vertex 2.83684 25.5199 -0.5
      vertex 0.964293 25.0583 -0.5
    endloop
  endfacet
  facet normal 0 1 0
    outer loop
      vertex 0.964293 25.0583 0.5
      vertex 0.964293 25.0583 -0.5
      vertex -0.964293 25.0583 0.5
    endloop
  endfacet
  facet normal 0 1 0
    outer loop
      vertex -0.964293 25.0583 0.5
      vertex 0.964293 25.0583 -0.5
      vertex -0.964293 25.0583 -0.5
    endloop
  endfacet
  facet normal 0.239316 0.970942 0
    outer loop
      vertex -0.964293 25.0583 0.5
      vertex -0.964293 25.0583 -0.5
      vertex -2.83684 25.5199 0.5
    endloop
  endfacet
  facet normal 0.239316 0.970942 0
    outer loop
      vertex -2.83684 25.5199 0.5
      vertex -0.964293 25.0583 -0.5
      vertex -2.83684 25.5199 -0.5
    endloop
  endfacet
  facet normal 0.464723 0.885456 0
    outer loop
      vertex -2.83684 25.5199 0.5
      vertex -2.83684 25.5199 -0.5
      vertex -4.54452 26.4161 0.5
    endloop
  endfacet
  facet normal 0.464723 0.885456 0
    outer loop
      vertex -4.54452 26.4161 0.5
      vertex -2.83684 25.5199 -0.5
      vertex -4.54452 26.4161 -0.5
    endloop
  endfacet
  facet normal 0.663123 0.748511 0
    outer loop
      vertex -4.54452 26.4161 0.5
      vertex -4.54452 26.4161 -0.5
      vertex -5.98809 27.695 0.5
    endloop
  endfacet
  facet normal 0.663123 0.748511 0
    outer loop
      vertex -5.98809 27.695 0.5
      vertex -4.54452 26.4161 -0.5
      vertex -5.98809 27.695 -0.5
    endloop
  endfacet
  facet normal 0.822984 0.568065 0
    outer loop
      vertex -7.08365 29.2822 0.5
      vertex -5.98809 27.695 0.5
      vertex -5.98809 27.695 -0.5
    endloop
  endfacet
  facet normal 0.822984 0.568065 0
    outer loop
      vertex -7.08365 29.2822 -0.5
      vertex -7.08365 29.2822 0.5
      vertex -5.98809 27.695 -0.5
    endloop
  endfacet
  facet normal 0.935016 0.354605 0
    outer loop
      vertex -7.76753 31.0855 0.5
      vertex -7.08365 29.2822 0.5
      vertex -7.08365 29.2822 -0.5
    endloop
  endfacet
  facet normal 0.935016 0.354605 0
    outer loop
      vertex -7.76753 31.0855 -0.5
      vertex -7.76753 31.0855 0.5
      vertex -7.08365 29.2822 -0.5
    endloop
  endfacet
  facet normal 0.989821 -0.142315 0
    outer loop
      vertex -6.71645 1.97213 -0.5
      vertex -6.71645 1.97213 0.5
      vertex -7 0 0.5
    endloop
  endfacet
  facet normal 0.989821 -0.142315 0
    outer loop
      vertex -7 0 -0.5
      vertex -6.71645 1.97213 -0.5
      vertex -7 0 0.5
    endloop
  endfacet
  facet normal 0.989821 0.142315 0
    outer loop
      vertex -7 0 0.5
      vertex -6.71645 -1.97213 0.5
      vertex -6.71645 -1.97213 -0.5
    endloop
  endfacet
  facet normal 0.989821 0.142315 0
    outer loop
      vertex -7 0 -0.5
      vertex -7 0 0.5
      vertex -6.71645 -1.97213 -0.5
    endloop
  endfacet
  facet normal 0.909632 -0.415415 0
    outer loop
      vertex -5.88877 3.78449 -0.5
      vertex -5.88877 3.78449 0.5
      vertex -6.71645 1.97213 0.5
    endloop
  endfacet
  facet normal 0.909632 -0.415415 0
    outer loop
      vertex -6.71645 1.97213 -0.5
      vertex -5.88877 3.78449 -0.5
      vertex -6.71645 1.97213 0.5
    endloop
  endfacet
  facet normal 0.755749 -0.654861 0
    outer loop
      vertex -4.58402 5.29025 -0.5
      vertex -4.58402 5.29025 0.5
      vertex -5.88877 3.78449 0.5
    endloop
  endfacet
  facet normal 0.755749 -0.654861 0
    outer loop
      vertex -5.88877 3.78449 -0.5
      vertex -4.58402 5.29025 -0.5
      vertex -5.88877 3.78449 0.5
    endloop
  endfacet
  facet normal 0.540641 -0.841254 0
    outer loop
      vertex -2.9079 6.36742 -0.5
      vertex -2.9079 6.36742 0.5
      vertex -4.58402 5.29025 0.5
    endloop
  endfacet
  facet normal 0.540641 -0.841254 0
    outer loop
      vertex -4.58402 5.29025 -0.5
      vertex -2.9079 6.36742 -0.5
      vertex -4.58402 5.29025 0.5
    endloop
  endfacet
  facet normal 0.281733 -0.959493 0
    outer loop
      vertex -0.996204 6.92875 -0.5
      vertex -0.996204 6.92875 0.5
      vertex -2.9079 6.36742 0.5
    endloop
  endfacet
  facet normal 0.281733 -0.959493 0
    outer loop
      vertex -2.9079 6.36742 -0.5
      vertex -0.996204 6.92875 -0.5
      vertex -2.9079 6.36742 0.5
    endloop
  endfacet
  facet normal 0 -1 0
    outer loop
      vertex 0.996204 6.92875 -0.5
      vertex 0.996204 6.92875 0.5
      vertex -0.996204 6.92875 0.5
    endloop
  endfacet
  facet normal 0 -1 0
    outer loop
      vertex -0.996204 6.92875 -0.5
      vertex 0.996204 6.92875 -0.5
      vertex -0.996204 6.92875 0.5
    endloop
  endfacet
  facet normal -0.281733 -0.959493 0
    outer loop
      vertex 2.9079 6.36742 -0.5
      vertex 2.9079 6.36742 0.5
      vertex 0.996204 6.92875 0.5
    endloop
  endfacet
  facet normal -0.281733 -0.959493 0
    outer loop
      vertex 0.996204 6.92875 -0.5
      vertex 2.9079 6.36742 -0.5
      vertex 0.996204 6.92875 0.5
    endloop
  endfacet
  facet normal -0.540641 -0.841254 0
    outer loop
      vertex 4.58402 5.29025 -0.5
      vertex 4.58402 5.29025 0.5
      vertex 2.9079 6.36742 0.5
    endloop
  endfacet
  facet normal -0.540641 -0.841254 0
    outer loop
      vertex 2.9079 6.36742 -0.5
      vertex 4.58402 5.29025 -0.5
      vertex 2.9079 6.36742 0.5
    endloop
  endfacet
  facet normal -0.755749 -0.654861 0
    outer loop
      vertex 5.88877 3.78449 0.5
      vertex 4.58402 5.29025 0.5
      vertex 5.88877 3.78449 -0.5
    endloop
  endfacet
  facet normal -0.755749 -0.654861 0
    outer loop
      vertex 5.88877 3.78449 -0.5
      vertex 4.58402 5.29025 0.5
      vertex 4.58402 5.29025 -0.5
    endloop
  endfacet
  facet normal -0.909632 -0.415415 0
    outer loop
      vertex 6.71645 1.97213 0.5
      vertex 5.88877 3.78449 0.5
      vertex 6.71645 1.97213 -0.5
    endloop
  endfacet
  facet normal -0.909632 -0.415415 0
    outer loop
      vertex 6.71645 1.97213 -0.5
      vertex 5.88877 3.78449 0.5
      vertex 5.88877 3.78449 -0.5
    endloop
  endfacet
  facet normal -0.989821 -0.142315 0
    outer loop
      vertex 7 0 0.5
      vertex 6.71645 1.97213 0.5
      vertex 7 0 -0.5
    endloop
  endfacet
  facet normal -0.989821 -0.142315 0
    outer loop
      vertex 7 0 -0.5
      vertex 6.71645 1.97213 0.5
      vertex 6.71645 1.97213 -0.5
    endloop
  endfacet
  facet normal -0.989821 0.142315 0
    outer loop
      vertex 7 0 0.5
      vertex 7 0 -0.5
      vertex 6.71645 -1.97213 0.5
    endloop
  endfacet
  facet normal -0.989821 0.142315 0
    outer loop
      vertex 6.71645 -1.97213 0.5
      vertex 7 0 -0.5
      vertex 6.71645 -1.97213 -0.5
    endloop
  endfacet
  facet normal -0.909632 0.415415 0
    outer loop
      vertex 6.71645 -1.97213 0.5
      vertex 6.71645 -1.97213 -0.5
      vertex 5.88877 -3.78449 0.5
    endloop
  endfacet
  facet normal -0.909632 0.415415 0
    outer loop
      vertex 5.88877 -3.78449 0.5
      vertex 6.71645 -1.97213 -0.5
      vertex 5.88877 -3.78449 -0.5
    endloop
  endfacet
  facet normal -0.755749 0.654861 0
    outer loop
      vertex 5.88877 -3.78449 0.5
      vertex 5.88877 -3.78449 -0.5
      vertex 4.58402 -5.29025 0.5
    endloop
  endfacet
  facet normal -0.755749 0.654861 0
    outer loop
      vertex 4.58402 -5.29025 0.5
      vertex 5.88877 -3.78449 -0.5
      vertex 4.58402 -5.29025 -0.5
    endloop
  endfacet
  facet normal -0.540641 0.841254 0
    outer loop
      vertex 4.58402 -5.29025 0.5
      vertex 4.58402 -5.29025 -0.5
      vertex 2.9079 -6.36742 0.5
    endloop
  endfacet
  facet normal -0.540641 0.841254 0
    outer loop
      vertex 2.9079 -6.36742 0.5
      vertex 4.58402 -5.29025 -0.5
      vertex 2.9079 -6.36742 -0.5
    endloop
  endfacet
  facet normal -0.281733 0.959493 0
    outer loop
      vertex 2.9079 -6.36742 0.5
      vertex 2.9079 -6.36742 -0.5
      vertex 0.996204 -6.92875 0.5
    endloop
  endfacet
  facet normal -0.281733 0.959493 0
    outer loop
      vertex 0.996204 -6.92875 0.5
      vertex 2.9079 -6.36742 -0.5
      vertex 0.996204 -6.92875 -0.5
    endloop
  endfacet
  facet normal 0 1 0
    outer loop
      vertex 0.996204 -6.92875 0.5
      vertex 0.996204 -6.92875 -0.5
      vertex -0.996204 -6.92875 0.5
    endloop
  endfacet
  facet normal 0 1 0
    outer loop
      vertex -0.996204 -6.92875 0.5
      vertex 0.996204 -6.92875 -0.5
      vertex -0.996204 -6.92875 -0.5
    endloop
  endfacet
  facet normal 0.281733 0.959493 0
    outer loop
      vertex -0.996204 -6.92875 0.5
      vertex -0.996204 -6.92875 -0.5
      vertex -2.9079 -6.36742 0.5
    endloop
  endfacet
  facet normal 0.281733 0.959493 0
    outer loop
      vertex -2.9079 -6.36742 0.5
      vertex -0.996204 -6.92875 -0.5
      vertex -2.9079 -6.36742 -0.5
    endloop
  endfacet
  facet normal 0.540641 0.841254 0
    outer loop
      vertex -2.9079 -6.36742 0.5
      vertex -2.9079 -6.36742 -0.5
      vertex -4.58402 -5.29025 0.5
    endloop
  endfacet
  facet normal 0.540641 0.841254 0
    outer loop
      vertex -4.58402 -5.29025 0.5
      vertex -2.9079 -6.36742 -0.5
      vertex -4.58402 -5.29025 -0.5
    endloop
  endfacet
  facet normal 0.755749 0.654861 0
    outer loop
      vertex -5.88877 -3.78449 0.5
      vertex -4.58402 -5.29025 0.5
      vertex -4.58402 -5.29025 -0.5
    endloop
  endfacet
  facet normal 0.755749 0.654861 0
    outer loop
      vertex -5.88877 -3.78449 -0.5
      vertex -5.88877 -3.78449 0.5
      vertex -4.58402 -5.29025 -0.5
    endloop
  endfacet
  facet normal 0.909632 0.415415 0
    outer loop
      vertex -6.71645 -1.97213 0.5
      vertex -5.88877 -3.78449 0.5
      vertex -5.88877 -3.78449 -0.5
    endloop
  endfacet
  facet normal 0.909632 0.415415 0
    outer loop
      vertex -6.71645 -1.97213 -0.5
      vertex -6.71645 -1.97213 0.5
      vertex -5.88877 -3.78449 -0.5
    endloop
  endfacet
  facet normal 0 0 1
    outer loop
      vertex -44.0166 9.35603 0.5
      vertex -45 0 0.5
      vertex -44.0166 -9.35603 0.5
    endloop
  endfacet
  facet normal 0 0 1
    outer loop
      vertex -36.4058 -26.4503 0.5
      vertex -44.0166 9.35603 0.5
      vertex -41.1095 -18.3031 0.5
    endloop
  endfacet
  facet normal 0 0 1
    outer loop
      vertex -41.1095 -18.3031 0.5
      vertex -44.0166 9.35603 0.5
      vertex -44.0166 -9.35603 0.5
    endloop
  endfacet
  facet normal 0 0 1
    outer loop
      vertex -30.1109 -33.4415 0.5
      vertex -44.0166 9.35603 0.5
      vertex -36.4058 -26.4503 0.5
    endloop
  endfacet
  facet normal 0 0 1
    outer loop
      vertex -22.5 -38.9711 0.5
      vertex -44.0166 9.35603 0.5
      vertex -30.1109 -33.4415 0.5
    endloop
  endfacet
  facet normal 0 0 1
    outer loop
      vertex -13.9058 -42.7975 0.5
      vertex -44.0166 9.35603 0.5
      vertex -22.5 -38.9711 0.5
    endloop
  endfacet
  facet normal 0 0 1
    outer loop
      vertex -4.70378 -44.7535 0.5
      vertex -44.0166 9.35603 0.5
      vertex -13.9058 -42.7975 0.5
    endloop
  endfacet
  facet normal 0 0 1
    outer loop
      vertex 4.70378 -44.7535 0.5
      vertex -44.0166 9.35603 0.5
      vertex -4.70378 -44.7535 0.5
    endloop
  endfacet
  facet normal 0 0 1
    outer loop
      vertex 13.9058 -42.7975 0.5
      vertex -44.0166 9.35603 0.5
      vertex 4.70378 -44.7535 0.5
    endloop
  endfacet
  facet normal 0 0 1
    outer loop
      vertex 15 -42.3104 0.5
      vertex -44.0166 9.35603 0.5
      vertex 13.9058 -42.7975 0.5
    endloop
  endfacet
  facet normal 0 0 1
    outer loop
      vertex -5.88877 -3.78449 0.5
      vertex -44.0166 9.35603 0.5
      vertex 15 -42.3104 0.5
    endloop
  endfacet
  facet normal 0 0 1
    outer loop
      vertex -7.76753 34.9145 0.5
      vertex -7.08365 36.7178 0.5
      vertex -44.0166 9.35603 0.5
    endloop
  endfacet
  facet normal 0 0 1
    outer loop
      vertex -13.9058 42.7975 0.5
      vertex -44.0166 9.35603 0.5
      vertex -4.70378 44.7535 0.5
    endloop
  endfacet
  facet normal 0 0 1
    outer loop
      vertex -22.5 38.9711 0.5
      vertex -44.0166 9.35603 0.5
      vertex -13.9058 42.7975 0.5
    endloop
  endfacet
  facet normal 0 0 1
    outer loop
      vertex -30.1109 33.4415 0.5
      vertex -44.0166 9.35603 0.5
      vertex -22.5 38.9711 0.5
    endloop
  endfacet
  facet normal 0 0 1
    outer loop
      vertex -36.4058 26.4503 0.5
      vertex -44.0166 9.35603 0.5
      vertex -30.1109 33.4415 0.5
    endloop
  endfacet
  facet normal 0 0 1
    outer loop
      vertex -41.1095 18.3031 0.5
      vertex -44.0166 9.35603 0.5
      vertex -36.4058 26.4503 0.5
    endloop
  endfacet
  facet normal 0 0 1
    outer loop
      vertex -8 33 0.5
      vertex -44.0166 9.35603 0.5
      vertex -7.76753 31.0855 0.5
    endloop
  endfacet
  facet normal 0 0 1
    outer loop
      vertex -7.76753 34.9145 0.5
      vertex -44.0166 9.35603 0.5
      vertex -8 33 0.5
    endloop
  endfacet
  facet normal 0 0 1
    outer loop
      vertex 0.964293 40.9417 0.5
      vertex 2.83684 40.4801 0.5
      vertex 4.70378 44.7535 0.5
    endloop
  endfacet
  facet normal 0 0 1
    outer loop
      vertex -2.83684 40.4801 0.5
      vertex -0.964293 40.9417 0.5
      vertex 4.70378 44.7535 0.5
    endloop
  endfacet
  facet normal 0 0 1
    outer loop
      vertex -4.70378 44.7535 0.5
      vertex -44.0166 9.35603 0.5
      vertex -7.08365 36.7178 0.5
    endloop
  endfacet
  facet normal 0 0 1
    outer loop
      vertex -4.70378 44.7535 0.5
      vertex -7.08365 36.7178 0.5
      vertex -5.98809 38.305 0.5
    endloop
  endfacet
  facet normal 0 0 1
    outer loop
      vertex -4.70378 44.7535 0.5
      vertex -4.54452 39.5839 0.5
      vertex 4.70378 44.7535 0.5
    endloop
  endfacet
  facet normal 0 0 1
    outer loop
      vertex -4.70378 44.7535 0.5
      vertex -5.98809 38.305 0.5
      vertex -4.54452 39.5839 0.5
    endloop
  endfacet
  facet normal 0 0 1
    outer loop
      vertex -4.54452 39.5839 0.5
      vertex -2.83684 40.4801 0.5
      vertex 4.70378 44.7535 0.5
    endloop
  endfacet
  facet normal 0 0 1
    outer loop
      vertex 4.54452 39.5839 0.5
      vertex 5.98809 38.305 0.5
      vertex 13.9058 42.7975 0.5
    endloop
  endfacet
  facet normal 0 0 1
    outer loop
      vertex 4.70378 44.7535 0.5
      vertex 2.83684 40.4801 0.5
      vertex 13.9058 42.7975 0.5
    endloop
  endfacet
  facet normal 0 0 1
    outer loop
      vertex 2.83684 40.4801 0.5
      vertex 4.54452 39.5839 0.5
      vertex 13.9058 42.7975 0.5
    endloop
  endfacet
  facet normal 0 0 1
    outer loop
      vertex 5.98809 38.305 0.5
      vertex 7.08365 36.7178 0.5
      vertex 15 42.3104 0.5
    endloop
  endfacet
  facet normal 0 0 1
    outer loop
      vertex 0.964293 25.0583 0.5
      vertex -0.964293 25.0583 0.5
      vertex -44.0166 9.35603 0.5
    endloop
  endfacet
  facet normal 0 0 1
    outer loop
      vertex 7.76753 31.0855 0.5
      vertex 7.08365 29.2822 0.5
      vertex 15 -42.3104 0.5
    endloop
  endfacet
  facet normal 0 0 1
    outer loop
      vertex 15 42.3104 0.5
      vertex 7.08365 36.7178 0.5
      vertex 7.76753 34.9145 0.5
    endloop
  endfacet
  facet normal 0 0 1
    outer loop
      vertex 15 42.3104 0.5
      vertex 8 33 0.5
      vertex 15 -42.3104 0.5
    endloop
  endfacet
  facet normal 0 0 1
    outer loop
      vertex 15 42.3104 0.5
      vertex 7.76753 34.9145 0.5
      vertex 8 33 0.5
    endloop
  endfacet
  facet normal 0 0 1
    outer loop
      vertex 7.08365 29.2822 0.5
      vertex 5.98809 27.695 0.5
      vertex 15 -42.3104 0.5
    endloop
  endfacet
  facet normal 0 0 1
    outer loop
      vertex -5.98809 27.695 0.5
      vertex -7.08365 29.2822 0.5
      vertex -44.0166 9.35603 0.5
    endloop
  endfacet
  facet normal 0 0 1
    outer loop
      vertex 5.98809 27.695 0.5
      vertex 4.54452 26.4161 0.5
      vertex 15 -42.3104 0.5
    endloop
  endfacet
  facet normal 0 0 1
    outer loop
      vertex 4.54452 26.4161 0.5
      vertex 2.83684 25.5199 0.5
      vertex 15 -42.3104 0.5
    endloop
  endfacet
  facet normal 0 0 1
    outer loop
      vertex 0.964293 25.0583 0.5
      vertex -44.0166 9.35603 0.5
      vertex 2.83684 25.5199 0.5
    endloop
  endfacet
  facet normal 0 0 1
    outer loop
      vertex 4.58402 -5.29025 0.5
      vertex 2.9079 -6.36742 0.5
      vertex 15 -42.3104 0.5
    endloop
  endfacet
  facet normal 0 0 1
    outer loop
      vertex -4.54452 26.4161 0.5
      vertex -44.0166 9.35603 0.5
      vertex -2.83684 25.5199 0.5
    endloop
  endfacet
  facet normal 0 0 1
    outer loop
      vertex -5.98809 27.695 0.5
      vertex -44.0166 9.35603 0.5
      vertex -4.54452 26.4161 0.5
    endloop
  endfacet
  facet normal 0 0 1
    outer loop
      vertex -5.88877 3.78449 0.5
      vertex -4.58402 5.29025 0.5
      vertex 2.83684 25.5199 0.5
    endloop
  endfacet
  facet normal 0 0 1
    outer loop
      vertex -0.964293 40.9417 0.5
      vertex 0.964293 40.9417 0.5
      vertex 4.70378 44.7535 0.5
    endloop
  endfacet
  facet normal 0 0 1
    outer loop
      vertex -7 0 0.5
      vertex -44.0166 9.35603 0.5
      vertex -6.71645 -1.97213 0.5
    endloop
  endfacet
  facet normal 0 0 1
    outer loop
      vertex -6.71645 1.97213 0.5
      vertex -44.0166 9.35603 0.5
      vertex -7 0 0.5
    endloop
  endfacet
  facet normal 0 0 1
    outer loop
      vertex 2.83684 25.5199 0.5
      vertex -44.0166 9.35603 0.5
      vertex -6.71645 1.97213 0.5
    endloop
  endfacet
  facet normal 0 0 1
    outer loop
      vertex -4.58402 5.29025 0.5
      vertex -2.9079 6.36742 0.5
      vertex 2.83684 25.5199 0.5
    endloop
  endfacet
  facet normal 0 0 1
    outer loop
      vertex 2.83684 25.5199 0.5
      vertex -6.71645 1.97213 0.5
      vertex -5.88877 3.78449 0.5
    endloop
  endfacet
  facet normal 0 0 1
    outer loop
      vertex 7 0 0.5
      vertex 6.71645 -1.97213 0.5
      vertex 15 -42.3104 0.5
    endloop
  endfacet
  facet normal 0 0 1
    outer loop
      vertex -4.58402 -5.29025 0.5
      vertex -5.88877 -3.78449 0.5
      vertex 15 -42.3104 0.5
    endloop
  endfacet
  facet normal 0 0 1
    outer loop
      vertex 2.9079 -6.36742 0.5
      vertex 0.996204 -6.92875 0.5
      vertex 15 -42.3104 0.5
    endloop
  endfacet
  facet normal 0 0 1
    outer loop
      vertex 2.83684 25.5199 0.5
      vertex -2.9079 6.36742 0.5
      vertex -0.996204 6.92875 0.5
    endloop
  endfacet
  facet normal 0 0 1
    outer loop
      vertex 2.83684 25.5199 0.5
      vertex -0.996204 6.92875 0.5
      vertex 0.996204 6.92875 0.5
    endloop
  endfacet
  facet normal 0 0 1
    outer loop
      vertex 2.83684 25.5199 0.5
      vertex 0.996204 6.92875 0.5
      vertex 2.9079 6.36742 0.5
    endloop
  endfacet
  facet normal 0 0 1
    outer loop
      vertex 5.88877 -3.78449 0.5
      vertex 4.58402 -5.29025 0.5
      vertex 15 -42.3104 0.5
    endloop
  endfacet
  facet normal 0 0 1
    outer loop
      vertex 2.83684 25.5199 0.5
      vertex 2.9079 6.36742 0.5
      vertex 4.58402 5.29025 0.5
    endloop
  endfacet
  facet normal 0 0 1
    outer loop
      vertex 6.71645 -1.97213 0.5
      vertex 5.88877 -3.78449 0.5
      vertex 15 -42.3104 0.5
    endloop
  endfacet
  facet normal 0 0 1
    outer loop
      vertex 2.83684 25.5199 0.5
      vertex 4.58402 5.29025 0.5
      vertex 5.88877 3.78449 0.5
    endloop
  endfacet
  facet normal 0 0 1
    outer loop
      vertex 2.83684 25.5199 0.5
      vertex 6.71645 1.97213 0.5
      vertex 15 -42.3104 0.5
    endloop
  endfacet
  facet normal 0 0 1
    outer loop
      vertex 2.83684 25.5199 0.5
      vertex 5.88877 3.78449 0.5
      vertex 6.71645 1.97213 0.5
    endloop
  endfacet
  facet normal 0 0 1
    outer loop
      vertex 6.71645 1.97213 0.5
      vertex 7 0 0.5
      vertex 15 -42.3104 0.5
    endloop
  endfacet
  facet normal 0 0 1
    outer loop
      vertex 0.996204 -6.92875 0.5
      vertex -0.996204 -6.92875 0.5
      vertex 15 -42.3104 0.5
    endloop
  endfacet
  facet normal 0 0 1
    outer loop
      vertex -0.996204 -6.92875 0.5
      vertex -2.9079 -6.36742 0.5
      vertex 15 -42.3104 0.5
    endloop
  endfacet
  facet normal 0 0 1
    outer loop
      vertex -2.9079 -6.36742 0.5
      vertex -4.58402 -5.29025 0.5
      vertex 15 -42.3104 0.5
    endloop
  endfacet
  facet normal 0 0 1
    outer loop
      vertex -6.71645 -1.97213 0.5
      vertex -44.0166 9.35603 0.5
      vertex -5.88877 -3.78449 0.5
    endloop
  endfacet
  facet normal 0 0 1
    outer loop
      vertex 5.98809 38.305 0.5
      vertex 15 42.3104 0.5
      vertex 13.9058 42.7975 0.5
    endloop
  endfacet
  facet normal 0 0 1
    outer loop
      vertex -0.964293 25.0583 0.5
      vertex -2.83684 25.5199 0.5
      vertex -44.0166 9.35603 0.5
    endloop
  endfacet
  facet normal 0 0 1
    outer loop
      vertex 8 33 0.5
      vertex 7.76753 31.0855 0.5
      vertex 15 -42.3104 0.5
    endloop
  endfacet
  facet normal 0 0 1
    outer loop
      vertex -7.08365 29.2822 0.5
      vertex -7.76753 31.0855 0.5
      vertex -44.0166 9.35603 0.5
    endloop
  endfacet
endsolid OpenSCAD_Model
