solid OpenSCAD_Model
  facet normal 0 -0.707107 0.707107
    outer loop
      vertex 34.5479 -30 8
      vertex 53 -29 9
      vertex 35.4483 -29 9
    endloop
  endfacet
  facet normal 0 -0.707107 0.707107
    outer loop
      vertex 53 -29 9
      vertex 34.5479 -30 8
      vertex 54 -30 8
    endloop
  endfacet
  facet normal 0.707107 -0 0.707107
    outer loop
      vertex 53 -29 9
      vertex 54 30 8
      vertex 53 29 9
    endloop
  endfacet
  facet normal 0.707107 0 0.707107
    outer loop
      vertex 54 30 8
      vertex 53 -29 9
      vertex 54 -30 8
    endloop
  endfacet
  facet normal 0 -1 0
    outer loop
      vertex 34.5479 -30 -0.5
      vertex 54 -30 8
      vertex 34.5479 -30 8
    endloop
  endfacet
  facet normal 0 -1 -0
    outer loop
      vertex 54 -30 8
      vertex 34.5479 -30 -0.5
      vertex 54 -30 -0.5
    endloop
  endfacet
  facet normal -0 0.707107 0.707107
    outer loop
      vertex 34.5479 30 8
      vertex 53 29 9
      vertex 54 30 8
    endloop
  endfacet
  facet normal 0 0.707107 0.707107
    outer loop
      vertex 53 29 9
      vertex 34.5479 30 8
      vertex 35.4483 29 9
    endloop
  endfacet
  facet normal 1 -0 0
    outer loop
      vertex 54 -30 8
      vertex 54 30 -0.5
      vertex 54 30 8
    endloop
  endfacet
  facet normal 1 0 0
    outer loop
      vertex 54 30 -0.5
      vertex 54 -30 8
      vertex 54 -30 -0.5
    endloop
  endfacet
  facet normal 0 1 -0
    outer loop
      vertex 54 30 -0.5
      vertex 34.5479 30 8
      vertex 54 30 8
    endloop
  endfacet
  facet normal 0 1 0
    outer loop
      vertex 34.5479 30 8
      vertex 54 30 -0.5
      vertex 34.5479 30 -0.5
    endloop
  endfacet
  facet normal 0 0 -1
    outer loop
      vertex 54 -30 -0.5
      vertex 46 0 -0.5
      vertex 54 30 -0.5
    endloop
  endfacet
  facet normal 0 0 -1
    outer loop
      vertex 54 -30 -0.5
      vertex 44.9948 -9.56394 -0.5
      vertex 46 0 -0.5
    endloop
  endfacet
  facet normal 0 0 -1
    outer loop
      vertex 54 -30 -0.5
      vertex 42.0231 -18.7099 -0.5
      vertex 44.9948 -9.56394 -0.5
    endloop
  endfacet
  facet normal 0 0 -1
    outer loop
      vertex 54 -30 -0.5
      vertex 37.2148 -27.0381 -0.5
      vertex 42.0231 -18.7099 -0.5
    endloop
  endfacet
  facet normal 0 -0 -1
    outer loop
      vertex 37.2148 -27.0381 -0.5
      vertex 54 -30 -0.5
      vertex 34.5479 -30 -0.5
    endloop
  endfacet
  facet normal 0 0 -1
    outer loop
      vertex 44.9948 9.56394 -0.5
      vertex 54 30 -0.5
      vertex 46 0 -0.5
    endloop
  endfacet
  facet normal 0 0 -1
    outer loop
      vertex 42.0231 18.7099 -0.5
      vertex 54 30 -0.5
      vertex 44.9948 9.56394 -0.5
    endloop
  endfacet
  facet normal 0 0 -1
    outer loop
      vertex 37.2148 27.0381 -0.5
      vertex 54 30 -0.5
      vertex 42.0231 18.7099 -0.5
    endloop
  endfacet
  facet normal -0 0 -1
    outer loop
      vertex 54 30 -0.5
      vertex 37.2148 27.0381 -0.5
      vertex 34.5479 30 -0.5
    endloop
  endfacet
  facet normal 0 0 1
    outer loop
      vertex 53 29 9
      vertex 46 0 9
      vertex 53 -29 9
    endloop
  endfacet
  facet normal 0 0 1
    outer loop
      vertex 53 29 9
      vertex 44.9948 9.56394 9
      vertex 46 0 9
    endloop
  endfacet
  facet normal 0 0 1
    outer loop
      vertex 53 29 9
      vertex 42.0231 18.7099 9
      vertex 44.9948 9.56394 9
    endloop
  endfacet
  facet normal 0 0 1
    outer loop
      vertex 53 29 9
      vertex 37.2148 27.0381 9
      vertex 42.0231 18.7099 9
    endloop
  endfacet
  facet normal 0 -0 1
    outer loop
      vertex 37.2148 27.0381 9
      vertex 53 29 9
      vertex 35.4483 29 9
    endloop
  endfacet
  facet normal -0 0 1
    outer loop
      vertex 44.9948 -9.56394 9
      vertex 53 -29 9
      vertex 46 0 9
    endloop
  endfacet
  facet normal -0 0 1
    outer loop
      vertex 42.0231 -18.7099 9
      vertex 53 -29 9
      vertex 44.9948 -9.56394 9
    endloop
  endfacet
  facet normal -0 0 1
    outer loop
      vertex 37.2148 -27.0381 9
      vertex 53 -29 9
      vertex 42.0231 -18.7099 9
    endloop
  endfacet
  facet normal 0 0 1
    outer loop
      vertex 53 -29 9
      vertex 37.2148 -27.0381 9
      vertex 35.4483 -29 9
    endloop
  endfacet
  facet normal -0.994522 -0.104529 0
    outer loop
      vertex 46 0 -0.5
      vertex 44.9948 9.56394 9
      vertex 44.9948 9.56394 -0.5
    endloop
  endfacet
  facet normal -0.994522 -0.104529 0
    outer loop
      vertex 44.9948 9.56394 9
      vertex 46 0 -0.5
      vertex 46 0 9
    endloop
  endfacet
  facet normal -0.743145 -0.669131 0
    outer loop
      vertex 37.2148 27.0381 -0.5
      vertex 34.5479 30 8
      vertex 34.5479 30 -0.5
    endloop
  endfacet
  facet normal -0.743145 -0.669131 -0
    outer loop
      vertex 37.2148 27.0381 9
      vertex 34.5479 30 8
      vertex 37.2148 27.0381 -0.5
    endloop
  endfacet
  facet normal -0.743144 -0.669131 -2.48229e-06
    outer loop
      vertex 34.5479 30 8
      vertex 37.2148 27.0381 9
      vertex 35.4483 29 9
    endloop
  endfacet
  facet normal -0.951057 -0.309017 0
    outer loop
      vertex 44.9948 9.56394 -0.5
      vertex 42.0231 18.7099 9
      vertex 42.0231 18.7099 -0.5
    endloop
  endfacet
  facet normal -0.951057 -0.309017 0
    outer loop
      vertex 42.0231 18.7099 9
      vertex 44.9948 9.56394 -0.5
      vertex 44.9948 9.56394 9
    endloop
  endfacet
  facet normal -0.951057 0.309017 0
    outer loop
      vertex 42.0231 -18.7099 -0.5
      vertex 44.9948 -9.56394 9
      vertex 44.9948 -9.56394 -0.5
    endloop
  endfacet
  facet normal -0.951057 0.309017 0
    outer loop
      vertex 44.9948 -9.56394 9
      vertex 42.0231 -18.7099 -0.5
      vertex 42.0231 -18.7099 9
    endloop
  endfacet
  facet normal -0.866025 -0.5 0
    outer loop
      vertex 42.0231 18.7099 -0.5
      vertex 37.2148 27.0381 9
      vertex 37.2148 27.0381 -0.5
    endloop
  endfacet
  facet normal -0.866025 -0.5 0
    outer loop
      vertex 37.2148 27.0381 9
      vertex 42.0231 18.7099 -0.5
      vertex 42.0231 18.7099 9
    endloop
  endfacet
  facet normal -0.994522 0.104529 0
    outer loop
      vertex 44.9948 -9.56394 -0.5
      vertex 46 0 9
      vertex 46 0 -0.5
    endloop
  endfacet
  facet normal -0.994522 0.104529 0
    outer loop
      vertex 46 0 9
      vertex 44.9948 -9.56394 -0.5
      vertex 44.9948 -9.56394 9
    endloop
  endfacet
  facet normal -0.866025 0.5 0
    outer loop
      vertex 37.2148 -27.0381 -0.5
      vertex 42.0231 -18.7099 9
      vertex 42.0231 -18.7099 -0.5
    endloop
  endfacet
  facet normal -0.866025 0.5 0
    outer loop
      vertex 42.0231 -18.7099 9
      vertex 37.2148 -27.0381 -0.5
      vertex 37.2148 -27.0381 9
    endloop
  endfacet
  facet normal -0.743145 0.669131 0
    outer loop
      vertex 34.5479 -30 8
      vertex 37.2148 -27.0381 9
      vertex 37.2148 -27.0381 -0.5
    endloop
  endfacet
  facet normal -0.743145 0.669131 0
    outer loop
      vertex 34.5479 -30 8
      vertex 37.2148 -27.0381 -0.5
      vertex 34.5479 -30 -0.5
    endloop
  endfacet
  facet normal -0.743144 0.669131 -2.48229e-06
    outer loop
      vertex 37.2148 -27.0381 9
      vertex 34.5479 -30 8
      vertex 35.4483 -29 9
    endloop
  endfacet
endsolid OpenSCAD_Model
