solid OpenSCAD_Model
  facet normal 0.994138 0.108119 0
    outer loop
      vertex 9 0 64
      vertex 8.78958 1.93473 3
      vertex 8.78958 1.93473 64
    endloop
  endfacet
  facet normal 0.994138 0.108119 0
    outer loop
      vertex 8.78958 1.93473 3
      vertex 9 0 64
      vertex 9 0 3
    endloop
  endfacet
  facet normal -0.976621 0.21497 0
    outer loop
      vertex -8.94724 0.973071 3
      vertex -8.52888 2.87371 64
      vertex -8.52888 2.87371 3
    endloop
  endfacet
  facet normal -0.976621 0.21497 0
    outer loop
      vertex -8.52888 2.87371 64
      vertex -8.94724 0.973071 3
      vertex -8.94724 0.973071 64
    endloop
  endfacet
  facet normal 0.856857 0.515554 0
    outer loop
      vertex 8.16818 3.779 64
      vertex 7.16484 5.44657 3
      vertex 7.16484 5.44657 64
    endloop
  endfacet
  facet normal 0.856857 0.515554 0
    outer loop
      vertex 7.16484 5.44657 3
      vertex 8.16818 3.779 64
      vertex 8.16818 3.779 3
    endloop
  endfacet
  facet normal 0.947653 0.319301 0
    outer loop
      vertex 8.78958 1.93473 64
      vertex 8.16818 3.779 3
      vertex 8.16818 3.779 64
    endloop
  endfacet
  facet normal 0.947653 0.319301 0
    outer loop
      vertex 8.16818 3.779 3
      vertex 8.78958 1.93473 64
      vertex 8.78958 1.93473 3
    endloop
  endfacet
  facet normal 0.161782 0.986827 -0
    outer loop
      vertex 2.40775 8.67195 3
      vertex 0.487249 8.9868 64
      vertex 2.40775 8.67195 64
    endloop
  endfacet
  facet normal 0.161782 0.986827 0
    outer loop
      vertex 0.487249 8.9868 64
      vertex 2.40775 8.67195 3
      vertex 0.487249 8.9868 3
    endloop
  endfacet
  facet normal 0.370138 0.928977 -0
    outer loop
      vertex 4.21568 7.95161 3
      vertex 2.40775 8.67195 64
      vertex 4.21568 7.95161 64
    endloop
  endfacet
  facet normal 0.370138 0.928977 0
    outer loop
      vertex 2.40775 8.67195 64
      vertex 4.21568 7.95161 3
      vertex 2.40775 8.67195 3
    endloop
  endfacet
  facet normal -0.267528 0.96355 0
    outer loop
      vertex -1.45604 8.88144 3
      vertex -3.33124 8.36079 64
      vertex -1.45604 8.88144 64
    endloop
  endfacet
  facet normal -0.267528 0.96355 0
    outer loop
      vertex -3.33124 8.36079 64
      vertex -1.45604 8.88144 3
      vertex -3.33124 8.36079 3
    endloop
  endfacet
  facet normal -0.907575 0.419889 0
    outer loop
      vertex -8.52888 2.87371 3
      vertex -7.71171 4.63998 64
      vertex -7.71171 4.63998 3
    endloop
  endfacet
  facet normal -0.907575 0.419889 0
    outer loop
      vertex -7.71171 4.63998 64
      vertex -8.52888 2.87371 3
      vertex -8.52888 2.87371 64
    endloop
  endfacet
  facet normal 0.370138 -0.928977 0
    outer loop
      vertex 2.40775 -8.67195 3
      vertex 4.21568 -7.95161 64
      vertex 2.40775 -8.67195 64
    endloop
  endfacet
  facet normal 0.370138 -0.928977 0
    outer loop
      vertex 4.21568 -7.95161 64
      vertex 2.40775 -8.67195 3
      vertex 4.21568 -7.95161 3
    endloop
  endfacet
  facet normal 0.725996 0.687699 0
    outer loop
      vertex 7.16484 5.44657 64
      vertex 5.82648 6.85946 3
      vertex 5.82648 6.85946 64
    endloop
  endfacet
  facet normal 0.725996 0.687699 0
    outer loop
      vertex 5.82648 6.85946 3
      vertex 7.16484 5.44657 64
      vertex 7.16484 5.44657 3
    endloop
  endfacet
  facet normal -0.0541389 0.998533 0
    outer loop
      vertex 0.487249 8.9868 3
      vertex -1.45604 8.88144 64
      vertex 0.487249 8.9868 64
    endloop
  endfacet
  facet normal -0.0541389 0.998533 0
    outer loop
      vertex -1.45604 8.88144 64
      vertex 0.487249 8.9868 3
      vertex -1.45604 8.88144 3
    endloop
  endfacet
  facet normal 0.561187 0.827689 -0
    outer loop
      vertex 5.82648 6.85946 3
      vertex 4.21568 7.95161 64
      vertex 5.82648 6.85946 64
    endloop
  endfacet
  facet normal 0.561187 0.827689 0
    outer loop
      vertex 4.21568 7.95161 64
      vertex 5.82648 6.85946 3
      vertex 4.21568 7.95161 3
    endloop
  endfacet
  facet normal -1 0 0
    outer loop
      vertex -8.94724 -0.973071 3
      vertex -8.94724 0.973071 64
      vertex -8.94724 0.973071 3
    endloop
  endfacet
  facet normal -1 -0 0
    outer loop
      vertex -8.94724 0.973071 64
      vertex -8.94724 -0.973071 3
      vertex -8.94724 -0.973071 64
    endloop
  endfacet
  facet normal -0.796093 0.605174 0
    outer loop
      vertex -7.71171 4.63998 3
      vertex -6.53396 6.18929 64
      vertex -6.53396 6.18929 3
    endloop
  endfacet
  facet normal -0.796093 0.605174 0
    outer loop
      vertex -6.53396 6.18929 64
      vertex -7.71171 4.63998 3
      vertex -7.71171 4.63998 64
    endloop
  endfacet
  facet normal -0.468408 0.883512 0
    outer loop
      vertex -3.33124 8.36079 3
      vertex -5.05068 7.4492 64
      vertex -3.33124 8.36079 64
    endloop
  endfacet
  facet normal -0.468408 0.883512 0
    outer loop
      vertex -5.05068 7.4492 64
      vertex -3.33124 8.36079 3
      vertex -5.05068 7.4492 3
    endloop
  endfacet
  facet normal -0.647386 0.762162 0
    outer loop
      vertex -5.05068 7.4492 3
      vertex -6.53396 6.18929 64
      vertex -5.05068 7.4492 64
    endloop
  endfacet
  facet normal -0.647386 0.762162 0
    outer loop
      vertex -6.53396 6.18929 64
      vertex -5.05068 7.4492 3
      vertex -6.53396 6.18929 3
    endloop
  endfacet
  facet normal 0.947653 -0.319301 0
    outer loop
      vertex 8.16818 -3.779 64
      vertex 8.78958 -1.93473 3
      vertex 8.78958 -1.93473 64
    endloop
  endfacet
  facet normal 0.947653 -0.319301 0
    outer loop
      vertex 8.78958 -1.93473 3
      vertex 8.16818 -3.779 64
      vertex 8.16818 -3.779 3
    endloop
  endfacet
  facet normal -0.976621 -0.21497 0
    outer loop
      vertex -8.52888 -2.87371 3
      vertex -8.94724 -0.973071 64
      vertex -8.94724 -0.973071 3
    endloop
  endfacet
  facet normal -0.976621 -0.21497 0
    outer loop
      vertex -8.94724 -0.973071 64
      vertex -8.52888 -2.87371 3
      vertex -8.52888 -2.87371 64
    endloop
  endfacet
  facet normal 0.725996 -0.687699 0
    outer loop
      vertex 5.82648 -6.85946 64
      vertex 7.16484 -5.44657 3
      vertex 7.16484 -5.44657 64
    endloop
  endfacet
  facet normal 0.725996 -0.687699 0
    outer loop
      vertex 7.16484 -5.44657 3
      vertex 5.82648 -6.85946 64
      vertex 5.82648 -6.85946 3
    endloop
  endfacet
  facet normal 0.994138 -0.108119 0
    outer loop
      vertex 8.78958 -1.93473 64
      vertex 9 0 3
      vertex 9 0 64
    endloop
  endfacet
  facet normal 0.994138 -0.108119 0
    outer loop
      vertex 9 0 3
      vertex 8.78958 -1.93473 64
      vertex 8.78958 -1.93473 3
    endloop
  endfacet
  facet normal 0 0 1
    outer loop
      vertex 8 0 64
      vertex 9 0 64
      vertex 8.78958 1.93473 64
    endloop
  endfacet
  facet normal 0 0 1
    outer loop
      vertex 7.76753 1.91453 64
      vertex 8.78958 1.93473 64
      vertex 8.16818 3.779 64
    endloop
  endfacet
  facet normal 0 0 1
    outer loop
      vertex 9 0 64
      vertex 8 0 64
      vertex 8.78958 -1.93473 64
    endloop
  endfacet
  facet normal -0 0 1
    outer loop
      vertex 7.76753 -1.91453 64
      vertex 8.78958 -1.93473 64
      vertex 8 0 64
    endloop
  endfacet
  facet normal 0 0 1
    outer loop
      vertex 8.78958 1.93473 64
      vertex 7.76753 1.91453 64
      vertex 8 0 64
    endloop
  endfacet
  facet normal 0 0 1
    outer loop
      vertex 7.08365 3.71778 64
      vertex 8.16818 3.779 64
      vertex 7.16484 5.44657 64
    endloop
  endfacet
  facet normal 0 0 1
    outer loop
      vertex 8.16818 3.779 64
      vertex 7.08365 3.71778 64
      vertex 7.76753 1.91453 64
    endloop
  endfacet
  facet normal 0 0 1
    outer loop
      vertex 7.16484 5.44657 64
      vertex 5.98809 5.30498 64
      vertex 7.08365 3.71778 64
    endloop
  endfacet
  facet normal 0 0 1
    outer loop
      vertex 5.82648 6.85946 64
      vertex 5.98809 5.30498 64
      vertex 7.16484 5.44657 64
    endloop
  endfacet
  facet normal 0 0 1
    outer loop
      vertex 5.82648 6.85946 64
      vertex 4.54452 6.58387 64
      vertex 5.98809 5.30498 64
    endloop
  endfacet
  facet normal 0 0 1
    outer loop
      vertex 4.21568 7.95161 64
      vertex 4.54452 6.58387 64
      vertex 5.82648 6.85946 64
    endloop
  endfacet
  facet normal 0 0 1
    outer loop
      vertex 4.21568 7.95161 64
      vertex 2.83684 7.48013 64
      vertex 4.54452 6.58387 64
    endloop
  endfacet
  facet normal 0 0 1
    outer loop
      vertex 2.40775 8.67195 64
      vertex 2.83684 7.48013 64
      vertex 4.21568 7.95161 64
    endloop
  endfacet
  facet normal 0 0 1
    outer loop
      vertex 2.40775 8.67195 64
      vertex 0.964293 7.94167 64
      vertex 2.83684 7.48013 64
    endloop
  endfacet
  facet normal 0 0 1
    outer loop
      vertex 0.487249 8.9868 64
      vertex 0.964293 7.94167 64
      vertex 2.40775 8.67195 64
    endloop
  endfacet
  facet normal 0 0 1
    outer loop
      vertex 0.487249 8.9868 64
      vertex -0.964293 7.94167 64
      vertex 0.964293 7.94167 64
    endloop
  endfacet
  facet normal -0 0 1
    outer loop
      vertex -1.45604 8.88144 64
      vertex -0.964293 7.94167 64
      vertex 0.487249 8.9868 64
    endloop
  endfacet
  facet normal 0 0 1
    outer loop
      vertex -1.45604 8.88144 64
      vertex -2.83684 7.48013 64
      vertex -0.964293 7.94167 64
    endloop
  endfacet
  facet normal -0 0 1
    outer loop
      vertex -3.33124 8.36079 64
      vertex -2.83684 7.48013 64
      vertex -1.45604 8.88144 64
    endloop
  endfacet
  facet normal 0 0 1
    outer loop
      vertex -3.33124 8.36079 64
      vertex -4.54452 6.58387 64
      vertex -2.83684 7.48013 64
    endloop
  endfacet
  facet normal -0 0 1
    outer loop
      vertex -5.05068 7.4492 64
      vertex -4.54452 6.58387 64
      vertex -3.33124 8.36079 64
    endloop
  endfacet
  facet normal 0 0 1
    outer loop
      vertex -6.53396 6.18929 64
      vertex -4.54452 6.58387 64
      vertex -5.05068 7.4492 64
    endloop
  endfacet
  facet normal 0 0 1
    outer loop
      vertex -4.54452 6.58387 64
      vertex -6.53396 6.18929 64
      vertex -5.98809 5.30498 64
    endloop
  endfacet
  facet normal 0 0 1
    outer loop
      vertex -7.71171 4.63998 64
      vertex -5.98809 5.30498 64
      vertex -6.53396 6.18929 64
    endloop
  endfacet
  facet normal 0 0 1
    outer loop
      vertex -5.98809 5.30498 64
      vertex -7.71171 4.63998 64
      vertex -7.08365 3.71778 64
    endloop
  endfacet
  facet normal 0 0 1
    outer loop
      vertex -8.52888 2.87371 64
      vertex -7.08365 3.71778 64
      vertex -7.71171 4.63998 64
    endloop
  endfacet
  facet normal 0 0 1
    outer loop
      vertex -7.08365 3.71778 64
      vertex -8.52888 2.87371 64
      vertex -7.76753 1.91453 64
    endloop
  endfacet
  facet normal 0 0 1
    outer loop
      vertex -8.94724 0.973071 64
      vertex -7.76753 1.91453 64
      vertex -8.52888 2.87371 64
    endloop
  endfacet
  facet normal 0 0 1
    outer loop
      vertex 8.78958 -1.93473 64
      vertex 7.76753 -1.91453 64
      vertex 8.16818 -3.779 64
    endloop
  endfacet
  facet normal -0 0 1
    outer loop
      vertex 7.08365 -3.71778 64
      vertex 8.16818 -3.779 64
      vertex 7.76753 -1.91453 64
    endloop
  endfacet
  facet normal 0 0 1
    outer loop
      vertex 8.16818 -3.779 64
      vertex 7.08365 -3.71778 64
      vertex 7.16484 -5.44657 64
    endloop
  endfacet
  facet normal -0 0 1
    outer loop
      vertex 5.98809 -5.30498 64
      vertex 7.16484 -5.44657 64
      vertex 7.08365 -3.71778 64
    endloop
  endfacet
  facet normal 0 0 1
    outer loop
      vertex 5.98809 -5.30498 64
      vertex 5.82648 -6.85946 64
      vertex 7.16484 -5.44657 64
    endloop
  endfacet
  facet normal -0 0 1
    outer loop
      vertex 4.54452 -6.58387 64
      vertex 5.82648 -6.85946 64
      vertex 5.98809 -5.30498 64
    endloop
  endfacet
  facet normal 0 0 1
    outer loop
      vertex 4.54452 -6.58387 64
      vertex 4.21568 -7.95161 64
      vertex 5.82648 -6.85946 64
    endloop
  endfacet
  facet normal -0 0 1
    outer loop
      vertex 2.83684 -7.48013 64
      vertex 4.21568 -7.95161 64
      vertex 4.54452 -6.58387 64
    endloop
  endfacet
  facet normal 0 0 1
    outer loop
      vertex 2.83684 -7.48013 64
      vertex 2.40775 -8.67195 64
      vertex 4.21568 -7.95161 64
    endloop
  endfacet
  facet normal -0 0 1
    outer loop
      vertex 0.964293 -7.94167 64
      vertex 2.40775 -8.67195 64
      vertex 2.83684 -7.48013 64
    endloop
  endfacet
  facet normal 0 0 1
    outer loop
      vertex 0.964293 -7.94167 64
      vertex 0.487249 -8.9868 64
      vertex 2.40775 -8.67195 64
    endloop
  endfacet
  facet normal -0 0 1
    outer loop
      vertex -0.964293 -7.94167 64
      vertex 0.487249 -8.9868 64
      vertex 0.964293 -7.94167 64
    endloop
  endfacet
  facet normal 0 0 1
    outer loop
      vertex -0.964293 -7.94167 64
      vertex -1.45604 -8.88144 64
      vertex 0.487249 -8.9868 64
    endloop
  endfacet
  facet normal 0 0 1
    outer loop
      vertex -2.83684 -7.48013 64
      vertex -1.45604 -8.88144 64
      vertex -0.964293 -7.94167 64
    endloop
  endfacet
  facet normal 0 0 1
    outer loop
      vertex -2.83684 -7.48013 64
      vertex -3.33124 -8.36079 64
      vertex -1.45604 -8.88144 64
    endloop
  endfacet
  facet normal 0 0 1
    outer loop
      vertex -4.54452 -6.58387 64
      vertex -3.33124 -8.36079 64
      vertex -2.83684 -7.48013 64
    endloop
  endfacet
  facet normal 0 0 1
    outer loop
      vertex -4.54452 -6.58387 64
      vertex -5.05068 -7.4492 64
      vertex -3.33124 -8.36079 64
    endloop
  endfacet
  facet normal -0 0 1
    outer loop
      vertex -6.53396 -6.18929 64
      vertex -4.54452 -6.58387 64
      vertex -5.98809 -5.30498 64
    endloop
  endfacet
  facet normal 0 0 1
    outer loop
      vertex -4.54452 -6.58387 64
      vertex -6.53396 -6.18929 64
      vertex -5.05068 -7.4492 64
    endloop
  endfacet
  facet normal -0 0 1
    outer loop
      vertex -7.71171 -4.63998 64
      vertex -5.98809 -5.30498 64
      vertex -7.08365 -3.71778 64
    endloop
  endfacet
  facet normal 0 0 1
    outer loop
      vertex -5.98809 -5.30498 64
      vertex -7.71171 -4.63998 64
      vertex -6.53396 -6.18929 64
    endloop
  endfacet
  facet normal -0 0 1
    outer loop
      vertex -8.52888 -2.87371 64
      vertex -7.08365 -3.71778 64
      vertex -7.76753 -1.91453 64
    endloop
  endfacet
  facet normal -0 0 1
    outer loop
      vertex -8.94724 -0.973071 64
      vertex -7.76753 -1.91453 64
      vertex -8 0 64
    endloop
  endfacet
  facet normal 0 0 1
    outer loop
      vertex -7.76753 1.91453 64
      vertex -8.94724 0.973071 64
      vertex -8 0 64
    endloop
  endfacet
  facet normal 0 0 1
    outer loop
      vertex -7.08365 -3.71778 64
      vertex -8.52888 -2.87371 64
      vertex -7.71171 -4.63998 64
    endloop
  endfacet
  facet normal 0 0 1
    outer loop
      vertex -8.94724 -0.973071 64
      vertex -8 0 64
      vertex -8.94724 0.973071 64
    endloop
  endfacet
  facet normal 0 0 1
    outer loop
      vertex -7.76753 -1.91453 64
      vertex -8.94724 -0.973071 64
      vertex -8.52888 -2.87371 64
    endloop
  endfacet
  facet normal -0.0541389 -0.998533 0
    outer loop
      vertex -1.45604 -8.88144 3
      vertex 0.487249 -8.9868 64
      vertex -1.45604 -8.88144 64
    endloop
  endfacet
  facet normal -0.0541389 -0.998533 -0
    outer loop
      vertex 0.487249 -8.9868 64
      vertex -1.45604 -8.88144 3
      vertex 0.487249 -8.9868 3
    endloop
  endfacet
  facet normal 0.561187 -0.827689 0
    outer loop
      vertex 4.21568 -7.95161 3
      vertex 5.82648 -6.85946 64
      vertex 4.21568 -7.95161 64
    endloop
  endfacet
  facet normal 0.561187 -0.827689 0
    outer loop
      vertex 5.82648 -6.85946 64
      vertex 4.21568 -7.95161 3
      vertex 5.82648 -6.85946 3
    endloop
  endfacet
  facet normal -0.796093 -0.605174 0
    outer loop
      vertex -6.53396 -6.18929 3
      vertex -7.71171 -4.63998 64
      vertex -7.71171 -4.63998 3
    endloop
  endfacet
  facet normal -0.796093 -0.605174 0
    outer loop
      vertex -7.71171 -4.63998 64
      vertex -6.53396 -6.18929 3
      vertex -6.53396 -6.18929 64
    endloop
  endfacet
  facet normal -0.907575 -0.419889 0
    outer loop
      vertex -7.71171 -4.63998 3
      vertex -8.52888 -2.87371 64
      vertex -8.52888 -2.87371 3
    endloop
  endfacet
  facet normal -0.907575 -0.419889 0
    outer loop
      vertex -8.52888 -2.87371 64
      vertex -7.71171 -4.63998 3
      vertex -7.71171 -4.63998 64
    endloop
  endfacet
  facet normal -0.647386 -0.762162 0
    outer loop
      vertex -6.53396 -6.18929 3
      vertex -5.05068 -7.4492 64
      vertex -6.53396 -6.18929 64
    endloop
  endfacet
  facet normal -0.647386 -0.762162 -0
    outer loop
      vertex -5.05068 -7.4492 64
      vertex -6.53396 -6.18929 3
      vertex -5.05068 -7.4492 3
    endloop
  endfacet
  facet normal 0.161782 -0.986827 0
    outer loop
      vertex 0.487249 -8.9868 3
      vertex 2.40775 -8.67195 64
      vertex 0.487249 -8.9868 64
    endloop
  endfacet
  facet normal 0.161782 -0.986827 0
    outer loop
      vertex 2.40775 -8.67195 64
      vertex 0.487249 -8.9868 3
      vertex 2.40775 -8.67195 3
    endloop
  endfacet
  facet normal -0.468408 -0.883512 0
    outer loop
      vertex -5.05068 -7.4492 3
      vertex -3.33124 -8.36079 64
      vertex -5.05068 -7.4492 64
    endloop
  endfacet
  facet normal -0.468408 -0.883512 -0
    outer loop
      vertex -3.33124 -8.36079 64
      vertex -5.05068 -7.4492 3
      vertex -3.33124 -8.36079 3
    endloop
  endfacet
  facet normal -0.267528 -0.96355 0
    outer loop
      vertex -3.33124 -8.36079 3
      vertex -1.45604 -8.88144 64
      vertex -3.33124 -8.36079 64
    endloop
  endfacet
  facet normal -0.267528 -0.96355 -0
    outer loop
      vertex -1.45604 -8.88144 64
      vertex -3.33124 -8.36079 3
      vertex -1.45604 -8.88144 3
    endloop
  endfacet
  facet normal 0.856857 -0.515554 0
    outer loop
      vertex 7.16484 -5.44657 64
      vertex 8.16818 -3.779 3
      vertex 8.16818 -3.779 64
    endloop
  endfacet
  facet normal 0.856857 -0.515554 0
    outer loop
      vertex 8.16818 -3.779 3
      vertex 7.16484 -5.44657 64
      vertex 7.16484 -5.44657 3
    endloop
  endfacet
  facet normal -0.822984 -0.568065 0
    outer loop
      vertex 7.08365 3.71778 -2
      vertex 5.98809 5.30498 64
      vertex 5.98809 5.30498 -2
    endloop
  endfacet
  facet normal -0.822984 -0.568065 0
    outer loop
      vertex 5.98809 5.30498 64
      vertex 7.08365 3.71778 -2
      vertex 7.08365 3.71778 64
    endloop
  endfacet
  facet normal 0.992709 -0.120537 0
    outer loop
      vertex -8 0 64
      vertex -7.76753 1.91453 -2
      vertex -7.76753 1.91453 64
    endloop
  endfacet
  facet normal 0.992709 -0.120537 0
    outer loop
      vertex -7.76753 1.91453 -2
      vertex -8 0 64
      vertex -8 0 -2
    endloop
  endfacet
  facet normal 0.992709 0.120537 0
    outer loop
      vertex -7.76753 -1.91453 64
      vertex -8 0 -2
      vertex -8 0 64
    endloop
  endfacet
  facet normal 0.992709 0.120537 0
    outer loop
      vertex -8 0 -2
      vertex -7.76753 -1.91453 64
      vertex -7.76753 -1.91453 -2
    endloop
  endfacet
  facet normal 0 -1 0
    outer loop
      vertex -0.964293 7.94167 -2
      vertex 0.964293 7.94167 64
      vertex -0.964293 7.94167 64
    endloop
  endfacet
  facet normal 0 -1 -0
    outer loop
      vertex 0.964293 7.94167 64
      vertex -0.964293 7.94167 -2
      vertex 0.964293 7.94167 -2
    endloop
  endfacet
  facet normal -0.663123 -0.748511 0
    outer loop
      vertex 4.54452 6.58387 -2
      vertex 5.98809 5.30498 64
      vertex 4.54452 6.58387 64
    endloop
  endfacet
  facet normal -0.663123 -0.748511 -0
    outer loop
      vertex 5.98809 5.30498 64
      vertex 4.54452 6.58387 -2
      vertex 5.98809 5.30498 -2
    endloop
  endfacet
  facet normal -0.239316 -0.970942 0
    outer loop
      vertex 0.964293 7.94167 -2
      vertex 2.83684 7.48013 64
      vertex 0.964293 7.94167 64
    endloop
  endfacet
  facet normal -0.239316 -0.970942 -0
    outer loop
      vertex 2.83684 7.48013 64
      vertex 0.964293 7.94167 -2
      vertex 2.83684 7.48013 -2
    endloop
  endfacet
  facet normal 0.464723 -0.885456 0
    outer loop
      vertex -4.54452 6.58387 -2
      vertex -2.83684 7.48013 64
      vertex -4.54452 6.58387 64
    endloop
  endfacet
  facet normal 0.464723 -0.885456 0
    outer loop
      vertex -2.83684 7.48013 64
      vertex -4.54452 6.58387 -2
      vertex -2.83684 7.48013 -2
    endloop
  endfacet
  facet normal 0.935016 -0.354605 0
    outer loop
      vertex -7.76753 1.91453 64
      vertex -7.08365 3.71778 -2
      vertex -7.08365 3.71778 64
    endloop
  endfacet
  facet normal 0.935016 -0.354605 0
    outer loop
      vertex -7.08365 3.71778 -2
      vertex -7.76753 1.91453 64
      vertex -7.76753 1.91453 -2
    endloop
  endfacet
  facet normal 0.663123 -0.748511 0
    outer loop
      vertex -5.98809 5.30498 -2
      vertex -4.54452 6.58387 64
      vertex -5.98809 5.30498 64
    endloop
  endfacet
  facet normal 0.663123 -0.748511 0
    outer loop
      vertex -4.54452 6.58387 64
      vertex -5.98809 5.30498 -2
      vertex -4.54452 6.58387 -2
    endloop
  endfacet
  facet normal -0.992709 0.120537 0
    outer loop
      vertex 7.76753 -1.91453 -2
      vertex 8 0 64
      vertex 8 0 -2
    endloop
  endfacet
  facet normal -0.992709 0.120537 0
    outer loop
      vertex 8 0 64
      vertex 7.76753 -1.91453 -2
      vertex 7.76753 -1.91453 64
    endloop
  endfacet
  facet normal -0.239316 0.970942 0
    outer loop
      vertex 2.83684 -7.48013 -2
      vertex 0.964293 -7.94167 64
      vertex 2.83684 -7.48013 64
    endloop
  endfacet
  facet normal -0.239316 0.970942 0
    outer loop
      vertex 0.964293 -7.94167 64
      vertex 2.83684 -7.48013 -2
      vertex 0.964293 -7.94167 -2
    endloop
  endfacet
  facet normal -0.464723 -0.885456 0
    outer loop
      vertex 2.83684 7.48013 -2
      vertex 4.54452 6.58387 64
      vertex 2.83684 7.48013 64
    endloop
  endfacet
  facet normal -0.464723 -0.885456 -0
    outer loop
      vertex 4.54452 6.58387 64
      vertex 2.83684 7.48013 -2
      vertex 4.54452 6.58387 -2
    endloop
  endfacet
  facet normal 0.822984 -0.568065 0
    outer loop
      vertex -7.08365 3.71778 64
      vertex -5.98809 5.30498 -2
      vertex -5.98809 5.30498 64
    endloop
  endfacet
  facet normal 0.822984 -0.568065 0
    outer loop
      vertex -5.98809 5.30498 -2
      vertex -7.08365 3.71778 64
      vertex -7.08365 3.71778 -2
    endloop
  endfacet
  facet normal 0.239316 -0.970942 0
    outer loop
      vertex -2.83684 7.48013 -2
      vertex -0.964293 7.94167 64
      vertex -2.83684 7.48013 64
    endloop
  endfacet
  facet normal 0.239316 -0.970942 0
    outer loop
      vertex -0.964293 7.94167 64
      vertex -2.83684 7.48013 -2
      vertex -0.964293 7.94167 -2
    endloop
  endfacet
  facet normal -0.992709 -0.120537 0
    outer loop
      vertex 8 0 -2
      vertex 7.76753 1.91453 64
      vertex 7.76753 1.91453 -2
    endloop
  endfacet
  facet normal -0.992709 -0.120537 0
    outer loop
      vertex 7.76753 1.91453 64
      vertex 8 0 -2
      vertex 8 0 64
    endloop
  endfacet
  facet normal 0.663123 0.748511 -0
    outer loop
      vertex -4.54452 -6.58387 -2
      vertex -5.98809 -5.30498 64
      vertex -4.54452 -6.58387 64
    endloop
  endfacet
  facet normal 0.663123 0.748511 0
    outer loop
      vertex -5.98809 -5.30498 64
      vertex -4.54452 -6.58387 -2
      vertex -5.98809 -5.30498 -2
    endloop
  endfacet
  facet normal 0.935016 0.354605 0
    outer loop
      vertex -7.08365 -3.71778 64
      vertex -7.76753 -1.91453 -2
      vertex -7.76753 -1.91453 64
    endloop
  endfacet
  facet normal 0.935016 0.354605 0
    outer loop
      vertex -7.76753 -1.91453 -2
      vertex -7.08365 -3.71778 64
      vertex -7.08365 -3.71778 -2
    endloop
  endfacet
  facet normal -0.663123 0.748511 0
    outer loop
      vertex 5.98809 -5.30498 -2
      vertex 4.54452 -6.58387 64
      vertex 5.98809 -5.30498 64
    endloop
  endfacet
  facet normal -0.663123 0.748511 0
    outer loop
      vertex 4.54452 -6.58387 64
      vertex 5.98809 -5.30498 -2
      vertex 4.54452 -6.58387 -2
    endloop
  endfacet
  facet normal -0.935016 -0.354605 0
    outer loop
      vertex 7.76753 1.91453 -2
      vertex 7.08365 3.71778 64
      vertex 7.08365 3.71778 -2
    endloop
  endfacet
  facet normal -0.935016 -0.354605 0
    outer loop
      vertex 7.08365 3.71778 64
      vertex 7.76753 1.91453 -2
      vertex 7.76753 1.91453 64
    endloop
  endfacet
  facet normal -0.822984 0.568065 0
    outer loop
      vertex 5.98809 -5.30498 -2
      vertex 7.08365 -3.71778 64
      vertex 7.08365 -3.71778 -2
    endloop
  endfacet
  facet normal -0.822984 0.568065 0
    outer loop
      vertex 7.08365 -3.71778 64
      vertex 5.98809 -5.30498 -2
      vertex 5.98809 -5.30498 64
    endloop
  endfacet
  facet normal 0.822984 0.568065 0
    outer loop
      vertex -5.98809 -5.30498 64
      vertex -7.08365 -3.71778 -2
      vertex -7.08365 -3.71778 64
    endloop
  endfacet
  facet normal 0.822984 0.568065 0
    outer loop
      vertex -7.08365 -3.71778 -2
      vertex -5.98809 -5.30498 64
      vertex -5.98809 -5.30498 -2
    endloop
  endfacet
  facet normal -0.464723 0.885456 0
    outer loop
      vertex 4.54452 -6.58387 -2
      vertex 2.83684 -7.48013 64
      vertex 4.54452 -6.58387 64
    endloop
  endfacet
  facet normal -0.464723 0.885456 0
    outer loop
      vertex 2.83684 -7.48013 64
      vertex 4.54452 -6.58387 -2
      vertex 2.83684 -7.48013 -2
    endloop
  endfacet
  facet normal -0.935016 0.354605 0
    outer loop
      vertex 7.08365 -3.71778 -2
      vertex 7.76753 -1.91453 64
      vertex 7.76753 -1.91453 -2
    endloop
  endfacet
  facet normal -0.935016 0.354605 0
    outer loop
      vertex 7.76753 -1.91453 64
      vertex 7.08365 -3.71778 -2
      vertex 7.08365 -3.71778 64
    endloop
  endfacet
  facet normal 0.464723 0.885456 -0
    outer loop
      vertex -2.83684 -7.48013 -2
      vertex -4.54452 -6.58387 64
      vertex -2.83684 -7.48013 64
    endloop
  endfacet
  facet normal 0.464723 0.885456 0
    outer loop
      vertex -4.54452 -6.58387 64
      vertex -2.83684 -7.48013 -2
      vertex -4.54452 -6.58387 -2
    endloop
  endfacet
  facet normal 0 1 -0
    outer loop
      vertex 0.964293 -7.94167 -2
      vertex -0.964293 -7.94167 64
      vertex 0.964293 -7.94167 64
    endloop
  endfacet
  facet normal 0 1 0
    outer loop
      vertex -0.964293 -7.94167 64
      vertex 0.964293 -7.94167 -2
      vertex -0.964293 -7.94167 -2
    endloop
  endfacet
  facet normal 0.239316 0.970942 -0
    outer loop
      vertex -0.964293 -7.94167 -2
      vertex -2.83684 -7.48013 64
      vertex -0.964293 -7.94167 64
    endloop
  endfacet
  facet normal 0.239316 0.970942 0
    outer loop
      vertex -2.83684 -7.48013 64
      vertex -0.964293 -7.94167 -2
      vertex -2.83684 -7.48013 -2
    endloop
  endfacet
  facet normal 0.866026 0.5 0
    outer loop
      vertex 9.13545 4.06737 3
      vertex 8.09017 5.87785 -8
      vertex 8.09017 5.87785 3
    endloop
  endfacet
  facet normal 0.866026 0.5 0
    outer loop
      vertex 8.09017 5.87785 -8
      vertex 9.13545 4.06737 3
      vertex 9.13545 4.06737 -8
    endloop
  endfacet
  facet normal 0.743145 0.669131 0
    outer loop
      vertex 8.09017 5.87785 3
      vertex 6.69131 7.43145 -8
      vertex 6.69131 7.43145 3
    endloop
  endfacet
  facet normal 0.743145 0.669131 0
    outer loop
      vertex 6.69131 7.43145 -8
      vertex 8.09017 5.87785 3
      vertex 8.09017 5.87785 -8
    endloop
  endfacet
  facet normal 0.207911 0.978148 -0
    outer loop
      vertex 3.09017 9.51056 -8
      vertex 1.04528 9.94522 3
      vertex 3.09017 9.51056 3
    endloop
  endfacet
  facet normal 0.207911 0.978148 0
    outer loop
      vertex 1.04528 9.94522 3
      vertex 3.09017 9.51056 -8
      vertex 1.04528 9.94522 -8
    endloop
  endfacet
  facet normal -0.406737 0.913545 0
    outer loop
      vertex -3.09017 9.51056 -8
      vertex -5 8.66025 3
      vertex -3.09017 9.51056 3
    endloop
  endfacet
  facet normal -0.406737 0.913545 0
    outer loop
      vertex -5 8.66025 3
      vertex -3.09017 9.51056 -8
      vertex -5 8.66025 -8
    endloop
  endfacet
  facet normal 0.994522 -0.104529 0
    outer loop
      vertex 9.78148 -2.07912 3
      vertex 10 0 -8
      vertex 10 0 3
    endloop
  endfacet
  facet normal 0.994522 -0.104529 0
    outer loop
      vertex 10 0 -8
      vertex 9.78148 -2.07912 3
      vertex 9.78148 -2.07912 -8
    endloop
  endfacet
  facet normal 0.587785 0.809017 -0
    outer loop
      vertex 6.69131 7.43145 -8
      vertex 5 8.66025 3
      vertex 6.69131 7.43145 3
    endloop
  endfacet
  facet normal 0.587785 0.809017 0
    outer loop
      vertex 5 8.66025 3
      vertex 6.69131 7.43145 -8
      vertex 5 8.66025 -8
    endloop
  endfacet
  facet normal 0 1 -0
    outer loop
      vertex 1.04528 9.94522 -8
      vertex -1.04528 9.94522 3
      vertex 1.04528 9.94522 3
    endloop
  endfacet
  facet normal 0 1 0
    outer loop
      vertex -1.04528 9.94522 3
      vertex 1.04528 9.94522 -8
      vertex -1.04528 9.94522 -8
    endloop
  endfacet
  facet normal 0.406737 0.913545 -0
    outer loop
      vertex 5 8.66025 -8
      vertex 3.09017 9.51056 3
      vertex 5 8.66025 3
    endloop
  endfacet
  facet normal 0.406737 0.913545 0
    outer loop
      vertex 3.09017 9.51056 3
      vertex 5 8.66025 -8
      vertex 3.09017 9.51056 -8
    endloop
  endfacet
  facet normal -0.994522 0.104529 0
    outer loop
      vertex -10 0 -8
      vertex -9.78148 2.07912 3
      vertex -9.78148 2.07912 -8
    endloop
  endfacet
  facet normal -0.994522 0.104529 0
    outer loop
      vertex -9.78148 2.07912 3
      vertex -10 0 -8
      vertex -10 0 3
    endloop
  endfacet
  facet normal -0.866026 0.5 0
    outer loop
      vertex -9.13545 4.06737 -8
      vertex -8.09017 5.87785 3
      vertex -8.09017 5.87785 -8
    endloop
  endfacet
  facet normal -0.866026 0.5 0
    outer loop
      vertex -8.09017 5.87785 3
      vertex -9.13545 4.06737 -8
      vertex -9.13545 4.06737 3
    endloop
  endfacet
  facet normal -0.587785 0.809017 0
    outer loop
      vertex -5 8.66025 -8
      vertex -6.69131 7.43145 3
      vertex -5 8.66025 3
    endloop
  endfacet
  facet normal -0.587785 0.809017 0
    outer loop
      vertex -6.69131 7.43145 3
      vertex -5 8.66025 -8
      vertex -6.69131 7.43145 -8
    endloop
  endfacet
  facet normal -0.207911 0.978148 0
    outer loop
      vertex -1.04528 9.94522 -8
      vertex -3.09017 9.51056 3
      vertex -1.04528 9.94522 3
    endloop
  endfacet
  facet normal -0.207911 0.978148 0
    outer loop
      vertex -3.09017 9.51056 3
      vertex -1.04528 9.94522 -8
      vertex -3.09017 9.51056 -8
    endloop
  endfacet
  facet normal -0.743145 0.669131 0
    outer loop
      vertex -8.09017 5.87785 -8
      vertex -6.69131 7.43145 3
      vertex -6.69131 7.43145 -8
    endloop
  endfacet
  facet normal -0.743145 0.669131 0
    outer loop
      vertex -6.69131 7.43145 3
      vertex -8.09017 5.87785 -8
      vertex -8.09017 5.87785 3
    endloop
  endfacet
  facet normal 0.994522 0.104529 0
    outer loop
      vertex 10 0 3
      vertex 9.78148 2.07912 -8
      vertex 9.78148 2.07912 3
    endloop
  endfacet
  facet normal 0.994522 0.104529 0
    outer loop
      vertex 9.78148 2.07912 -8
      vertex 10 0 3
      vertex 10 0 -8
    endloop
  endfacet
  facet normal -0.866026 -0.5 0
    outer loop
      vertex -8.09017 -5.87785 -8
      vertex -9.13545 -4.06737 3
      vertex -9.13545 -4.06737 -8
    endloop
  endfacet
  facet normal -0.866026 -0.5 0
    outer loop
      vertex -9.13545 -4.06737 3
      vertex -8.09017 -5.87785 -8
      vertex -8.09017 -5.87785 3
    endloop
  endfacet
  facet normal 0.587785 -0.809017 0
    outer loop
      vertex 5 -8.66025 -8
      vertex 6.69131 -7.43145 3
      vertex 5 -8.66025 3
    endloop
  endfacet
  facet normal 0.587785 -0.809017 0
    outer loop
      vertex 6.69131 -7.43145 3
      vertex 5 -8.66025 -8
      vertex 6.69131 -7.43145 -8
    endloop
  endfacet
  facet normal 0.951057 0.309017 0
    outer loop
      vertex 9.78148 2.07912 3
      vertex 9.13545 4.06737 -8
      vertex 9.13545 4.06737 3
    endloop
  endfacet
  facet normal 0.951057 0.309017 0
    outer loop
      vertex 9.13545 4.06737 -8
      vertex 9.78148 2.07912 3
      vertex 9.78148 2.07912 -8
    endloop
  endfacet
  facet normal 0 0 1
    outer loop
      vertex 9 0 3
      vertex 10 0 3
      vertex 9.78148 2.07912 3
    endloop
  endfacet
  facet normal 0 0 1
    outer loop
      vertex 8.78958 1.93473 3
      vertex 9.78148 2.07912 3
      vertex 9.13545 4.06737 3
    endloop
  endfacet
  facet normal 0 0 1
    outer loop
      vertex 10 0 3
      vertex 9 0 3
      vertex 9.78148 -2.07912 3
    endloop
  endfacet
  facet normal -0 0 1
    outer loop
      vertex 8.78958 -1.93473 3
      vertex 9.78148 -2.07912 3
      vertex 9 0 3
    endloop
  endfacet
  facet normal 0 0 1
    outer loop
      vertex 9.78148 2.07912 3
      vertex 8.78958 1.93473 3
      vertex 9 0 3
    endloop
  endfacet
  facet normal 0 0 1
    outer loop
      vertex 9.13545 4.06737 3
      vertex 8.16818 3.779 3
      vertex 8.78958 1.93473 3
    endloop
  endfacet
  facet normal 0 0 1
    outer loop
      vertex 8.09017 5.87785 3
      vertex 8.16818 3.779 3
      vertex 9.13545 4.06737 3
    endloop
  endfacet
  facet normal 0 0 1
    outer loop
      vertex 8.09017 5.87785 3
      vertex 7.16484 5.44657 3
      vertex 8.16818 3.779 3
    endloop
  endfacet
  facet normal 0 0 1
    outer loop
      vertex 6.69131 7.43145 3
      vertex 7.16484 5.44657 3
      vertex 8.09017 5.87785 3
    endloop
  endfacet
  facet normal 0 0 1
    outer loop
      vertex 6.69131 7.43145 3
      vertex 5.82648 6.85946 3
      vertex 7.16484 5.44657 3
    endloop
  endfacet
  facet normal 0 0 1
    outer loop
      vertex 5 8.66025 3
      vertex 5.82648 6.85946 3
      vertex 6.69131 7.43145 3
    endloop
  endfacet
  facet normal 0 0 1
    outer loop
      vertex 5 8.66025 3
      vertex 4.21568 7.95161 3
      vertex 5.82648 6.85946 3
    endloop
  endfacet
  facet normal 0 0 1
    outer loop
      vertex 3.09017 9.51056 3
      vertex 4.21568 7.95161 3
      vertex 5 8.66025 3
    endloop
  endfacet
  facet normal 0 0 1
    outer loop
      vertex 3.09017 9.51056 3
      vertex 2.40775 8.67195 3
      vertex 4.21568 7.95161 3
    endloop
  endfacet
  facet normal 0 0 1
    outer loop
      vertex 1.04528 9.94522 3
      vertex 2.40775 8.67195 3
      vertex 3.09017 9.51056 3
    endloop
  endfacet
  facet normal 0 0 1
    outer loop
      vertex 1.04528 9.94522 3
      vertex 0.487249 8.9868 3
      vertex 2.40775 8.67195 3
    endloop
  endfacet
  facet normal -0 0 1
    outer loop
      vertex -1.04528 9.94522 3
      vertex 0.487249 8.9868 3
      vertex 1.04528 9.94522 3
    endloop
  endfacet
  facet normal 0 0 1
    outer loop
      vertex -1.04528 9.94522 3
      vertex -1.45604 8.88144 3
      vertex 0.487249 8.9868 3
    endloop
  endfacet
  facet normal -0 0 1
    outer loop
      vertex -3.09017 9.51056 3
      vertex -1.45604 8.88144 3
      vertex -1.04528 9.94522 3
    endloop
  endfacet
  facet normal 0 0 1
    outer loop
      vertex -3.09017 9.51056 3
      vertex -3.33124 8.36079 3
      vertex -1.45604 8.88144 3
    endloop
  endfacet
  facet normal -0 0 1
    outer loop
      vertex -5 8.66025 3
      vertex -3.33124 8.36079 3
      vertex -3.09017 9.51056 3
    endloop
  endfacet
  facet normal 0 0 1
    outer loop
      vertex -5 8.66025 3
      vertex -5.05068 7.4492 3
      vertex -3.33124 8.36079 3
    endloop
  endfacet
  facet normal 0 0 1
    outer loop
      vertex -6.69131 7.43145 3
      vertex -5.05068 7.4492 3
      vertex -5 8.66025 3
    endloop
  endfacet
  facet normal 0 0 1
    outer loop
      vertex -5.05068 7.4492 3
      vertex -6.69131 7.43145 3
      vertex -6.53396 6.18929 3
    endloop
  endfacet
  facet normal 0 0 1
    outer loop
      vertex -8.09017 5.87785 3
      vertex -6.53396 6.18929 3
      vertex -6.69131 7.43145 3
    endloop
  endfacet
  facet normal 0 0 1
    outer loop
      vertex -6.53396 6.18929 3
      vertex -8.09017 5.87785 3
      vertex -7.71171 4.63998 3
    endloop
  endfacet
  facet normal 0 0 1
    outer loop
      vertex -9.13545 4.06737 3
      vertex -7.71171 4.63998 3
      vertex -8.09017 5.87785 3
    endloop
  endfacet
  facet normal 0 0 1
    outer loop
      vertex -7.71171 4.63998 3
      vertex -9.13545 4.06737 3
      vertex -8.52888 2.87371 3
    endloop
  endfacet
  facet normal 0 0 1
    outer loop
      vertex -8.52888 2.87371 3
      vertex -9.78148 2.07912 3
      vertex -8.94724 0.973071 3
    endloop
  endfacet
  facet normal 0 0 1
    outer loop
      vertex -9.78148 2.07912 3
      vertex -8.52888 2.87371 3
      vertex -9.13545 4.06737 3
    endloop
  endfacet
  facet normal 0 0 1
    outer loop
      vertex 9.78148 -2.07912 3
      vertex 8.78958 -1.93473 3
      vertex 9.13545 -4.06737 3
    endloop
  endfacet
  facet normal -0 0 1
    outer loop
      vertex 8.16818 -3.779 3
      vertex 9.13545 -4.06737 3
      vertex 8.78958 -1.93473 3
    endloop
  endfacet
  facet normal 0 0 1
    outer loop
      vertex 8.16818 -3.779 3
      vertex 8.09017 -5.87785 3
      vertex 9.13545 -4.06737 3
    endloop
  endfacet
  facet normal -0 0 1
    outer loop
      vertex 7.16484 -5.44657 3
      vertex 8.09017 -5.87785 3
      vertex 8.16818 -3.779 3
    endloop
  endfacet
  facet normal 0 0 1
    outer loop
      vertex 7.16484 -5.44657 3
      vertex 6.69131 -7.43145 3
      vertex 8.09017 -5.87785 3
    endloop
  endfacet
  facet normal -0 0 1
    outer loop
      vertex 5.82648 -6.85946 3
      vertex 6.69131 -7.43145 3
      vertex 7.16484 -5.44657 3
    endloop
  endfacet
  facet normal 0 0 1
    outer loop
      vertex 5.82648 -6.85946 3
      vertex 5 -8.66025 3
      vertex 6.69131 -7.43145 3
    endloop
  endfacet
  facet normal -0 0 1
    outer loop
      vertex 4.21568 -7.95161 3
      vertex 5 -8.66025 3
      vertex 5.82648 -6.85946 3
    endloop
  endfacet
  facet normal 0 0 1
    outer loop
      vertex 4.21568 -7.95161 3
      vertex 3.09017 -9.51056 3
      vertex 5 -8.66025 3
    endloop
  endfacet
  facet normal -0 0 1
    outer loop
      vertex 2.40775 -8.67195 3
      vertex 3.09017 -9.51056 3
      vertex 4.21568 -7.95161 3
    endloop
  endfacet
  facet normal 0 0 1
    outer loop
      vertex 2.40775 -8.67195 3
      vertex 1.04528 -9.94522 3
      vertex 3.09017 -9.51056 3
    endloop
  endfacet
  facet normal -0 0 1
    outer loop
      vertex 0.487249 -8.9868 3
      vertex 1.04528 -9.94522 3
      vertex 2.40775 -8.67195 3
    endloop
  endfacet
  facet normal 0 0 1
    outer loop
      vertex 0.487249 -8.9868 3
      vertex -1.04528 -9.94522 3
      vertex 1.04528 -9.94522 3
    endloop
  endfacet
  facet normal 0 0 1
    outer loop
      vertex -1.45604 -8.88144 3
      vertex -1.04528 -9.94522 3
      vertex 0.487249 -8.9868 3
    endloop
  endfacet
  facet normal 0 0 1
    outer loop
      vertex -1.45604 -8.88144 3
      vertex -3.09017 -9.51056 3
      vertex -1.04528 -9.94522 3
    endloop
  endfacet
  facet normal 0 0 1
    outer loop
      vertex -3.33124 -8.36079 3
      vertex -3.09017 -9.51056 3
      vertex -1.45604 -8.88144 3
    endloop
  endfacet
  facet normal 0 0 1
    outer loop
      vertex -3.33124 -8.36079 3
      vertex -5 -8.66025 3
      vertex -3.09017 -9.51056 3
    endloop
  endfacet
  facet normal 0 0 1
    outer loop
      vertex -5.05068 -7.4492 3
      vertex -5 -8.66025 3
      vertex -3.33124 -8.36079 3
    endloop
  endfacet
  facet normal -0 0 1
    outer loop
      vertex -6.69131 -7.43145 3
      vertex -5.05068 -7.4492 3
      vertex -6.53396 -6.18929 3
    endloop
  endfacet
  facet normal 0 0 1
    outer loop
      vertex -5.05068 -7.4492 3
      vertex -6.69131 -7.43145 3
      vertex -5 -8.66025 3
    endloop
  endfacet
  facet normal -0 0 1
    outer loop
      vertex -8.09017 -5.87785 3
      vertex -6.53396 -6.18929 3
      vertex -7.71171 -4.63998 3
    endloop
  endfacet
  facet normal 0 0 1
    outer loop
      vertex -6.53396 -6.18929 3
      vertex -8.09017 -5.87785 3
      vertex -6.69131 -7.43145 3
    endloop
  endfacet
  facet normal -0 0 1
    outer loop
      vertex -9.13545 -4.06737 3
      vertex -7.71171 -4.63998 3
      vertex -8.52888 -2.87371 3
    endloop
  endfacet
  facet normal -0 0 1
    outer loop
      vertex -9.78148 -2.07912 3
      vertex -8.52888 -2.87371 3
      vertex -8.94724 -0.973071 3
    endloop
  endfacet
  facet normal 0 0 1
    outer loop
      vertex -7.71171 -4.63998 3
      vertex -9.13545 -4.06737 3
      vertex -8.09017 -5.87785 3
    endloop
  endfacet
  facet normal 0 0 1
    outer loop
      vertex -10 0 3
      vertex -8.94724 0.973071 3
      vertex -9.78148 2.07912 3
    endloop
  endfacet
  facet normal 0 0 1
    outer loop
      vertex -8.94724 0.973071 3
      vertex -10 0 3
      vertex -8.94724 -0.973071 3
    endloop
  endfacet
  facet normal 0 0 1
    outer loop
      vertex -8.52888 -2.87371 3
      vertex -9.78148 -2.07912 3
      vertex -9.13545 -4.06737 3
    endloop
  endfacet
  facet normal 0 0 1
    outer loop
      vertex -8.94724 -0.973071 3
      vertex -10 0 3
      vertex -9.78148 -2.07912 3
    endloop
  endfacet
  facet normal -0.951057 0.309017 0
    outer loop
      vertex -9.78148 2.07912 -8
      vertex -9.13545 4.06737 3
      vertex -9.13545 4.06737 -8
    endloop
  endfacet
  facet normal -0.951057 0.309017 0
    outer loop
      vertex -9.13545 4.06737 3
      vertex -9.78148 2.07912 -8
      vertex -9.78148 2.07912 3
    endloop
  endfacet
  facet normal 0.866026 -0.5 0
    outer loop
      vertex 8.09017 -5.87785 3
      vertex 9.13545 -4.06737 -8
      vertex 9.13545 -4.06737 3
    endloop
  endfacet
  facet normal 0.866026 -0.5 0
    outer loop
      vertex 9.13545 -4.06737 -8
      vertex 8.09017 -5.87785 3
      vertex 8.09017 -5.87785 -8
    endloop
  endfacet
  facet normal -0.994522 -0.104529 0
    outer loop
      vertex -9.78148 -2.07912 -8
      vertex -10 0 3
      vertex -10 0 -8
    endloop
  endfacet
  facet normal -0.994522 -0.104529 0
    outer loop
      vertex -10 0 3
      vertex -9.78148 -2.07912 -8
      vertex -9.78148 -2.07912 3
    endloop
  endfacet
  facet normal 0.207911 -0.978148 0
    outer loop
      vertex 1.04528 -9.94522 -8
      vertex 3.09017 -9.51056 3
      vertex 1.04528 -9.94522 3
    endloop
  endfacet
  facet normal 0.207911 -0.978148 0
    outer loop
      vertex 3.09017 -9.51056 3
      vertex 1.04528 -9.94522 -8
      vertex 3.09017 -9.51056 -8
    endloop
  endfacet
  facet normal 0.406737 -0.913545 0
    outer loop
      vertex 3.09017 -9.51056 -8
      vertex 5 -8.66025 3
      vertex 3.09017 -9.51056 3
    endloop
  endfacet
  facet normal 0.406737 -0.913545 0
    outer loop
      vertex 5 -8.66025 3
      vertex 3.09017 -9.51056 -8
      vertex 5 -8.66025 -8
    endloop
  endfacet
  facet normal 0.951057 -0.309017 0
    outer loop
      vertex 9.13545 -4.06737 3
      vertex 9.78148 -2.07912 -8
      vertex 9.78148 -2.07912 3
    endloop
  endfacet
  facet normal 0.951057 -0.309017 0
    outer loop
      vertex 9.78148 -2.07912 -8
      vertex 9.13545 -4.06737 3
      vertex 9.13545 -4.06737 -8
    endloop
  endfacet
  facet normal -0.207911 -0.978148 0
    outer loop
      vertex -3.09017 -9.51056 -8
      vertex -1.04528 -9.94522 3
      vertex -3.09017 -9.51056 3
    endloop
  endfacet
  facet normal -0.207911 -0.978148 -0
    outer loop
      vertex -1.04528 -9.94522 3
      vertex -3.09017 -9.51056 -8
      vertex -1.04528 -9.94522 -8
    endloop
  endfacet
  facet normal 0 -1 0
    outer loop
      vertex -1.04528 -9.94522 -8
      vertex 1.04528 -9.94522 3
      vertex -1.04528 -9.94522 3
    endloop
  endfacet
  facet normal 0 -1 -0
    outer loop
      vertex 1.04528 -9.94522 3
      vertex -1.04528 -9.94522 -8
      vertex 1.04528 -9.94522 -8
    endloop
  endfacet
  facet normal 0 0 -1
    outer loop
      vertex 9 0 -8
      vertex 10 0 -8
      vertex 9.78148 -2.07912 -8
    endloop
  endfacet
  facet normal 0 0 -1
    outer loop
      vertex 8.78958 -1.93473 -8
      vertex 9.78148 -2.07912 -8
      vertex 9.13545 -4.06737 -8
    endloop
  endfacet
  facet normal 0 0 -1
    outer loop
      vertex 10 0 -8
      vertex 9 0 -8
      vertex 9.78148 2.07912 -8
    endloop
  endfacet
  facet normal 0 0 -1
    outer loop
      vertex 8.78958 1.93473 -8
      vertex 9.78148 2.07912 -8
      vertex 9 0 -8
    endloop
  endfacet
  facet normal 0 0 -1
    outer loop
      vertex 9.78148 -2.07912 -8
      vertex 8.78958 -1.93473 -8
      vertex 9 0 -8
    endloop
  endfacet
  facet normal 0 0 -1
    outer loop
      vertex 9.13545 -4.06737 -8
      vertex 8.16818 -3.779 -8
      vertex 8.78958 -1.93473 -8
    endloop
  endfacet
  facet normal 0 0 -1
    outer loop
      vertex 8.09017 -5.87785 -8
      vertex 8.16818 -3.779 -8
      vertex 9.13545 -4.06737 -8
    endloop
  endfacet
  facet normal 0 0 -1
    outer loop
      vertex 8.09017 -5.87785 -8
      vertex 7.16484 -5.44657 -8
      vertex 8.16818 -3.779 -8
    endloop
  endfacet
  facet normal 0 0 -1
    outer loop
      vertex 6.69131 -7.43145 -8
      vertex 7.16484 -5.44657 -8
      vertex 8.09017 -5.87785 -8
    endloop
  endfacet
  facet normal 0 0 -1
    outer loop
      vertex 6.69131 -7.43145 -8
      vertex 5.82648 -6.85946 -8
      vertex 7.16484 -5.44657 -8
    endloop
  endfacet
  facet normal 0 0 -1
    outer loop
      vertex 5 -8.66025 -8
      vertex 5.82648 -6.85946 -8
      vertex 6.69131 -7.43145 -8
    endloop
  endfacet
  facet normal 0 0 -1
    outer loop
      vertex 5 -8.66025 -8
      vertex 4.21568 -7.95161 -8
      vertex 5.82648 -6.85946 -8
    endloop
  endfacet
  facet normal 0 0 -1
    outer loop
      vertex 3.09017 -9.51056 -8
      vertex 4.21568 -7.95161 -8
      vertex 5 -8.66025 -8
    endloop
  endfacet
  facet normal 0 0 -1
    outer loop
      vertex 3.09017 -9.51056 -8
      vertex 2.40775 -8.67195 -8
      vertex 4.21568 -7.95161 -8
    endloop
  endfacet
  facet normal 0 0 -1
    outer loop
      vertex 1.04528 -9.94522 -8
      vertex 2.40775 -8.67195 -8
      vertex 3.09017 -9.51056 -8
    endloop
  endfacet
  facet normal 0 0 -1
    outer loop
      vertex 1.04528 -9.94522 -8
      vertex 0.487249 -8.9868 -8
      vertex 2.40775 -8.67195 -8
    endloop
  endfacet
  facet normal 0 0 -1
    outer loop
      vertex -1.04528 -9.94522 -8
      vertex 0.487249 -8.9868 -8
      vertex 1.04528 -9.94522 -8
    endloop
  endfacet
  facet normal 0 0 -1
    outer loop
      vertex -1.04528 -9.94522 -8
      vertex -1.45604 -8.88144 -8
      vertex 0.487249 -8.9868 -8
    endloop
  endfacet
  facet normal 0 0 -1
    outer loop
      vertex -3.09017 -9.51056 -8
      vertex -1.45604 -8.88144 -8
      vertex -1.04528 -9.94522 -8
    endloop
  endfacet
  facet normal 0 0 -1
    outer loop
      vertex -3.09017 -9.51056 -8
      vertex -3.33124 -8.36079 -8
      vertex -1.45604 -8.88144 -8
    endloop
  endfacet
  facet normal 0 0 -1
    outer loop
      vertex -5 -8.66025 -8
      vertex -3.33124 -8.36079 -8
      vertex -3.09017 -9.51056 -8
    endloop
  endfacet
  facet normal 0 0 -1
    outer loop
      vertex -5 -8.66025 -8
      vertex -5.05068 -7.4492 -8
      vertex -3.33124 -8.36079 -8
    endloop
  endfacet
  facet normal 0 0 -1
    outer loop
      vertex -6.69131 -7.43145 -8
      vertex -5.05068 -7.4492 -8
      vertex -5 -8.66025 -8
    endloop
  endfacet
  facet normal 0 0 -1
    outer loop
      vertex -5.05068 -7.4492 -8
      vertex -6.69131 -7.43145 -8
      vertex -6.53396 -6.18929 -8
    endloop
  endfacet
  facet normal 0 0 -1
    outer loop
      vertex -8.09017 -5.87785 -8
      vertex -6.53396 -6.18929 -8
      vertex -6.69131 -7.43145 -8
    endloop
  endfacet
  facet normal 0 0 -1
    outer loop
      vertex -6.53396 -6.18929 -8
      vertex -8.09017 -5.87785 -8
      vertex -7.71171 -4.63998 -8
    endloop
  endfacet
  facet normal 0 0 -1
    outer loop
      vertex -9.13545 -4.06737 -8
      vertex -7.71171 -4.63998 -8
      vertex -8.09017 -5.87785 -8
    endloop
  endfacet
  facet normal 0 0 -1
    outer loop
      vertex -7.71171 -4.63998 -8
      vertex -9.13545 -4.06737 -8
      vertex -8.52888 -2.87371 -8
    endloop
  endfacet
  facet normal 0 0 -1
    outer loop
      vertex -8.52888 -2.87371 -8
      vertex -9.78148 -2.07912 -8
      vertex -8.94724 -0.973071 -8
    endloop
  endfacet
  facet normal 0 0 -1
    outer loop
      vertex -9.78148 -2.07912 -8
      vertex -8.52888 -2.87371 -8
      vertex -9.13545 -4.06737 -8
    endloop
  endfacet
  facet normal -0 0 -1
    outer loop
      vertex 9.78148 2.07912 -8
      vertex 8.78958 1.93473 -8
      vertex 9.13545 4.06737 -8
    endloop
  endfacet
  facet normal 0 0 -1
    outer loop
      vertex 8.16818 3.779 -8
      vertex 9.13545 4.06737 -8
      vertex 8.78958 1.93473 -8
    endloop
  endfacet
  facet normal 0 0 -1
    outer loop
      vertex 8.16818 3.779 -8
      vertex 8.09017 5.87785 -8
      vertex 9.13545 4.06737 -8
    endloop
  endfacet
  facet normal 0 0 -1
    outer loop
      vertex 7.16484 5.44657 -8
      vertex 8.09017 5.87785 -8
      vertex 8.16818 3.779 -8
    endloop
  endfacet
  facet normal 0 0 -1
    outer loop
      vertex 7.16484 5.44657 -8
      vertex 6.69131 7.43145 -8
      vertex 8.09017 5.87785 -8
    endloop
  endfacet
  facet normal 0 0 -1
    outer loop
      vertex 5.82648 6.85946 -8
      vertex 6.69131 7.43145 -8
      vertex 7.16484 5.44657 -8
    endloop
  endfacet
  facet normal 0 0 -1
    outer loop
      vertex 5.82648 6.85946 -8
      vertex 5 8.66025 -8
      vertex 6.69131 7.43145 -8
    endloop
  endfacet
  facet normal 0 0 -1
    outer loop
      vertex 4.21568 7.95161 -8
      vertex 5 8.66025 -8
      vertex 5.82648 6.85946 -8
    endloop
  endfacet
  facet normal 0 0 -1
    outer loop
      vertex 4.21568 7.95161 -8
      vertex 3.09017 9.51056 -8
      vertex 5 8.66025 -8
    endloop
  endfacet
  facet normal 0 0 -1
    outer loop
      vertex 2.40775 8.67195 -8
      vertex 3.09017 9.51056 -8
      vertex 4.21568 7.95161 -8
    endloop
  endfacet
  facet normal 0 0 -1
    outer loop
      vertex 2.40775 8.67195 -8
      vertex 1.04528 9.94522 -8
      vertex 3.09017 9.51056 -8
    endloop
  endfacet
  facet normal 0 0 -1
    outer loop
      vertex 0.487249 8.9868 -8
      vertex 1.04528 9.94522 -8
      vertex 2.40775 8.67195 -8
    endloop
  endfacet
  facet normal 0 0 -1
    outer loop
      vertex 0.487249 8.9868 -8
      vertex -1.04528 9.94522 -8
      vertex 1.04528 9.94522 -8
    endloop
  endfacet
  facet normal 0 0 -1
    outer loop
      vertex -1.45604 8.88144 -8
      vertex -1.04528 9.94522 -8
      vertex 0.487249 8.9868 -8
    endloop
  endfacet
  facet normal 0 0 -1
    outer loop
      vertex -1.45604 8.88144 -8
      vertex -3.09017 9.51056 -8
      vertex -1.04528 9.94522 -8
    endloop
  endfacet
  facet normal 0 0 -1
    outer loop
      vertex -3.33124 8.36079 -8
      vertex -3.09017 9.51056 -8
      vertex -1.45604 8.88144 -8
    endloop
  endfacet
  facet normal 0 0 -1
    outer loop
      vertex -3.33124 8.36079 -8
      vertex -5 8.66025 -8
      vertex -3.09017 9.51056 -8
    endloop
  endfacet
  facet normal 0 0 -1
    outer loop
      vertex -5.05068 7.4492 -8
      vertex -5 8.66025 -8
      vertex -3.33124 8.36079 -8
    endloop
  endfacet
  facet normal 0 0 -1
    outer loop
      vertex -6.69131 7.43145 -8
      vertex -5.05068 7.4492 -8
      vertex -6.53396 6.18929 -8
    endloop
  endfacet
  facet normal -0 0 -1
    outer loop
      vertex -5.05068 7.4492 -8
      vertex -6.69131 7.43145 -8
      vertex -5 8.66025 -8
    endloop
  endfacet
  facet normal 0 0 -1
    outer loop
      vertex -8.09017 5.87785 -8
      vertex -6.53396 6.18929 -8
      vertex -7.71171 4.63998 -8
    endloop
  endfacet
  facet normal -0 0 -1
    outer loop
      vertex -6.53396 6.18929 -8
      vertex -8.09017 5.87785 -8
      vertex -6.69131 7.43145 -8
    endloop
  endfacet
  facet normal 0 0 -1
    outer loop
      vertex -9.13545 4.06737 -8
      vertex -7.71171 4.63998 -8
      vertex -8.52888 2.87371 -8
    endloop
  endfacet
  facet normal 0 0 -1
    outer loop
      vertex -9.78148 2.07912 -8
      vertex -8.52888 2.87371 -8
      vertex -8.94724 0.973071 -8
    endloop
  endfacet
  facet normal -0 0 -1
    outer loop
      vertex -7.71171 4.63998 -8
      vertex -9.13545 4.06737 -8
      vertex -8.09017 5.87785 -8
    endloop
  endfacet
  facet normal 0 0 -1
    outer loop
      vertex -10 0 -8
      vertex -8.94724 -0.973071 -8
      vertex -9.78148 -2.07912 -8
    endloop
  endfacet
  facet normal 0 0 -1
    outer loop
      vertex -8.94724 -0.973071 -8
      vertex -10 0 -8
      vertex -8.94724 0.973071 -8
    endloop
  endfacet
  facet normal -0 0 -1
    outer loop
      vertex -8.52888 2.87371 -8
      vertex -9.78148 2.07912 -8
      vertex -9.13545 4.06737 -8
    endloop
  endfacet
  facet normal -0 0 -1
    outer loop
      vertex -8.94724 0.973071 -8
      vertex -10 0 -8
      vertex -9.78148 2.07912 -8
    endloop
  endfacet
  facet normal -0.951057 -0.309017 0
    outer loop
      vertex -9.13545 -4.06737 -8
      vertex -9.78148 -2.07912 3
      vertex -9.78148 -2.07912 -8
    endloop
  endfacet
  facet normal -0.951057 -0.309017 0
    outer loop
      vertex -9.78148 -2.07912 3
      vertex -9.13545 -4.06737 -8
      vertex -9.13545 -4.06737 3
    endloop
  endfacet
  facet normal -0.743145 -0.669131 0
    outer loop
      vertex -6.69131 -7.43145 -8
      vertex -8.09017 -5.87785 3
      vertex -8.09017 -5.87785 -8
    endloop
  endfacet
  facet normal -0.743145 -0.669131 0
    outer loop
      vertex -8.09017 -5.87785 3
      vertex -6.69131 -7.43145 -8
      vertex -6.69131 -7.43145 3
    endloop
  endfacet
  facet normal 0.743145 -0.669131 0
    outer loop
      vertex 6.69131 -7.43145 3
      vertex 8.09017 -5.87785 -8
      vertex 8.09017 -5.87785 3
    endloop
  endfacet
  facet normal 0.743145 -0.669131 0
    outer loop
      vertex 8.09017 -5.87785 -8
      vertex 6.69131 -7.43145 3
      vertex 6.69131 -7.43145 -8
    endloop
  endfacet
  facet normal -0.406737 -0.913545 0
    outer loop
      vertex -5 -8.66025 -8
      vertex -3.09017 -9.51056 3
      vertex -5 -8.66025 3
    endloop
  endfacet
  facet normal -0.406737 -0.913545 -0
    outer loop
      vertex -3.09017 -9.51056 3
      vertex -5 -8.66025 -8
      vertex -3.09017 -9.51056 -8
    endloop
  endfacet
  facet normal -0.587785 -0.809017 0
    outer loop
      vertex -6.69131 -7.43145 -8
      vertex -5 -8.66025 3
      vertex -6.69131 -7.43145 3
    endloop
  endfacet
  facet normal -0.587785 -0.809017 -0
    outer loop
      vertex -5 -8.66025 3
      vertex -6.69131 -7.43145 -8
      vertex -5 -8.66025 -8
    endloop
  endfacet
  facet normal -0.994138 -0.108119 0
    outer loop
      vertex 9 0 -8
      vertex 8.78958 1.93473 -2
      vertex 8.78958 1.93473 -8
    endloop
  endfacet
  facet normal -0.994138 -0.108119 0
    outer loop
      vertex 8.78958 1.93473 -2
      vertex 9 0 -8
      vertex 9 0 -2
    endloop
  endfacet
  facet normal 1 -0 0
    outer loop
      vertex -8.94724 -0.973071 -2
      vertex -8.94724 0.973071 -8
      vertex -8.94724 0.973071 -2
    endloop
  endfacet
  facet normal 1 0 0
    outer loop
      vertex -8.94724 0.973071 -8
      vertex -8.94724 -0.973071 -2
      vertex -8.94724 -0.973071 -8
    endloop
  endfacet
  facet normal 0.0541389 -0.998533 0
    outer loop
      vertex -1.45604 8.88144 -8
      vertex 0.487249 8.9868 -2
      vertex -1.45604 8.88144 -2
    endloop
  endfacet
  facet normal 0.0541389 -0.998533 0
    outer loop
      vertex 0.487249 8.9868 -2
      vertex -1.45604 8.88144 -8
      vertex 0.487249 8.9868 -8
    endloop
  endfacet
  facet normal -0.161782 0.986827 0
    outer loop
      vertex 2.40775 -8.67195 -8
      vertex 0.487249 -8.9868 -2
      vertex 2.40775 -8.67195 -2
    endloop
  endfacet
  facet normal -0.161782 0.986827 0
    outer loop
      vertex 0.487249 -8.9868 -2
      vertex 2.40775 -8.67195 -8
      vertex 0.487249 -8.9868 -8
    endloop
  endfacet
  facet normal -0.725996 -0.687699 0
    outer loop
      vertex 7.16484 5.44657 -8
      vertex 5.82648 6.85946 -2
      vertex 5.82648 6.85946 -8
    endloop
  endfacet
  facet normal -0.725996 -0.687699 0
    outer loop
      vertex 5.82648 6.85946 -2
      vertex 7.16484 5.44657 -8
      vertex 7.16484 5.44657 -2
    endloop
  endfacet
  facet normal -0.947653 -0.319301 0
    outer loop
      vertex 8.78958 1.93473 -8
      vertex 8.16818 3.779 -2
      vertex 8.16818 3.779 -8
    endloop
  endfacet
  facet normal -0.947653 -0.319301 0
    outer loop
      vertex 8.16818 3.779 -2
      vertex 8.78958 1.93473 -8
      vertex 8.78958 1.93473 -2
    endloop
  endfacet
  facet normal 0.647386 -0.762162 0
    outer loop
      vertex -6.53396 6.18929 -8
      vertex -5.05068 7.4492 -2
      vertex -6.53396 6.18929 -2
    endloop
  endfacet
  facet normal 0.647386 -0.762162 0
    outer loop
      vertex -5.05068 7.4492 -2
      vertex -6.53396 6.18929 -8
      vertex -5.05068 7.4492 -8
    endloop
  endfacet
  facet normal 0.267528 -0.96355 0
    outer loop
      vertex -3.33124 8.36079 -8
      vertex -1.45604 8.88144 -2
      vertex -3.33124 8.36079 -2
    endloop
  endfacet
  facet normal 0.267528 -0.96355 0
    outer loop
      vertex -1.45604 8.88144 -2
      vertex -3.33124 8.36079 -8
      vertex -1.45604 8.88144 -8
    endloop
  endfacet
  facet normal -0.856857 0.515554 0
    outer loop
      vertex 7.16484 -5.44657 -8
      vertex 8.16818 -3.779 -2
      vertex 8.16818 -3.779 -8
    endloop
  endfacet
  facet normal -0.856857 0.515554 0
    outer loop
      vertex 8.16818 -3.779 -2
      vertex 7.16484 -5.44657 -8
      vertex 7.16484 -5.44657 -2
    endloop
  endfacet
  facet normal -0.856857 -0.515554 0
    outer loop
      vertex 8.16818 3.779 -8
      vertex 7.16484 5.44657 -2
      vertex 7.16484 5.44657 -8
    endloop
  endfacet
  facet normal -0.856857 -0.515554 0
    outer loop
      vertex 7.16484 5.44657 -2
      vertex 8.16818 3.779 -8
      vertex 8.16818 3.779 -2
    endloop
  endfacet
  facet normal -0.370138 -0.928977 0
    outer loop
      vertex 2.40775 8.67195 -8
      vertex 4.21568 7.95161 -2
      vertex 2.40775 8.67195 -2
    endloop
  endfacet
  facet normal -0.370138 -0.928977 -0
    outer loop
      vertex 4.21568 7.95161 -2
      vertex 2.40775 8.67195 -8
      vertex 4.21568 7.95161 -8
    endloop
  endfacet
  facet normal -0.161782 -0.986827 0
    outer loop
      vertex 0.487249 8.9868 -8
      vertex 2.40775 8.67195 -2
      vertex 0.487249 8.9868 -2
    endloop
  endfacet
  facet normal -0.161782 -0.986827 -0
    outer loop
      vertex 2.40775 8.67195 -2
      vertex 0.487249 8.9868 -8
      vertex 2.40775 8.67195 -8
    endloop
  endfacet
  facet normal -0.561187 -0.827689 0
    outer loop
      vertex 4.21568 7.95161 -8
      vertex 5.82648 6.85946 -2
      vertex 4.21568 7.95161 -2
    endloop
  endfacet
  facet normal -0.561187 -0.827689 -0
    outer loop
      vertex 5.82648 6.85946 -2
      vertex 4.21568 7.95161 -8
      vertex 5.82648 6.85946 -8
    endloop
  endfacet
  facet normal 0.907575 -0.419889 0
    outer loop
      vertex -8.52888 2.87371 -2
      vertex -7.71171 4.63998 -8
      vertex -7.71171 4.63998 -2
    endloop
  endfacet
  facet normal 0.907575 -0.419889 0
    outer loop
      vertex -7.71171 4.63998 -8
      vertex -8.52888 2.87371 -2
      vertex -8.52888 2.87371 -8
    endloop
  endfacet
  facet normal 0.796093 -0.605174 0
    outer loop
      vertex -7.71171 4.63998 -2
      vertex -6.53396 6.18929 -8
      vertex -6.53396 6.18929 -2
    endloop
  endfacet
  facet normal 0.796093 -0.605174 0
    outer loop
      vertex -6.53396 6.18929 -8
      vertex -7.71171 4.63998 -2
      vertex -7.71171 4.63998 -8
    endloop
  endfacet
  facet normal 0.976621 -0.21497 0
    outer loop
      vertex -8.94724 0.973071 -2
      vertex -8.52888 2.87371 -8
      vertex -8.52888 2.87371 -2
    endloop
  endfacet
  facet normal 0.976621 -0.21497 0
    outer loop
      vertex -8.52888 2.87371 -8
      vertex -8.94724 0.973071 -2
      vertex -8.94724 0.973071 -8
    endloop
  endfacet
  facet normal 0 0 -1
    outer loop
      vertex 8 0 -2
      vertex 9 0 -2
      vertex 8.78958 -1.93473 -2
    endloop
  endfacet
  facet normal 0 0 -1
    outer loop
      vertex 7.76753 -1.91453 -2
      vertex 8.78958 -1.93473 -2
      vertex 8.16818 -3.779 -2
    endloop
  endfacet
  facet normal 0 0 -1
    outer loop
      vertex 9 0 -2
      vertex 8 0 -2
      vertex 8.78958 1.93473 -2
    endloop
  endfacet
  facet normal 0 0 -1
    outer loop
      vertex 7.76753 1.91453 -2
      vertex 8.78958 1.93473 -2
      vertex 8 0 -2
    endloop
  endfacet
  facet normal 0 0 -1
    outer loop
      vertex 8.78958 -1.93473 -2
      vertex 7.76753 -1.91453 -2
      vertex 8 0 -2
    endloop
  endfacet
  facet normal 0 0 -1
    outer loop
      vertex 7.08365 -3.71778 -2
      vertex 8.16818 -3.779 -2
      vertex 7.16484 -5.44657 -2
    endloop
  endfacet
  facet normal 0 0 -1
    outer loop
      vertex 8.16818 -3.779 -2
      vertex 7.08365 -3.71778 -2
      vertex 7.76753 -1.91453 -2
    endloop
  endfacet
  facet normal 0 0 -1
    outer loop
      vertex 7.16484 -5.44657 -2
      vertex 5.98809 -5.30498 -2
      vertex 7.08365 -3.71778 -2
    endloop
  endfacet
  facet normal 0 0 -1
    outer loop
      vertex 5.82648 -6.85946 -2
      vertex 5.98809 -5.30498 -2
      vertex 7.16484 -5.44657 -2
    endloop
  endfacet
  facet normal 0 0 -1
    outer loop
      vertex 5.82648 -6.85946 -2
      vertex 4.54452 -6.58387 -2
      vertex 5.98809 -5.30498 -2
    endloop
  endfacet
  facet normal 0 0 -1
    outer loop
      vertex 4.21568 -7.95161 -2
      vertex 4.54452 -6.58387 -2
      vertex 5.82648 -6.85946 -2
    endloop
  endfacet
  facet normal 0 0 -1
    outer loop
      vertex 4.21568 -7.95161 -2
      vertex 2.83684 -7.48013 -2
      vertex 4.54452 -6.58387 -2
    endloop
  endfacet
  facet normal 0 0 -1
    outer loop
      vertex 2.40775 -8.67195 -2
      vertex 2.83684 -7.48013 -2
      vertex 4.21568 -7.95161 -2
    endloop
  endfacet
  facet normal 0 0 -1
    outer loop
      vertex 2.40775 -8.67195 -2
      vertex 0.964293 -7.94167 -2
      vertex 2.83684 -7.48013 -2
    endloop
  endfacet
  facet normal 0 0 -1
    outer loop
      vertex 0.487249 -8.9868 -2
      vertex 0.964293 -7.94167 -2
      vertex 2.40775 -8.67195 -2
    endloop
  endfacet
  facet normal 0 0 -1
    outer loop
      vertex 0.487249 -8.9868 -2
      vertex -0.964293 -7.94167 -2
      vertex 0.964293 -7.94167 -2
    endloop
  endfacet
  facet normal 0 0 -1
    outer loop
      vertex -1.45604 -8.88144 -2
      vertex -0.964293 -7.94167 -2
      vertex 0.487249 -8.9868 -2
    endloop
  endfacet
  facet normal 0 0 -1
    outer loop
      vertex -1.45604 -8.88144 -2
      vertex -2.83684 -7.48013 -2
      vertex -0.964293 -7.94167 -2
    endloop
  endfacet
  facet normal 0 0 -1
    outer loop
      vertex -3.33124 -8.36079 -2
      vertex -2.83684 -7.48013 -2
      vertex -1.45604 -8.88144 -2
    endloop
  endfacet
  facet normal 0 0 -1
    outer loop
      vertex -3.33124 -8.36079 -2
      vertex -4.54452 -6.58387 -2
      vertex -2.83684 -7.48013 -2
    endloop
  endfacet
  facet normal 0 0 -1
    outer loop
      vertex -5.05068 -7.4492 -2
      vertex -4.54452 -6.58387 -2
      vertex -3.33124 -8.36079 -2
    endloop
  endfacet
  facet normal 0 0 -1
    outer loop
      vertex -6.53396 -6.18929 -2
      vertex -4.54452 -6.58387 -2
      vertex -5.05068 -7.4492 -2
    endloop
  endfacet
  facet normal 0 0 -1
    outer loop
      vertex -4.54452 -6.58387 -2
      vertex -6.53396 -6.18929 -2
      vertex -5.98809 -5.30498 -2
    endloop
  endfacet
  facet normal 0 0 -1
    outer loop
      vertex -7.71171 -4.63998 -2
      vertex -5.98809 -5.30498 -2
      vertex -6.53396 -6.18929 -2
    endloop
  endfacet
  facet normal 0 0 -1
    outer loop
      vertex -5.98809 -5.30498 -2
      vertex -7.71171 -4.63998 -2
      vertex -7.08365 -3.71778 -2
    endloop
  endfacet
  facet normal 0 0 -1
    outer loop
      vertex -8.52888 -2.87371 -2
      vertex -7.08365 -3.71778 -2
      vertex -7.71171 -4.63998 -2
    endloop
  endfacet
  facet normal 0 0 -1
    outer loop
      vertex -7.08365 -3.71778 -2
      vertex -8.52888 -2.87371 -2
      vertex -7.76753 -1.91453 -2
    endloop
  endfacet
  facet normal 0 0 -1
    outer loop
      vertex -8.94724 -0.973071 -2
      vertex -7.76753 -1.91453 -2
      vertex -8.52888 -2.87371 -2
    endloop
  endfacet
  facet normal -0 0 -1
    outer loop
      vertex 8.78958 1.93473 -2
      vertex 7.76753 1.91453 -2
      vertex 8.16818 3.779 -2
    endloop
  endfacet
  facet normal 0 0 -1
    outer loop
      vertex 7.08365 3.71778 -2
      vertex 8.16818 3.779 -2
      vertex 7.76753 1.91453 -2
    endloop
  endfacet
  facet normal -0 0 -1
    outer loop
      vertex 8.16818 3.779 -2
      vertex 7.08365 3.71778 -2
      vertex 7.16484 5.44657 -2
    endloop
  endfacet
  facet normal 0 0 -1
    outer loop
      vertex 5.98809 5.30498 -2
      vertex 7.16484 5.44657 -2
      vertex 7.08365 3.71778 -2
    endloop
  endfacet
  facet normal 0 0 -1
    outer loop
      vertex 5.98809 5.30498 -2
      vertex 5.82648 6.85946 -2
      vertex 7.16484 5.44657 -2
    endloop
  endfacet
  facet normal 0 0 -1
    outer loop
      vertex 4.54452 6.58387 -2
      vertex 5.82648 6.85946 -2
      vertex 5.98809 5.30498 -2
    endloop
  endfacet
  facet normal 0 0 -1
    outer loop
      vertex 4.54452 6.58387 -2
      vertex 4.21568 7.95161 -2
      vertex 5.82648 6.85946 -2
    endloop
  endfacet
  facet normal 0 0 -1
    outer loop
      vertex 2.83684 7.48013 -2
      vertex 4.21568 7.95161 -2
      vertex 4.54452 6.58387 -2
    endloop
  endfacet
  facet normal 0 0 -1
    outer loop
      vertex 2.83684 7.48013 -2
      vertex 2.40775 8.67195 -2
      vertex 4.21568 7.95161 -2
    endloop
  endfacet
  facet normal 0 0 -1
    outer loop
      vertex 0.964293 7.94167 -2
      vertex 2.40775 8.67195 -2
      vertex 2.83684 7.48013 -2
    endloop
  endfacet
  facet normal 0 0 -1
    outer loop
      vertex 0.964293 7.94167 -2
      vertex 0.487249 8.9868 -2
      vertex 2.40775 8.67195 -2
    endloop
  endfacet
  facet normal 0 0 -1
    outer loop
      vertex -0.964293 7.94167 -2
      vertex 0.487249 8.9868 -2
      vertex 0.964293 7.94167 -2
    endloop
  endfacet
  facet normal 0 0 -1
    outer loop
      vertex -0.964293 7.94167 -2
      vertex -1.45604 8.88144 -2
      vertex 0.487249 8.9868 -2
    endloop
  endfacet
  facet normal 0 0 -1
    outer loop
      vertex -2.83684 7.48013 -2
      vertex -1.45604 8.88144 -2
      vertex -0.964293 7.94167 -2
    endloop
  endfacet
  facet normal 0 0 -1
    outer loop
      vertex -2.83684 7.48013 -2
      vertex -3.33124 8.36079 -2
      vertex -1.45604 8.88144 -2
    endloop
  endfacet
  facet normal 0 0 -1
    outer loop
      vertex -4.54452 6.58387 -2
      vertex -3.33124 8.36079 -2
      vertex -2.83684 7.48013 -2
    endloop
  endfacet
  facet normal 0 0 -1
    outer loop
      vertex -4.54452 6.58387 -2
      vertex -5.05068 7.4492 -2
      vertex -3.33124 8.36079 -2
    endloop
  endfacet
  facet normal 0 0 -1
    outer loop
      vertex -6.53396 6.18929 -2
      vertex -4.54452 6.58387 -2
      vertex -5.98809 5.30498 -2
    endloop
  endfacet
  facet normal -0 0 -1
    outer loop
      vertex -4.54452 6.58387 -2
      vertex -6.53396 6.18929 -2
      vertex -5.05068 7.4492 -2
    endloop
  endfacet
  facet normal 0 0 -1
    outer loop
      vertex -7.71171 4.63998 -2
      vertex -5.98809 5.30498 -2
      vertex -7.08365 3.71778 -2
    endloop
  endfacet
  facet normal -0 0 -1
    outer loop
      vertex -5.98809 5.30498 -2
      vertex -7.71171 4.63998 -2
      vertex -6.53396 6.18929 -2
    endloop
  endfacet
  facet normal 0 0 -1
    outer loop
      vertex -8.52888 2.87371 -2
      vertex -7.08365 3.71778 -2
      vertex -7.76753 1.91453 -2
    endloop
  endfacet
  facet normal 0 0 -1
    outer loop
      vertex -8.94724 0.973071 -2
      vertex -7.76753 1.91453 -2
      vertex -8 0 -2
    endloop
  endfacet
  facet normal 0 0 -1
    outer loop
      vertex -7.76753 -1.91453 -2
      vertex -8.94724 -0.973071 -2
      vertex -8 0 -2
    endloop
  endfacet
  facet normal -0 0 -1
    outer loop
      vertex -7.08365 3.71778 -2
      vertex -8.52888 2.87371 -2
      vertex -7.71171 4.63998 -2
    endloop
  endfacet
  facet normal 0 0 -1
    outer loop
      vertex -8.94724 0.973071 -2
      vertex -8 0 -2
      vertex -8.94724 -0.973071 -2
    endloop
  endfacet
  facet normal -0 0 -1
    outer loop
      vertex -7.76753 1.91453 -2
      vertex -8.94724 0.973071 -2
      vertex -8.52888 2.87371 -2
    endloop
  endfacet
  facet normal 0.468408 -0.883512 0
    outer loop
      vertex -5.05068 7.4492 -8
      vertex -3.33124 8.36079 -2
      vertex -5.05068 7.4492 -2
    endloop
  endfacet
  facet normal 0.468408 -0.883512 0
    outer loop
      vertex -3.33124 8.36079 -2
      vertex -5.05068 7.4492 -8
      vertex -3.33124 8.36079 -8
    endloop
  endfacet
  facet normal -0.994138 0.108119 0
    outer loop
      vertex 8.78958 -1.93473 -8
      vertex 9 0 -2
      vertex 9 0 -8
    endloop
  endfacet
  facet normal -0.994138 0.108119 0
    outer loop
      vertex 9 0 -2
      vertex 8.78958 -1.93473 -8
      vertex 8.78958 -1.93473 -2
    endloop
  endfacet
  facet normal 0.976621 0.21497 0
    outer loop
      vertex -8.52888 -2.87371 -2
      vertex -8.94724 -0.973071 -8
      vertex -8.94724 -0.973071 -2
    endloop
  endfacet
  facet normal 0.976621 0.21497 0
    outer loop
      vertex -8.94724 -0.973071 -8
      vertex -8.52888 -2.87371 -2
      vertex -8.52888 -2.87371 -8
    endloop
  endfacet
  facet normal -0.947653 0.319301 0
    outer loop
      vertex 8.16818 -3.779 -8
      vertex 8.78958 -1.93473 -2
      vertex 8.78958 -1.93473 -8
    endloop
  endfacet
  facet normal -0.947653 0.319301 0
    outer loop
      vertex 8.78958 -1.93473 -2
      vertex 8.16818 -3.779 -8
      vertex 8.16818 -3.779 -2
    endloop
  endfacet
  facet normal 0.796093 0.605174 0
    outer loop
      vertex -6.53396 -6.18929 -2
      vertex -7.71171 -4.63998 -8
      vertex -7.71171 -4.63998 -2
    endloop
  endfacet
  facet normal 0.796093 0.605174 0
    outer loop
      vertex -7.71171 -4.63998 -8
      vertex -6.53396 -6.18929 -2
      vertex -6.53396 -6.18929 -8
    endloop
  endfacet
  facet normal 0.907575 0.419889 0
    outer loop
      vertex -7.71171 -4.63998 -2
      vertex -8.52888 -2.87371 -8
      vertex -8.52888 -2.87371 -2
    endloop
  endfacet
  facet normal 0.907575 0.419889 0
    outer loop
      vertex -8.52888 -2.87371 -8
      vertex -7.71171 -4.63998 -2
      vertex -7.71171 -4.63998 -8
    endloop
  endfacet
  facet normal -0.370138 0.928977 0
    outer loop
      vertex 4.21568 -7.95161 -8
      vertex 2.40775 -8.67195 -2
      vertex 4.21568 -7.95161 -2
    endloop
  endfacet
  facet normal -0.370138 0.928977 0
    outer loop
      vertex 2.40775 -8.67195 -2
      vertex 4.21568 -7.95161 -8
      vertex 2.40775 -8.67195 -8
    endloop
  endfacet
  facet normal -0.725996 0.687699 0
    outer loop
      vertex 5.82648 -6.85946 -8
      vertex 7.16484 -5.44657 -2
      vertex 7.16484 -5.44657 -8
    endloop
  endfacet
  facet normal -0.725996 0.687699 0
    outer loop
      vertex 7.16484 -5.44657 -2
      vertex 5.82648 -6.85946 -8
      vertex 5.82648 -6.85946 -2
    endloop
  endfacet
  facet normal 0.468408 0.883512 -0
    outer loop
      vertex -3.33124 -8.36079 -8
      vertex -5.05068 -7.4492 -2
      vertex -3.33124 -8.36079 -2
    endloop
  endfacet
  facet normal 0.468408 0.883512 0
    outer loop
      vertex -5.05068 -7.4492 -2
      vertex -3.33124 -8.36079 -8
      vertex -5.05068 -7.4492 -8
    endloop
  endfacet
  facet normal 0.267528 0.96355 -0
    outer loop
      vertex -1.45604 -8.88144 -8
      vertex -3.33124 -8.36079 -2
      vertex -1.45604 -8.88144 -2
    endloop
  endfacet
  facet normal 0.267528 0.96355 0
    outer loop
      vertex -3.33124 -8.36079 -2
      vertex -1.45604 -8.88144 -8
      vertex -3.33124 -8.36079 -8
    endloop
  endfacet
  facet normal 0.0541389 0.998533 -0
    outer loop
      vertex 0.487249 -8.9868 -8
      vertex -1.45604 -8.88144 -2
      vertex 0.487249 -8.9868 -2
    endloop
  endfacet
  facet normal 0.0541389 0.998533 0
    outer loop
      vertex -1.45604 -8.88144 -2
      vertex 0.487249 -8.9868 -8
      vertex -1.45604 -8.88144 -8
    endloop
  endfacet
  facet normal 0.647386 0.762162 -0
    outer loop
      vertex -5.05068 -7.4492 -8
      vertex -6.53396 -6.18929 -2
      vertex -5.05068 -7.4492 -2
    endloop
  endfacet
  facet normal 0.647386 0.762162 0
    outer loop
      vertex -6.53396 -6.18929 -2
      vertex -5.05068 -7.4492 -8
      vertex -6.53396 -6.18929 -8
    endloop
  endfacet
  facet normal -0.561187 0.827689 0
    outer loop
      vertex 5.82648 -6.85946 -8
      vertex 4.21568 -7.95161 -2
      vertex 5.82648 -6.85946 -2
    endloop
  endfacet
  facet normal -0.561187 0.827689 0
    outer loop
      vertex 4.21568 -7.95161 -2
      vertex 5.82648 -6.85946 -8
      vertex 4.21568 -7.95161 -8
    endloop
  endfacet
endsolid OpenSCAD_Model
